<mxfile host="app.diagrams.net" agent="Mozilla/5.0 (Macintosh; Intel Mac OS X 10_15_7) AppleWebKit/537.36 (KHTML, like Gecko) Chrome/130.0.0.0 Safari/537.36" version="25.0.1">
  <diagram name="Strona-1" id="r-mhmkrfkXZwCH0JvgMG">
    <mxGraphModel dx="3105" dy="1963" grid="1" gridSize="10" guides="1" tooltips="1" connect="1" arrows="1" fold="1" page="1" pageScale="1" pageWidth="827" pageHeight="1169" math="0" shadow="0">
      <root>
        <mxCell id="0" />
        <mxCell id="1" parent="0" />
        <mxCell id="DMcxGunUPjFdxih0yiid-1" value="&lt;b style=&quot;font-weight:normal;&quot; id=&quot;docs-internal-guid-e5a27284-7fff-e143-a129-0a2b45279439&quot;&gt;&lt;img src=&quot;data:image/png;base64,iVBORw0KGgoAAAANSUhEUgAACJQAAAOcCAYAAAASRHlhAAAAAXNSR0IArs4c6QAAIABJREFUeF7s3XeUFEW7x/GHaMDwCoIoiCxKUIJEJecMKznnnHOGXXLOOS8ZyRkWSUtOAhIEQUkCBjKiAiIg99ToDFMz3dM9y+6ycL91zj3Xna6uqv50Df/M730qxuPHjx8LDQEEEEAAAQQQQAABBBBAAAEEEEAAAQQQQAABBBBAAAEEEEAAAQQQQACB/wRiEChhLyCAAAIIIIAAAggggAACCCCAAAIIIIAAAggggAACCCCAAAIIIIAAAgi4CxAoYT8ggAACCCCAAAIIIIAAAggggAACCCCAAAIIIIAAAggggAACCCCAAAIIaAIEStgQCCCAAAIIIIAAAggggAACCCCAAAIIIIAAAggggAACCCCAAAIIIIAAApoAgRI2BAIIIIAAAggggAACCCCAAAIIIIAAAggggAACCCCAAAIIIIAAAggggIAmQKCEDYEAAggggAACCCCAAAIIIIAAAggggAACCCCAAAIIIIAAAggggAACCCCgCRAoYUMggAACCCCAAAIIIIAAAggggAACCCCAAAIIIIAAAggggAACCCCAAAIIaAIEStgQCCCAAAIIIIAAAggggAACCCCAAAIIIIAAAggggAACCCCAAAIIIIAAApoAgRI2BAIIIIAAAggggAACCCCAAAIIIIAAAggggAACCCCAAAIIIIAAAggggIAmQKCEDYEAAggggAACCCCAAAIIIIAAAggggAACCCCAAAIIIIAAAggggAACCCCgCRAoYUMggAACCCCAAAIIIIAAAggggAACCCCAAAIIIIAAAggggAACCCCAAAIIaAIEStgQCCCAAAIIIIAAAggggAACCCCAAAIIIIAAAggggAACCCCAAAIIIIAAApoAgRI2BAIIIIAAAggggAACCCCAAAIIIIAAAggggAACCCCAAAIIIIAAAggggIAmQKCEDYEAAggggAACCCCAAAIIIIAAAggggAACCCCAAAIIIIAAAggggAACCCCgCRAoYUMggAACCCCAAAIIIIAAAggggAACCCCAAAIIIIAAAggggAACCCCAAAIIaAIEStgQCCCAAAIIIIAAAggggAACCCCAAAIIIIAAAggggAACCCCAAAIIIIAAApoAgRI2BAIIIIAAAggggAACCCCAAAIIIIAAAggggAACCCCAAAIIIIAAAggggIAmQKCEDYEAAggggAACCCCAAAIIIIAAAggggAACCCCAAAIIIIAAAggggAACCCCgCRAoYUMggAACCCCAAAIIIIAAAggggAACCCCAAAIIIIAAAggggAACCCCAAAIIaAIEStgQCCCAAAIIIIAAAggggAACCCCAAAIIIIAAAggggAACCCCAAAIIIIAAApoAgRI2BAIIIIAAAggggAACCCCAAAIIIIAAAggggAACCCCAAAIIIIAAAggggIAmQKCEDYEAAggggAACCCCAAAIIIIAAAggggAACCCCAAAIIIIAAAggggAACCCCgCRAoYUMggAACCCCAAAIIIIAAAggggAACCCCAAAIIIIAAAggggAACCCCAAAIIaAIEStgQCCCAAAIIIIAAAggggAACCCCAAAIIIIAAAggggAACCCCAAAIIIIAAApoAgRI2BAIIIIAAAggggAACCCCAAAIIIIAAAggggAACCCCAAAIIIIAAAggggIAmQKCEDYEAAggggAACCCCAAAIIIIAAAggggAACCCCAAAIIIIAAAggggAACCCCgCRAoYUMggAACCCCAAAIIIIAAAggggAACCCCAAAIIIIAAAggggAACCCCAAAIIaAIEStgQCCCAAAIIIIAAAggggAACCCCAAAIIIIAAAggggAACCCCAAAIIIIAAApoAgRI2BAIIIIAAAggggAACCCCAAAIIIIAAAggggAACCCCAAAIIIIAAAggggIAmQKCEDYEAAggggAACCCCAAAIIIIAAAggggAACCCCAAAIIIIAAAggggAACCCCgCRAoYUMggAACCCCAAAIIIIAAAggggAACCCCAAAIIIIAAAggggAACCCCAAAIIaAIEStgQCCCAAAIIIIAAAggggAACCCCAAAIIIIAAAggggAACCCCAAAIIIIAAApoAgRI2BAIIIIAAAggggAACCCCAAAIIIIAAAggggAACCCCAAAIIIIAAAggggIAmQKCEDYEAAggggAACCCCAAAIIIIAAAggggAACCCCAAAIIIIAAAggggAACCCCgCRAoYUMggAACCCCAAAIIIIAAAggggAACCCCAAAIIIIAAAggggAACCCCAAAIIaAIEStgQCCCAAAIIIIAAAggggAACCCCAAAIIIIAAAggggAACCCCAAAIIIIAAApoAgRI2BAIIIIAAAggggAACCCCAAAIIIIAAAggggAACCCCAAAIIIIAAAggggIAmQKCEDYEAAggggAACCCCAAAIIIIAAAggggAACCCCAAAIIIIAAAggggAACCCCgCRAoYUMggAACCCCAAAIIIIAAAggggAACCCCAAAIIIIAAAggggAACCCCAAAIIaAIEStgQCCCAAAIIIIAAAggggAACCCCAAAIIIIAAAggggAACCCCAAAIIIIAAApoAgRI2BAIIIIAAAggggAACCCCAAAIIIIAAAggggAACCCCAAAIIIIAAAggggIAmQKCEDYEAAggggAACCCCAAAIIIIAAAggggAACCCCAAAIIIIAAAggggAACCCCgCRAoYUMggAACCCCAAAIIIIAAAggggAACCCCAAAIIIIAAAggggAACCCCAAAIIaAIEStgQCCCAAAIIIIAAAggggAACCCCAAAIIIIAAAggggAACCCCAAAIIIIAAApoAgRI2BAIIIIAAAggggAACCCCAAAIIIIAAAggggAACCCCAAAIIIIAAAggggIAmQKCEDYEAAggggAACCCCAAAIIIIAAAggggAACCCCAAAIIIIAAAggggAACCCCgCRAoYUMggAACCCCAAAIIIIAAAggggAACCCCAAAIIIIAAAggggAACCCCAAAIIaAIEStgQCCCAAAIIIIAAAggggAACCCCAAAIIIIAAAggggAACCCCAAAIIIIAAApoAgRI2BAIIIIAAAggggAACCCCAAAIIIIAAAggggAACCCCAAAIIIIAAAggggIAmQKCEDYEAAggggAACCCCAAAIIIIAAAggggAACCCCAAAIIIIAAAggggAACCCCgCRAoYUMggAACCCCAAAIIIIAAAggggAACCCCAAAIIIIAAAggggAACCCCAAAIIaAIEStgQCCCAAAIIIIAAAggggAACCCCAAAIIIIAAAggggAACCCCAAAIIIIAAApoAgRI2BAIIIIAAAggggAACCCCAAAIIIIAAAggggAACCCCAAAIIIIAAAggggIAmQKCEDYEAAggggAACCCCAAAIIIIAAAggggAACCCCAAAIIIIAAAggggAACCCCgCRAoYUMggAACCCCAAAIIIIAAAggggAACCCCAAAIIIIAAAggggAACCCCAAAIIaAIEStgQCCCAAAIIIIAAAggggAACCCCAAAIIIIAAAggggAACCCCAAAIIIIAAApoAgRI2BAIIIIAAAggggAACCCCAAAIIIIAAAggggAACCCCAAAIIIIAAAggggIAmQKCEDYEAAggggAACCCCAAAIIIIAAAggggAACCCCAAAIIIIAAAggggAACCCCgCRAoYUMggAACCCCAAAIIIIAAAggggAACCCCAAAIIIIAAAggggAACCCCAAAIIaAIEStgQCCCAAAIIIIAAAggggAACCCCAAAIIIIAAAggggAACCCCAAAIIIIAAApoAgRI2BAIIIIAAAggggAACCCCAAAIIIIAAAggggAACCCCAAAIIIIAAAggggIAmQKCEDYEAAggggAACCCCAAAIIIIAAAggggAACCCCAAAIIIIAAAggggAACCCCgCRAoYUMggAACCCCAAAIIIIAAAggggAACCCCAAAIIIIAAAggggAACCCCAAAIIaAIEStgQCCCAAAIIIIAAAggggAACCCCAAAIIIIAAAggggAACCCCAAAIIIIAAApoAgRI2BAIIIIAAAggggAACCCCAAAIIIIAAAggggAACCCCAAAIIIIAAAggggIAmQKCEDYEAAggggAACCCCAAAIIIIAAAggggAACCCCAAAIIIIAAAggggAACCCCgCRAoYUMggAACCCCAAAIIIIAAAggggAACCCCAAAIIIIAAAggggAACCCCAAAIIaAIEStgQCCCAAAIIIIAAAggggAACCCCAAAIIIIAAAggggAACCCCAAAIIIIAAApoAgRI2BAIIIIAAAggggAACCCCAAAIIIIAAAggggAACCCCAAAIIIIAAAggggIAmQKCEDYEAAggggAACCCCAAAIIIIAAAggggAACCCCAAAIIIIAAAggggAACCCCgCRAoYUMggAACCCCAAAIIIIAAAggggAACCCCAAAIIIIAAAggggAACCCCAAAIIaAIEStgQCCCAAAIIIIAAAggggAACCCCAAAIIIIAAAggggAACCCCAAAIIIIAAApoAgRI2BAIIIIAAAggggAACCCCAAAIIIIAAAggggAACCCCAAAIIIIAAAggggIAmQKCEDYEAAggggAACCCCAAAIIIIAAAggggAACCCCAAAIIIIAAAggggAACCCCgCRAoYUMggAACCCCAAAIIIIAAAggggAACCCCAAAIIIIAAAggggAACCCCAAAIIaAIEStgQCCCAAAIIIIAAAggggAACCCCAAAIIIIAAAggggAACCCCAAAIIIIAAApoAgRI2BAIIIIAAAggggAACCCCAAAIIIIAAAggggAACCCCAAAIIIIAAAggggIAmQKCEDYEAAggggAACCCCAAAIIIIAAAggggAACCCCAAAIIIIAAAggggAACCCCgCRAoYUMggAACCCCAAAIIIIAAAggggAACCCCAAAIIIIAAAggggAACCCCAAAIIaAIEStgQCCCAAAIIIIAAAggggAACCCCAAAIIIIAAAggggAACCCCAAAIIIIAAApoAgRI2BAIIIIAAAggggAACCCCAAAIIIIAAAggggAACCCCAAAIIIIAAAggggIAmQKCEDYEAAggggAACCCCAAAIIIIAAAggggAACCCCAAAIIIIAAAggggAACCCCgCRAoYUMggAACCCCAAAIIIIAAAggggAACCCCAAAIIIIAAAggggAACCCCAAAIIaAIESl7ADXHkyFHZvHmL9mRly5aRjz768AV82uj3SDdv3pQZM2ZpC8ucJbMULJA/+i2WFT3XAhMmTpJ7d++5niFRooRSu3at5/qZWDwCCCCAAAIIIIAAAggggAACCCCAAAIIIIAAAggggAACCEQPAQIl0eM9ROgqpkyZJoOHDNXGHDVyuKhQCS3yBVSgp1z5itpEFSuWl2FDh0T+5Mzw/0ogIEVK7XkTJEggBw/si9YG//zzj1y9ek3ixIktar00BBBAAAEEEEAAAQQQQAABBBBAAAEEEEAAAQQQQAABBBCIngIESmy8FxXQOHnypNazWbMmkjp1aht3P+kyc+ZsOXr0qOuDhAkTSo8e3fwa4/jxEzJ9eoh2T9q0n0ijRg1dnxEo8Ys0wjsTKIlwUgY0EXgeAiWPHj2SFStWya5du+T7H07LqVOnXE8TL148SZUqpaRKmVKKFy8m+fPn410jgAACCCCAAAIIIIAAAggggAACCCCAAAIIIIAAAggggEA0ESBQYuNFtGjZWkJD12s9VRCkYYP6Nu7+t4v6X+V/9nlOuXHjhnbPoYP7JX78+LbHGT9hoowYMUrrX+aLQBk9eqTrMwIltjkjpSOBkkhhZVADgegeKNm7d5/07TdAC5H4epFFihSWnsFBkjRpEt43AggggAACCCCAAAIIIIAAAggggAACCCCAAAIIIIAAAgg8YwECJTZewJy586RXrz5az2LFisrkSRNs3P1vl5MnT0nJUoFe/SeMHyslS5awPU69+g1l27btWv8B/ftJ9epVXZ+9yIGSu3fvichj17PGjRtXYseObdsvKjoSKIkKZeZQAtE5UDJy1GgZN87+v5Hub3Tp0kWSJXNmXjICCCCAAAIIIIAAAggggAACCCCAAAIIIIAAAggggAACCDxDAQIlNvBPnPhOSgeW0Xqqoxq+PXZYYsSIYWMEkalTp8ugwUO8+lapXEkGDx5oawx1dMRHKdN49f1q/Vrt+J0XNVBy9uw5KVykmPb85cqVlZEjhtnyi6pOBEqiSpp5omugZOPGTdKkafNwv6CAgAAJXbdaXn755XCPwY0IIIAAAggggAACCCCAAAIIIIAAAggggAACCCCAAAIIIPB0AgRKbPiZBTm2bN4oKVIE2BhBpFr1mrJv336vvgkSJJADX++1FUz5/vvvpXiJ0toYKthy7Og3EjNmTNfnL2qg5NSpU1KipF7lpVSpkjJ+3Bhb7yCqOhEoiSpp5omOgZIrV65K9hy5DF9OpkwZpXz5cpI0SRK5f/++nD5zRiZPnip37tzx6t+saRPp3LkjLxkBBBBAAAEEEEAAAQQQQAABBBBAAAEEEEAAAQQQQAABBJ6RAIESm/ANGzWRLVvCtN4jhg91/Dhq1X7//Xf5NGMW026eFUbMOi5avES6du2uXTY6eodAidUbidzrBEoi15fRnwhEx0DJokWLpWu3Hl6vadjQIVKhQjmv8NzNmzelVau2smfvXq97zpw+JbFixeKVI4AAAggggAACCCCAAAIIIIAAAggggAACCCCAAAIIIIDAMxAgUGITfdq06TJwkH5kTbVqVWXggH6WI2zatFkaN2lm2i84qIfUr1/XcpwuXbrJ4iVLtX49g4OkXr062mcESiwpI7UDgZJI5WVwN4HoGChp0bK1hIau195T06aNpUvnTqbv7ueff5bcefJ7Xd8atkmSJ0/OO0cAAQQQQAABBBBAAAEEEEAAAQQQQAABBBBAAAEEEEAAgWcgQKDEJvrhw0ekfIVKWu+AgAAJ27LRcoSg4J4yf/4C03558+aR2bNmWI6TL39BuXjxktZv9arlkj59eu0zAiWWlJHagUBJpPIyuJtAdAyUpEuf0esImz27d8i7777r890ZBeamT5sihQoV5J0jgAACCCCAAAIIIIAAAggggAACCCCAAAIIIIAAAggggMAzECBQYhP977//ltRp0nr1PnRwv8SPH990lMePH0u2z3LIjRs3fM703Ylj8sorr5j2uXbtmnz2eU6v60ZHQtgJlDx69EjOnDkjV69ek99++00SvJ1AUgQEyDvvvON1JIVNIq2beu5Ll36Sa9evyfVr1+Wff/6R9957T95/P6lPL19znTp1SkqUDNS6lCpVUsaPGxOeJYbrnitXrsqlny7JtWvXJW6cOJIyZUpJmjSJxIwZ0zVeRAZK7t69J7/++qv88ssvjvf0xhtvSIIECSR58g/ktddeC9czPA83/fbbbVFVK9Szq+/e/976n7ydIIGkSJFCYseO/Tw8wlOt8Y8//pDz5887vp8PHjyQFCkCHM8eJ04cbdyICpSo76fa02qfXb58WWLEjClvJ4gvCRMmlGTJktn+N0F97ytUrKz9e6f27JrVKy09jKpAde3SWZo0aWR5Lx0QQAABBBBAAAEEEEAAAQQQQAABBBBAAAEEEEAAAQQQQCDiBQiU+GFao0Zt2bN3r3ZHSMg0KVjA+6gGZ6cffvhBihUvpd2TP38+2bZtu/bZnNkzJU+e3KarCQvbKg0aNvYaZ+aM6V73+AqUqB/oJ0+ZJsuWLfeqIuAcqEiRwtK7V7AjAOJvO336jCxdtkxWr17r+GHaqMWLF09y5swhHdq3ldSpU5tO0bRZCzl48JDrulkoRwUs3Fv//n2leLGi/i7dtL/6kXzt2nUyZ848OXjoyXqcN6jn+TRDBvmiTKBUqVxJnjZQosI+mzZvkZDpMwznc86rKtuUK1dWAkuXklixYkXY8/brP0BWrVqjjVe8eFHp36+vrTlUOKF4iVJy8+Ytrf+kieMlW7aspmOoEMWKFSslZMZMr0o87tZFixaR6tWqSNas5mO5T7J//9eijmFxb61aNpc6dWrbep5evfvKunWhWl9VGSg83w+rCY8ePSZTpkyV9V9tMOyaIUMGyZM7l7Rs2VxefvlledpAiQp9fblggcydO9/034PEiRNLqZIlpG7dOo7wVGS1adNDZODAwdrwHTq0k5YtmkfWlIyLAAIIIIAAAggggAACCCCAAAIIIIAAAggggAACCCCAAAI+BAiU+LE9xo+fKCNGjtLuaNG8mXTs2N50FPXjeP/+A7Xr8+fPERVOcW+NGzeUbl27mI4zfPhImTBxknbd7H+9bxYouXfvnnTvEWz7iYcNHSIVK5a31V+FAcaMGecIA/jTqlWrKh07tDOsWhL4RVk5fvyEP8M5+g4eNECqVKns931GN9y6dUvad+jkFQAyG1xVTFGhktp16mldlKPytGrqaKXmLVqZhnGM7k+XLq0MHNhf0qdLZzW8retz582Xnj17e/U9+d23jhCDVVOhiLLlKnh1279vjyRKlNDw9oULF0m37kFWQ2vXlbUKPr399ts+79u0abM0btJM66MCGR3at7M1nwo2bdigH221ccN6SZnyI1v32+mkQkTDR4yUyZOn2ukuadKkkQnjx0qhwnpwSoWrDh7YZzmGqnrSr98AUe/an9aqVQtp3aplpFSJUd8zFShybyOGD5Xy5cv5s0T6IoAAAggggAACCCCAAAIIIIAAAggggAACCCCAAAIIIIBABAkQKPEDct++/VKtek3tjqxZssiSJQtNR6lVu67s2rXbdV1Vszh65JA0bNRECykEBARI2Bb9R2v3QStXqSYHDhzU5lm6dJFkyZzZa26jQIn6odnq2B2jh1i4YL58/vlnPpXU8SS1atcJV/hDDayqViz4cp5XlY1nHSi5ffu21KwV/udyR7MTKFm9Zq20aWMv5GD0QmbNDJF8+fL6saONu16/ft1xTJNnmz5tihQqVNBy/FGjx8jYseO1frlz55K5c2Z53auCFIMGDfE7iOQcKFmy92XunNmi/r9Zi+6BElXRpUdQT1GhmqdtdgIlt279Js1btBT171l4mtoD48aO9nlEl7/jqrBbnrwFvP6NWrF8qWTM+Km/w9EfAQQQQAABBBBAAAEEEEAAAQQQQAABBBBAAAEEEEAAAQQiQIBAiR+Id+/ek7TpMnjdcerkcXnppZe8Pr9z546kS59R+9wZLJgzd5706tVHu7Zn9w559913vca5f/++pPnYu/qE2bxGgRKzx1QBF7VOs6aO2Fi5YqnEiBHDsMvDhw+lXPmKpmESdVxGioAA+fvvv+XkqVOmc6lqEapqhHtT4Z3w/Og9Zswo+SKwtB9v1rirOiYlNHS9z3Gs/Jw3WwVK1qxZK60twiQqNHHx4iWf61m9ekWEVCpRgactW8K0udTxOiNHDLN0LVioqJw/f17rZ1ZpIii4p8yfv8B0TOX7+uuv+6zYokIUO7aHyauvvmo4TnQPlMyb/6UEB/eKkH1mFShR/5aooJY6msqsqTH++usvn/8uFCtWVCZPmmC5F+x2GDp0uEyaPEXrrv7t2L1ru8SMGdPuMPRDAAEEEEAAAQQQQAABBBBAAAEEEEAAAQQQQAABBBBAAIEIFCBQ4idmpUpV5eChQ9pdy5ctkUyZ9OCI6hC2dZs0aNBI6ztxwjgpUaK4nD17TgoXKaZdMzti5siRo47QhnvLnv1zR1UPo2YVKClbtow0btRQUqVK6agK8ueff8r+/V9LUHAvwx/up02dLIULFzKcy+x4lPz580n79m29wg2bN2+R4J69DefZGrZJkidPbvpGTp06JSVKBmrX1bEn48eN8fMtWnc/efKUlCylz+W8Sx37oSqBfPLxx44qDb///rt8tWGjTJgw0TTw4StQcvXqNSlYqIjhD/i1a9eSypUqSurUqRzHjKhKDt+dPCkTJ0xy7C/PpirmLF68wDQAZP3k//ZQQRoVqPFsVsfe/Pjjj1KgYBGv+44cPihvvvmm9vnOnbu8jgZydujTp5fky5tHkiVL5niWmzdvypGjx6RPn76Gxq1bt5R2bdsYPl50DpSYVeZQD1KyZAmpWqWypEuXTt5663+OUNaePXtl2rQQ2bN3r+GzWgVKRo4aLePGeQdB1H0DB/STzJkzuY4QunTpJ8c8Xbt2N5xr3tzZkitXTrtbyrTfsWPHpExZ7yOSOnXqIM2bNX3q8RkAAQQQQAABBBBAAAEEEEAAAQQQQAABBBBAAAEEEEAAAQTCJ0CgxE+34cNHyoSJk7S7goK6S4P69bxG6tW7r8yZM1f73P2H9Rw582jBisDA0jJ2zCivcWbPniO9+/TTPlc/nqsf0Y2ar0DJgP79pHr1qob3qWBJ/gKFvY6daNKkkXTt0tnwnqzZsnv1V5Ushg8bYlpZ4MqVq1KocFGvAIWqfqHuNWtRGShp2qyFbNjgfQTR1CmTpEiRwqZ+bdt18KrsoTr7CpSYzeXrXamjYgYPHirTQ2Z4rWXC+LGOMMLTNBV0+CStdzUeq2NvQmbMlP79B2pTG1WzUFVxChcp7hUsUhVJZs+eYXiUkxpUHa/UrHkLw8o1O3dsk6RJk3g9dnQOlKh/H9S/E55NVetR33Gj6hzqiBwVChk9ZqzXfb4CJcePn3BUJ/FsqgqR2tfvvJPIcMuo713NWnW9vucpU34k60PXeh1V5c++U5VSVFjOs0qSqk6ijgBTgS0aAggggAACCCCAAAIIIIAAAggggAACCCCAAAIIIIAAAgg8GwECJX66b9u2XerVb6jdZXb8g2dgxLOqiGfgRP2YfvTIIa8faFu2aiPr1oVqc86fP0dy5shhuHqzQEn9+nUlOKiHzydevnyFdOioh0fMnk9VjciS9XOv8ayqWKgbjI78qVu3tvTqGWy6vqgKlJw48Z2UDizjtY6QkGlSsEB+n34qiFFR7XtoAAAgAElEQVSqdBmvI1/MAiVmFT2GDBnkqExi1QYPGSrqfbu3iPoxXlWmWLR4iTa21bE3RhV8nFV53AdasnSZdO7c1evxNm/aIB9+mMLnYz948ECqV6/lVSnIrFpNdA2UmFUn8RXgcofp0qWbLF6yVLPyFShp36GTrFixUuuvjlH6av06y+CGCoFlz5HL673079dXatSoZrVNDa+fO3deKlep5hVUUZ1nzQxxVAGiIYAAAggggAACCCCAAAIIIIAAAggggAACCCCAAAIIIIDAsxMgUOKn/e3btyVjpqzaXSoI8u2xw9oxI0ZH2vTo0U0aNqjvujcsbKs0aNhYG2vlimXy6ad6ZQijKiAnjh+VV1991XD1RoESdQSNqi6hjrjx1S5fviI5cubWuqhKBBs3rPe67Y8//nBUV3j8+LHrWkDy5KaVU9wHMDpSRh0bpI4PMmtRFSgJDu4l8+Z/6WWw4atQW0fJGB3lYhYoUdVuVNUb96YCITt3bHUccWPVVMWOTJn1/ajuUceXVKtmXInGakzndXXcSY0atb26mwWGrl27Jp997n0EyncnjnkFFtS4nse2VKhQ3lHZxk7bvWeP1KxZx6ur2qdqv7q36BooWbt2nbRq3dbrGfbt3W1aLcS9s6oolD5DJu1+s0CJWcUZs2O2jN6BqogyZsw4y3/77Ly/ixcvSfkKlQzDJN26dpHGjfXQnp0x6YMAAggggAACCCCAAAIIIIAAAggggAACCCCAAAIIIIAAAhErQKAkHJ4lSgaKCje4ty2bN0qKFAGuj4yOstiwIVRSpUzp6mP0g3DHju2lRfNmrj6XLv0kefMV0OayCl4YBUpGjRwuZct6V93wfHx1nMaHH6X2Ujl/7nQ4pMxvuXv3nqRNpwdnVLWE7dvCTG+KqkBJteo1vY5UGTp0sFSqWMGWwZEjRx3HeLg3s0BJwUJFvaqZ+DrqxmgBo0aPkbFjx2uXateuJX1697S1XrNO6lidz7Pn8vrRP2T6VClYUN+TaoylS5dLp85dtOGMKpqYVbvw/H5YLd6oGorRcT/RNVAyfvxEGTFSP+LKqgKMp0lAiif/nqhrZoGS9eu/kuYtWmm3q757du+QuHHjWlE7rt+69ZtkzpLNq6/dAIzzRnW8TeAX5bz2vbquqp2oqic0BBBAAAEEEEAAAQQQQAABBBBAAAEEEEAAAQQQQAABBBB49gIESsLxDgYMGCTTQ2Zod44cMUzUj8HOpo7FUcfjOJuqOrF3z06v2TwrNWTNkkWWLFno6mdUxaB5s6bSqVMH05U/TaBEDep5VI/67NzZH2xV57DLqcIKH6VMo3WPLoESo4owRlU2zJ7VbqDErLqInSOD3Of+5ZdfJFfufNpy1HFI6likp21Dhg6TyZOnasOYVRJp3KSZqPCGe5s5Y7qo6jjubcuWMGnYqIn2WbZsWWXxogV+LXf1mrXSpk077R7PQJa6GF0DJUZH1sybO1ty5fKu8mIGYzdQMnDgYJk2PUQbpl3bNraqCbnf1L1HsCxY8OTfJ3VtyeIFkjWrd5UcszW3aNlaQkO9Kx6pMEnfPr0lZsyYfu0DOiOAAAIIIIAAAggggAACCCCAAAIIIIAAAggggAACCCCAQOQIECgJh+vGjZukSdPm2p3u/8t6o+obdevWll49g71mU8EUFVBxb0cOH5Q333zT8VG//gNkxoxZ2nWjH+ndOzzrQMn3338vXx84KL/+8quosMPPP/8iP/38s6gjctybqlTg3qJDoOT+/fuS5uN02rrMqj6YbR27gZLTp89I0WIltGHMgke+tqlRVRl/12w2vlFVGNXXM/Ry9+5dSZvuU20YdRTU4W8OSJw4cbTPVSBBBRPcmzqeRx3T4087evSYlC2nV40xCrtE10BJ5SrV5MCBg9ojbw3bJMmTJ7fNYDdQ0rpNO1mzZq027pgxo+SLwNK251IdVShFhVPcmz/H5uzevUdq1vI+qqhWzRrSu3dPwiR+vQ06I4AAAggggAACCCCAAAIIIIAAAggggAACCCCAAAIIIBC5AgRKwuF77do1+exzvYpAQECAhG3Z6Bht+/YdUrdeA23kWTNDJF++vF6zqfBF8RL6j7pTp0ySIkUKO/oGflFWjh8/od3nHjgxWv6zCJQ8fvxY9uzdK9Onz9Aqs/jDGx0CJRcuXJD8Bf61d7YMGTLIqpXLbD+K3UDJ7j17pGZN/cf18FYWMTo65/i3R0SFOp62qdCLCr+4N89jb4xCGyok0Ldvb6/pR48ZK2PGjNM+79ChnbRsoYe0rNZ9/fp1yfZZDst3FV0DJUaVcPx9Z3YDJUbHA6mKMKoyjD/tqw0bpVmzFtotVhWT3DsbHSel/u3ctHG9xIoVy5+l0BcBBBBAAAEEEEAAAQQQQAABBBBAAAEEEEAAAQQQQAABBCJZgEBJOIGNfsD/5tDX8tZbb0n//gMlZMZMbWSzI1NUEEP9KH7jxg1Xf+cP8aqCR7r0GbVx0qRJI+tD1/hcdVQHSn7//XdHgObw4SPh1Pz3tugQKNm7d59Ur1FLe44SxYvJxInjbT+b3UCJqhihKke4t8qVKsqQIXrFGjsTN2jQSMK2btO6qn2i9svTNqOqFJ6VQIyOb1m08Ev57LNsXtMHBfeU+fP14208j4yys2b13UnxYSqvrufPndY+i46Bkr///ltSp0lruXYrB7uBknz5C8rFi5e04bZvC3N85/xpRlVh7H4/7t27J5+kzeA1XUjINClYIL8/y6AvAggggAACCCCAAAIIIIAAAggggAACCCCAAAIIIIAAAghEgQCBknAiBwf3knnzv9Tudv4w6vnjbaFCBWX6tCmmM6njP9QxIM7mPPZk3779ov4X/e6tQf16EhTU3eeqozJQ8vDhQ2nQsLHs2LHTdE3q+JWECRNKokQJ5bXXXnP0e/TokWzY8G9FF2eLroGS/PnziTpmyG6zGygJDV0vLVq21oYt80WgjB490u5Urn61ateVXbt2a/etWL5UMmbUj6Hxe2AR+fXXXyVnLu/qOqdOHpeXXnrJ8S4/zZhF3I8wUu98/77dhlUnevbsLXPnzdeWMnjQAKlSpbJfy1PzfpTSOzBDoGSfl6NRoGT/vj2O76Q/7eChQ6Kqnbg3u9+PY8eOSZmy+hFF4TniyZ/10hcBBBBAAAEEEEAAAQQQQAABBBBAAAEEEEAAAQQQQAABBMIvQKAknHZG1SVatWohFcqX8zoyZdDA/lK1ahXTmVSwoqnHMRJbNm+UjRs3yZChw7T7Jk+aIMWKFfW56qgMlBhVm1CLy5s3j5QrW0ZUmOb111/3Wq9RGCA6BEqMjrzJnTuXzJ0zy/ZOsRso+fbbb+WLMuW1cdW7Ve/Y32YUGNi2dbN88MEH/g5l2L9GjdqOI43cmzNA9fXXB6RK1eratSZNGknXLp0Nx1LVe1QVH/fWp08vqV1LD09ZLfzy5cuSI2cerZsKshw8oAcqomOFErVooyNvzpw+5dfRL3YrlDRs1ES2bAnTrELXrZGPP/avgo3Rv3sVK5aXYUOHWL0ux1FY9eo31PrZDaNYDk4HBBBAAAEEEEAAAQQQQAABBBBAAAEEEEAAAQQQQAABBBCIcAECJeEk/fnnnyV3Hv2YhiJFCkuhggWka7ce2qi7dm6TJEmSmM50+/ZtyZgpq3ZdhVBUhZJVq/Xjbb7ev8dR7cNXi6pAiTqmR/0o7tk6d+4ozZo28bnG6BooMTqKxCro4vmgdgMlRu/dzpFGnvOZVeo4cfyovPrqq+Hc4fpty5evkA4d9YCIM0gwcOBgUcfiuLfVq5ZL+vTpDecOC9vqqGrj3ho2qC89enTza63qiKXyFSpp92TIkEFWrVymfRZdAyWVq1STAwcOamvdu2enqKoddpvdQMmgwUNk6lS9ys60qZOlcOFCdqdy9FNjqLHcW4vmzaRjx/aW4xiFUerWrS29egZb3ksHBBBAAAEEEEAAAQQQQAABBBBAAAEEEEAAAQQQQAABBBCIegECJU9hrqojqCoJzhYQEOA4YmTFipWuz1Km/Eg2blhvOYvnj8vqx/rjx7+TU6dOaeOHbdGPiTEaOKoCJUYVBypUKC/Dh1lXK4iugRLl6fle1Wf+VI6wGyhR46ZLn1E7KkZ9du7sDxIjRgzLPePsYHYkjefRL7YHNOj4xx9/SIZPM3tdOfndt1KgYBHte6ACONu2bjF9hrNnz0nhIsW0sVQYa+qUSX4t0SigUKJ4MZk4cbw2jlGgpGnTxtKlcydb86nqQZ7HM6nvtPpuP03r2rW7LFq8RBti+bIlkilTRtvD2g2ULFq02Cvo1jM4SOrVq2N7LtXRqCKR3eoyt27dku3bd2jzqQopqVOn9msNdEYAAQQQQAABBBBAAAEEEEAAAQQQQAABBBBAAAEEEEAAgagRIFDyFM6dOneRpUuXayPEixdPCwi0bNlcOrRvZznL5MlTteNt1NEdqgKIe6tVs4b07dvbcqyoCpSMHTteRo0eo61n7JhREhhY2nKN0TlQYnS8y8wZ00Udz2Gn+RMoMapSMX3aFMdRQXbb+PETZcTIUVp3f4/psTNX27btvSrmtGvbxmsPqM9at25pOuT9+/clzcfpvK7v37dHEiXyXX3H/aZq1Ws6qvi4t06dOkjzZk21z3bv2SM1a+rBiXLlysrIEfpxUmYLjqxAyfgJE2XECP29+RN0Ueu1GyhRTsrLvaVLl1ZWr1phO7ykQkUqbHXnzh1tnCVLFkrWLFnsbCH6IIAAAggggAACCCCAAAIIIIAAAggggAACCCCAAAIIIIDAcyRAoOQpXpYKk6hQia9m98fW48dPSOAXZX2OZTesEVWBkubNW8r6rzZoa7YbvDh37rwUKlxUu9fqaBlVraVEyUDtnlKlSsr4cXqo5SleqePWnj17y9x587Vhsmf/XBZ8Oc/W0EaVW5zHw3gO0Kt3X5kzZ672sT8/9N+9e08++zyH14/8gwcPlCqV9eNgbC3eR6ewrdukQYNGlsPYqd5RsFBROX/+vDZWkyaNpGsX/Vgds8mMQjuq75bNGyVFigDttgsXLkj+AoW1z1QAQn037TSj0I+dZ7QaOzR0vbRo2dqr29Ejh+SNN96wul2MqsaoINrBA/u87r1y5apkz5HL6/OQkGlSsIB+dJfZxNOmTZeBg/TqQ2q+/ft2S6xYsSzXSwcEEEAAAQQQQAABBBBAAAEEEEAAAQQQQAABBBBAAAEEEHi+BAiUPMX7MgpFuA+nqpWoH4ft/Nj6zz//OI4U8fxf/7uPt3vXdnnvvfcsVxxVgRKjMET7dm2lVasWPtf44MEDqVipqhw7dkzrZxUo+f7776V4Cb36iT/BAEu4/zqcPHlKSpbSgyvq0tKliyRLZu9jX9zHVdU3VOjFMyxhFigxCjuo8exWKZkxY5b06z/A69G+OfS1vPXWW3Yf2VY/9d4yZc7mc4+mSZNG1oeusRxv5cpV0q59R69++/bulnfeSeTz/sePH0uTps1FHWXj3szmVutOlfqTcM1lFqKJiEDJvXv3JE/eAl6ViNRRPKpSiVUzOjLHLFCixjLqnyFDBlm+bLHlv1F3796VvPkKeq21UcMG0r17V6ulch0BBBBAAAEEEEAAAQQQQAABBBBAAAEEEEAAAQQQQAABBJ5DAQIlT/HS1A/b6TNkMv2BvWzZMjJq5HDbMxgdoeO8OXHixLJ3z05bY0VVoGTJ0mXSubP3j8kbvlonqVKlMlyrqpTQsmVrOXjokNd1FcA5/u0R02dURwBlzZbd67rdig628P7rZFR9Ra1v9uwZpqESFRDo2KmLqMoTns0sUKL6DRk6TNSRR54tZPpUKViwgOmy589fIEHBPf2ayx8Do74qvKJCLGZNhQtUyMCqqQBVufKVDENFM2eEeFUZcY73999/S4+gYK+jptT1EcOHSvny5QynVke1XL58WbtWv35dCQ7qYbrUQ998I3Xq1Df8fkdEoERNPGfuPOnVq4/XGvr16yM1a1Q3XdvUqdNl0GC9Wojq7CtQcvXqNfk8e06vMdXxSqNHjZDXXnvN9DvbsFFjUVWUPJtRRRird3/79m25fv2GfPhhCquuXEcAAQQQQAABBBBAAAEEEEAAAQQQQAABBBBAAAEEEEAAgWcoQKDkKfFbtmoj69aFGo5i94ga581r166TVq3bGo5VuVJFGTJkkK3VRlWg5MSJ76R0YBmvNangRYf27UQFat5663/y6NEjuXDhoixZulTmzp3vs8LFmdOnTKslqABPig+9gyodOrST5s2aSsyYMR1zqf8fI0YMW1ZmncyqlKj+ffr0knx580iyZMkc8zx8+FA2bwmTMWPGiTqWx6j5CpSoo0tU4MGoOk3nzh2lYoXykjBhQtewP//8s8yYOcsw2KECBZs3bZD//e/Np3p+s5vNjppx9t+5Y5skTZrE1tyHDx+R8hW8j+VR+2f48KGSJ3cuUf+tmnqvZ86ckd59+sm+ffu9xs+bN4/Mmhli+t6NjjFSg1SrVlU6d+qoeal3uGLlKlGhDbMWUYGSv/76S3Lnye9V+UPNW6dObalUsYKkTp1KYseO7ViKMpsydZps2LDRcGm+AiXqBrMgSsqUH8mwoUMkbdpPXHOpgNQ3hw9LmzbtDddnt5KKc6Hqe9Kpc1dR1WlUCwgIkD69e0qePLlt7Rc6IYAAAggggAACCCCAAAIIIIAAAggggAACCCCAAAIIIIBA1AoQKHlK73nzv5Tg4F6Go/h77MjNmzclS9bPDcdSP/aqUIKdFlWBEhXwUIEao4ocdtZp1OfQwf0SP35809vLlK3gVdVCdVbBg0SJEjmOmvH3h26zyVq0bO3z2dScCRLEl4sXL1k+rq9Aibp56dLloirUmDVVoeajjz4UFXRRlVrM2tQpk6RIkcKW6wlvB/XO8xcoZPjM4Tl+SFV0WbZsuely1DE2r7/+mhw4cNDnkq2Og1KVcbLnyGU6hgpivPHGG3L16lWfgSfnABEVKFHjzZ03X1TgxVdT4Qs7a7MKlKgjmYoWK+Fzz6r3+PeDB4bfM+ca06VLKytXLLM8Ksf9mYyOD1JH7qxauSy825H7EEAAAQQQQAABBBBAAAEEEEAAAQQQQAABBBBAAAEEEEAgEgUIlDwlrqpmUKJkoNco4flxXQ1iFpjYGrZJkidPbmu1URUoUYv5/fffpVjxUl7HidhaqEEnq2NevtqwUZo1a+Fz+NatW0q7tm3CuwTXfepojqrVappWHfFnAqtAiRpr/ISJMmLEKH+G1fqOGztaSpcuFe777d5ots7+/fpKjRrV7A7j6KeqYKiqPFu2hPl1n7OzCtrMnDFNVPDEqo0dO15GjR5j1c3W9YgMlKjjf7p07WZ4jI+txbh1sgqUqK6XLv0kNWvVthWEMpo/Z44cMmHCOL+r4KhjndTxTp4tMo6s8teN/ggggAACCCCAAAIIIIAAAggggAACCCCAAAIIIIAAAggg4C1AoOQpd4U6iuPTjFm8qhqEt0rG+PETZcRIPVSgfiQ+8PVe28e4RGWgRPGdPn1GVKWJY8eO2dLMlCmjjBo1QoKCesquXbu1e9QxH717BZuOo358r1Kluhw8dMi0T0QFStQE165dE1WpxKpChnMx6sf2kSOHe1XDsBMoUWOo40CCgnvZqpLhnFPtj+nTpkjGjJ/a8n/aThcuXJD8BbyroKg9+vbbb/s9vPoODR8xUlTgwJ+mQlsTJ47TjgPydb86XmbkyNEybXqI7WnatGkl6j71nXJvERkoUeMqgz59+jmqldhpKkgzdcpEGTpshPYdshMoUeOrKjfdugfJpk2b7Uzn6lOzRnXp2TNI4sSJ49d9qrM6pqepRxhMBYHWh67xeyxuQAABBBBAAAEEEEAAAQQQQAABBBBAAAEEEEAAAQQQQACByBcgUBIBxo2bNPP6YTZ03Rr5+GPrqgme0x85clTKla+ofVzmi0AZPXqk7ZXOmTtPevXqo/WfOHG8lChezNYY6kgMFRJxb+fPnfZ5rwp6qDDEwEFDTI9kSZnyIylT5gtp2qSx46iMSZOnyNChw7VxCxUq6AhH+Grq2I5hw0ZIyIyZht0iMlCiJlA/9i9cuNgxnzpSx6ipH8ZLlSwhzZo1cTxbuvQZtVBI7dq1pE/vnrb8VWWUmbNmy4oVK31WkVDHhTRsUE+KFSsqcePGtTV2RHXyfL68efPI7Fkznmr4H3/80REqWbsu1GegRj1vvbp15LPPstkOWbkvTIWDunTtbvou1VFG6dOnkw7t20rWrFkNK8ds3xYmyZK9/1TPa3Tz7t17HPPt27ffcGwVJMmXN4907drFUSGkbdv2smr1k0CGOhonbMtG2+vavWePzJw527JCTP36daVG9eqSIkWA7bE9O6rvrQpnOavRqGfp26dXpB7RFO7FciMCCCCAAAIIIIAAAggggAACCCCAAAIIIIAAAggggAACCAiBEjZBhAuoqh6qisX5Hy/Io4cPJXXq1I7/e/XVVyJ0rps3b8rZs+fk7NmzEiNmTHn//aTyftL35b333nWEOiKjff/993LhwkW5du26vPTSS5ImTWr56KMP5eWXX46M6eTcufNy8eJFuX79hty9e8dRAeTdd9+V9957T955J1GkzGk16IkT30npwDJat5Ejhkm5cmWtbrV1XQV4vvvuO7l8+YojnPTg4UN5N3FiSZIkiePdvvnmm7bGsep0584dOXf+vGMP/fHHH5L8gw8c71IFHWLEiGF1e6Re//XXX+X773+QK1evyqOHjxzrSp06VYQ9u+fi7969K+q9Xr9+XW7cvCmxY8X6z/s9SZLkvQjd32qOK1euOgJ3MWPGjFRHBkcAAQQQQAABBBBAAAEEEEAAAQQQQAABBBBAAAEEEEAAgfALECgJvx13IvD/UqB//4Fe1WGOHjkkb7zxxv9LDx4aAQQQQAABBBBAAAEEEEAAAQQQQAABBBBAAAEEEEAAAQQQeBEFCJS8iG+VZ0IgkgRUJY8Mn2bWRi9ZsoRMGD82kmZkWAQQQAABBBBAAAEEEEAAAQQQQAABBBBAAAEEEEAAAQQQQACBZyFAoORZqDMnAs+pwLRp02XgoCHa6idNmiDFixV9Tp+IZSOAAAIIIIAAAggggAACCCCAAAIIIIAAAggggAACCCCAAAIIGAkQKGFfIICALYF9+/ZLteo1tb6JEyeWHdvDJE6cOLbGoBMCCCCAAAIIIIAAAggggAACCCCAAAIIIIAAAggggAACCCCAwPMhQKDk+XhPrBKBKBV4/PixnD//ozx8+ECuXLkq69aFyqLFS7zWMGhgf6latUqUro3JEEAAAQQQQAABBBBAAAEEEEAAAQQQQAABBBBAAAEEEEAAAQQiX4BASeQbMwMCz53Azp27pHadej7XraqTbN+2ReLGjfvcPR8LRgABBBBAAAEEEEAAAQQQQAABBBBAAAEEEEAAAQQQQAABBBDwLUCghB2CAAJeAtu375C69RqYysSLF0+WL1ssqVKlQg8BBBBAAAEEEEAAAQQQQAABBBBAAAEEEEAAAQQQQAABBBBA4AUUIFDyAr5UHgmBpxXwFShRYZKpUydJzhw5nnYa7kcAAQQQQAABBBBAAAEEEEAAAQQQQAABBBBAAAEEEEAAAQQQiKYCBEqi6YthWQg8S4F9+/ZLteo1tSWoIEnFihWkTetW8tZb/3uWy2NuBBBAAAEEEEAAAQQQQAABBBBAAAEEEEAAAQQQQAABBBBAAIFIFiBQEsnADI/A8yrw999/y8WLl+Tu3Tvy7rvvSsKECZ/XR2HdCCCAAAIIIIAAAggggAACCCCAAAIIIIAAAggggAACCCCAAAJ+ChAo8ROM7ggggAACCCCAAAIIIIAAAggggAACCCCAAAIIIIAAAggggAACCCCAwIsuQKDkRX/DPB8CCCCAAAIIIIAAAggggAACCCCAAAIIIIAAAggggAACCCCAAAIIIOCnAIESP8HojgACCCCAAAIIIIAAAggggAACCCCAAAIIIIAAAggggAACCCCAAAIIvOgCBEpe9DfM8yGAAAIIIIAAAggggAACCCCAAAIIIIAAAggggAACCCCAAAIIIIAAAn4KECjxE4zuCCCAAAIIIIAAAggggAACCCCAAAIIIIAAAggggAACCCCAAAIIIIDAiy5AoORFf8M8HwIIIIAAAggggAACCCCAAAIIIIAAAggggAACCCCAAAIIIIAAAggg4KcAgRI/weiOAAIIIIAAAggggAACCCCAAAIIIIAAAggggAACCCCAAAIIIIAAAgi86AIESl70N8zzIYAAAggggAACCCCAAAIIIIAAAggggAACCCCAAAIIIIAAAggggAACfgoQKPETjO4IIIAAAggggAACCCCAAAIIIIAAAggggAACCCCAAAIIIIAAAggggMCLLkCg5EV/wzwfAggggAACCCCAAAIIIIAAAggggAACCCCAAAIIIIAAAggggAACCCDgpwCBEj/B6I4AAggggAACCCCAAAIIIIAAAggggAACCCCAAAIIIIAAAggggAACCLzoAgRKXvQ3zPMhgAACCCCAAAIIIIAAAggggAACCCCAAAIIIIAAAggggAACCCCAAAJ+ChAo8ROM7ggggAACCCCAAAIIIIAAAggggAACCCCAAAIIIIAAAggggAACCCCAwIsuQKDkRX/DPB8CCCCAAAIIIIAAAggggAACCCCAAAIIIIAAAggggAACCCCAAAIIIOCnAIESP8HojgACCCCAAAIIIIAAAggggAACCCCAAAIIIIAAAggggAACCCCAAAIIvOgCBEpe9DfM8yGAAAIIIIAAAggggAACCCCAAAIIIIAAAggggAACCCCAAAIIIIAAAn4KECjxE4zuCCCAAAIIIIAAAggggAACCCCAAAIIIIAAAggggAACCCCAAAIIIIDAiy5AoORFf8M8HwIIIIAAAggggAACCCCAAAIIIIAAAggggIILlv4AACAASURBVAACCCCAAAIIIIAAAggg4KcAgRI/weiOAAIIIIAAAggggAACCCCAAAIIIIAAAggggAACCCCAAAIIIIAAAgi86AIESl70N8zzIYAAAggggAACCCCAAAIIIIAAAggggAACCCCAAAIIIIAAAggggAACfgoQKPETjO4IIIAAAggggAACCCCAAAIIIIAAAggggAACCCCAAAIIIIAAAggggMCLLkCg5EV/w9Hs+VauXCUPHj50rCogILlkzZIlmq2Q5fgjwPv0R4u+CCCAAAIIIIAAAggggAACCCCAAAIIIIAAAggggAACCCCAwPMjQKDkKd7Vo0eP5KeffpLz5390jJIsWTJJmjSJxI0b9ylG1W99/PixqP9ztpgxY0bY2M9ioIAUKV3TlvkiUEaPHvkslvFczXn16jU5fuKEfP5ZNokXL160WntUvs/o7BCtXgqLQQABBBBAAAEEEEAAAQQQQAABBBBAAAEEEEAAAQQQQAABBCJAgEBJOBD37N0rQ4YMl2PHjhnenSFDBgnq0U2yZcsajtGf3HL//n0pUTJQzp8/7/pw3tzZkitXzqca91neHJUBhGf5nBE195YtYdKwURPXcNu2bpYPPvggooZ/6nGi6n1Gd4enhmQABBBAAAEEEEAAAQQQQAABBBBAAAEEEEAAAQQQQAABBBBAIJoJECjx44XcunVL+vYbIOqYDzstMLC0jBg+VOLEiWOnu1efUaPHyNix47XPZ86YLvnz5wvXeNHhpqgKIESHZ42INXTrHiQLFy5yDdW9e1dp1LBBRAwdIWNE1fuM7g4RgskgCCCAAAIIIIAAAggggAACCCCAAAIIIIAAAggggAACCCCAQDQSIFBi82WoY2fq1msgO3bs9LojZcqP5OHDR1olEWen5s2aSqdOHWzO8qTbqVOnHNVJPBuBEr8pn+sbxo2bICNHjXY9Q0jINClYIH+0eaaoCpREd4do80JYCAIIIIAAAggggAACCCCAAAIIIIAAAggggAACCCCAAAIIIBBBAgRKbEJ++eVC6REU7OodL148CQ7qLhUrVpBYsWI5Pr99+7YMHDhYFi9Zqo26dOkiyZI5s82ZRB49eiRly1WQ48dPeN1DoMQ24wvR8dat32Tu3Hly6JtvpFChglK9WlWJHTt2tHm2qAqURHeHaPNCWAgCCCCAAAIIIIAAAggggAACCCCAAAIIIIAAAggggAACCCAQQQIESmxA3rt3Tz5Jm0HruXbNKkmb9hPDu9t36CQrVqx0XfO3Ssn0kBkyYMAgw7EJlNh4YXSJMoGoCpRE2QMxEQIIIIAAAggggAACCCCAAAIIIIAAAggggAACCCCAAAIIIICAQ4BAiY2NcOLEd1I6sIyrZ926taVXzyfVSjyHuHr1mnyePafr4/z584kKgthpFy5ckPwFCpt2JVBiR5E+USVAoCSqpJkHAQQQQAABBBBAAAEEEEAAAQQQQAABBBBAAAEEEEAAAQQQiFoBAiU2vFeuXCXt2nd09bQT6siRM49cvnzZcU+CBAnk4IF9ljM9fvxYatasI3v27nX0VcfqtG3bWqtWYmduy4n+6/DPP//Izp27ZP/+r+XipUty48YNCQgIkLSffCJpPk4t6dKmlZdeesnucHLnzh355pvDcvToMTl8+LDEih3bMcYnn3wsOXJkdzyPVQDh+++/d4yh2iuvvCJly5ZxHAF06NA3cvLkSfn2+An59Zdf5eOP08inn2aQjBkzyvvvJ7W9xqd55gsXL8qe3XtccxUqVEgSJUpoOLeqaqP2jbNVqlTR9KiaX375RbZv3+HqmzdvHkmSJInj7zNnzsqBAwdc10qXLiWvv/66z+e9cuWqrF6zRs6eOStqze8kSiSffPKJpE6dSrJmzeJ4D3ba075P93dpZz73PgUKFJDEid9xfRQeB3/npD8CCCCAAAIIIIAAAggggAACCCCAAAIIIIAAAggggAACCCCAwBMBAiU2dsOMGbNk5KjRrp7r1q6SDz74wPROFQxJnyGTI2ChWpo0aWR96BrLmRYvWSpdunRz9Rs6dLC88vLL0qp1W9dnERUoCdu6Tfr06SsXL14yXZcKl0yaOE5Sp05tufbTp89Iw0aNTcdLlux9mThhvFbppcwXgTJ69Eht7ClTpsngIUNdn6kgTuvW7VwhG6OFDBrYX6pWrWK5xqd9ZhW+qV2nnmuefv36SM0a1Q3n3bx5izRq3NR17cv5cx2hGqM2bXqIDBw42HVpyeIFkjVrVsffs2fPkd59+rmuqX2k9pNRUyGWQYOGyNx5800tEidOLFMmT5AMGfQjnDxviIj3OXnyVBkydJjlezHqEBIyTQoWyO+65I9DuCbkJgQQQAABBBBAAAEEEEAAAQQQQAABBBBAAAEEEEAAAQQQQAABTYBASSRsiLNnz0nhIsVcIwcGlpaxY0b5nElVlShUuKgrhJIzRw6ZN2+2rFsXGuGBkukhM7SqJ1YE/fv1lRo1qpl28wxaWI3nvG4nUKKqu6jKKVatTp3a0jO4h8SMGdOwa0Q8819//SUff5LeNX6xYkVl8qQJhvN17dpdFi1e4rrWoH49CQrqbti3Xv2Gsm3bdsc1VT3kyOGDrmomdoMU169flwYNm8ixY8esqBzXfYVwIup9Eiix9SrohAACCCCAAAIIIIAAAggggAACCCCAAAIIIIAAAggggAACCERLAQIlkfBa5s3/UoKDe7lGHjd2tKijSny1ps1ayIYNG11dtm3d7KiCsnbtuggNlKg51FzuTVW8KJA/n6RIkULOnjsrW7aEiapQ4d7MKqPcvn1bcuXO5wrCOO8pWbKE46ibn3762RGWcB7/4z6mnUCJs78KlqijYFKm/Eh++OG0bNq02WvO6dOmSKFCBb2YI/KZGzdp5phbNRX+OHrkkMSKFUubUx3R82nGLNr61PoPfL1XYsSIofV9+PChpEz1seszTxM7gRI1X7XqNeXAgYOucdTaVAgoadKk8te9e7Jx42Y5eOiQNvfuXdvlvffe0z6LyPep3vvqNWstv2ErVqz06rM1bJMkT57c9bkdB8uJ6IAAAggggAACCCCAAAIIIIAAAggggAACCCCAAAIIIIAAAgggYFuAQIltKnsd1Q/yhQoXc1XVUD/sf3Poa4kbN67pAOu/2iDNm7d0Xe/apbM0adLI8XdEBkpu3fpN8uTNrwUdVOigd6+erooYas4HDx5Ir959ZcGCha41qeNvNny1TuLEiaM9x9ix42XU6DGuz9SRKvPmzpYPP0yh9Zs/f4EEBffUPrMbKGnYoL50795VC2NcvXpNGjRsJMePn3CNqY5xWbVymTZHRD/zwoWLpFv3INccK1csk08/1Y+P+frrA1KlqvdROGvXrJK0aT/R1nf48BEpX6GS67NRI4dL2bJlXH/bCVKoI2569uytOUycMFaSJEni+kyFTiZMmKS9K/XuVfUZ9xbR79PqW3PhwgUpVbqMtieHDR0iFSuW126142A1F9cRQAABBBBAAAEEEEAAAQQQQAABBBBAAAEEEEAAAQQQQAABBOwLECixb2WrZ/sOncS94sLAAf2kWrWqpvf+9tttx/E4zmNdVLWQNatXuAIeERkoCZkxU/r3H+hai9VRPO3ad5SVK1e5+vfuFSzqaBlnU2vPlDmr9mxGVS+cHcaPnygjRj45+sdOoKRK5UoyaNAAr8oeasy7d+9J3nwFtCNxVJglV66crjVF9DOriisqlONs7uEf52eDBg+RqVOne73z9u3aSqtWenUY1U/1dzZVxeTtt992/W0VpFBBkc+z59IMtm8Lk2TJ3vea//Hjx1K5cjWtUon7+4qM9+nrS3P//n2pWKmKFgpSQRIVKPFsVg62vpx0QgABBBBAAAEEEEAAAQQQQAABBBBAAAEEEEAAAQQQQAABBBCwLUCgxDaVdcfpITNkwIBBro7ZsmWVhQvmS8yYMU1v7tKlmyxestR1ffXqFZI+XTrX3xEZKAn8oqz24/1X69dK6tSpTdf2448/SoGCRVzX1XEzGzesd/2tjn5RR8A4W4UK5WX4MO8wgPsEASlSuv60EyjZsnmjpEgRYLrGmTNnS99+/V3XmzdrKp06dXD9HdHPrAYuWqyE60ig3Llzydw5s1zzqdBGzlx5XUf8qIDQqVOnHNfVf68PXaM9S736DR1HAqlmVGHFKkjhWQ1FBVZUcMWshW3dJg0a/Fv9RrWQkGlSsMC/AZnIeJ++vjWqCs6cOXO1/bVyxXJ59dVXvG6zcvA1D9cQQAABBBBAAAEEEEAAAQQQQAABBBBAAAEEEEAAAQQQQAABBPwXIFDiv5nhHZ4/1KujbtatXSUffPCB6Qy7d++RmrXquK43btxQunXtovWPqEDJ9evXJdtnOVxjewYhzBbZtFkL2bBho+vymdOnJFasWI6/PcMcSxYvkKxZ9YolnuNGdKDkzz//lPQZMrmmca+6EhnPrCYaNmyETJw02TXndyeOySuv/BuCUOGREiUDXdfUETxlylZw/b1j+1Z5//2kjr/V0UKpUj85AqdDh3bSskVzjcwqSOG5Fqt3cPnyFcmRM7drjj59ekntWjUj7X2a7avQ0PXSomVr7bIKK6nQklGzcoigrzHDIIAAAggggAACCCCAAAIIIIAAAggggAACCCCAAAIIIIAAAgj8J0CgJAK2wuHDR6R8hUraSJ5Hr3hOc/fuXSlUuJirkkXixIlFVePwrM4QUYGSEye+k9KBZVzLaNSwgXTv3tXy6ceOHS+jRo9x9du5Y5skTZrE8Xefvv1k1qw5rmv79+2RRIkS+hwzogMlarKs2bK7jnxxr/IRGc+s5vOsCjJ//hzJmePfsM6EiZNk+PCRjv8uVqyoTJ40QQoWKirnz5//18wtwOG5b1avWi7p06fX/KyCFJ7HEpUoXkxe/i/cYvYi3I9kct8HkfE+jdZw4cIFyV+gsHZp1MjhUrbsk/3peZ+Vg+VGpgMCCCCAAAIIIIAAAggggAACCCCAAAIIIIAAAggggAACCCCAgF8CBEr84vLufPbsOSlTtrzcuXPHddE9NGA2vDoaRx2R42xmAZSICpSoY1XU8SrO1rtXsNSpU9vy6ZcvXyEdOnZ+ss55syVXzpyOv9XRKaoyi7O5Vy8xGzgyAiWVKlWVg4cOOaZUlWGOf3vE8d+R8cxqXM/KIu7HzLgfseMMSYweM1bGjBnnWJMKnqgAimpTpkyTwUOGutZ99MghV/UXp59VkKJa9Zqyb99+y/do1kEFUCZOHB9p79Nz3r/++kvKla/kOgZIXa9SuZIMHjzQ5zNYOYQbgBsRQAABBBBAAAEEEEAAAQQQQAABBBBAAAEEEEAAAQQQQAABBAwFCJQ8xca4cuWqlC1XwVVlRA3VtGlj6dK5k89Rjxw5KuXKV3T1UZUZhg8bYnjPutD10qZNO9e1kJBpki9vHsffMWLEkJgxY9p6go0bN0mTpk+OUxk0sL9UrVrF8l7PQMuE8WOlZMkSjvsqV6kmBw4cdI1x/txpy/EiO1CiFuBcR2Q8s/MBW7ZqI+vWhTr+dFZF+fnnnyV3nvwug0MH90v8+PHl+PETooImzvbNoQPy1lv/kzp168uOHTsdH5uFKqyCFO4BFkt8gw4FC+QXtaci6316Thkc3Evmzf/S9bE64mbVyuWuI4PMnsHKITzPzj0IIIAAAggggAACCCCAAAIIIIAAAggggAACCCCAAAIIIIAAAuYCBErCuTt+//13qVK1hlZpQQU0Bg7o5wh6mLV//vlHipcoJadPnwnnzE9uUz/Gb9yw3tY4nse/qONu1HEnVm3a9BAZOHCwq9s8twol7Tt0EvfjU07/cFJix47tc8jICJS4Hymjjg7au+ffkEZkPLPz4dRzq+d3tiOHD8qatetEBSZUy579c1nw5TzHfz9+/Fhy5srrCh6NGjVCSpYoLqnTpHXdP2nSBClerKiXnVWQwj2Uom5WlT587T/PCdTxRc7jeiLjfbrPt2bNWmntFo5S19QxTylSBFhtQ7FysByADggggAACCCCAAAIIIIAAAggggAACCCCAAAIIIIAAAggggAACfgkQKPGL69/O9+/fl7r1GmhHjaijQ8aNG+N1ZInn8A8fPpSUqT4Ox6zetwQEBEjYlo22xvrzzz8lfYZMrr61a9eSPr17Wt7bp28/mTXr3yNaVNuwIVRSpUzp+G91jIs6zsXZdu3cJkmSJPE5ZmQEStzHzJ07l8ydM8uxhsh4ZufDqeo02XPkcj3rtKmTZfacubJr127HZ8pWGTvboMFDZOrU6Y4/VYWX+vXrSsWKTyrEqEDKm2++6WVnFaTwPDrp6/17JGHChJbv1ahDZLxP5zznzp2XQoX1wMzYMaMkMLC0rbVaOdgahE4IIIAAAggggAACCCCAAAIIIIAAAggggAACCCCAAAIIIIAAArYFCJTYpvq346NHjxxVFkJDn1QGURUeZsyYJi+99JLlaM8qUKIWljVbdrlx44ZjjSqMsmnjep8BGPWsBQsVkYsXL7me68Txo/Lqq686/l6+fIV06NjZdW3c2NFSunQpnwYRHSg5deqUlCgZ6JqzRo1q0r9fX9ffEf3M7g/nftxMmS8CZdXqNa7L27eFSbJk77v+PnjokFSqVNX1d6tWLWTcuAmOv92rmXjiWQUpFi5cJN26B7luU8fXqGNswtMi432qddy7d0/KV6isVfPxfE9W67VysLqf6wgggAACCCCAAAIIIIAAAggggAACCCCAAAIIIIAAAggggAAC/gkQKPHPS3r17itz5sx13ZUuXVrH0Savvfaa7ZHUD+zq6Bs7bV3oeunSpZur64TxYyVfvryOv2PFiiUvv/yynWEcfRo3aSabNm3WxlLVMsza+vVfSfMWrVyXixUrKpMn/RuCUO3bb7+VL8qU1yzWrF5pOt6FCxckf4HCrusqhDF69Eit/5Qp02TwkKGuz9R4ytisde3aXRYtXuK6HBTUXRrUr+f6O6Kf2X0dY8eOl1Gjx3gtLU2aNLI+9Em4RHVQ4ZxPM2aRO3fuePXv0aObNGxQ3/ARrYIUBw4clMpVqrnuVccgrQ9d6zMopEJN586dk1SpUmlzRsb7VBN07xEsCxYsdM2lfFYsX+LX3rVysP0loCMCCCCAAAIIIIAAAggggAACCCCAAAIIIIAAAggggAACCCCAgC0BAiW2mP7tNHHSZBk2bITrDlXlY+mShRI/fnw/RvGv69q166RV67aum2bOmC758+fzb5D/ep848Z2UDizjuldV0Fi4YL68++67XuNdvnxFqteoJefPn3ddmzhxvKijfdybCjOoUIOzDRzQT6pVe1KJw/n5zZs3pVz5ilq1EzuBEl/Gx44dkzJlK2jrOXRwv/Y+IuOZnRMeOXLU8UyerX27tqIqkHi2nj17y9x5870+dz9GyPOiVZBCBVUqVa4qhw8fcd3atk1rad26pcSIEcNrLhVoadmqjWzbtl06d+4oTRo3kpgxY7r6RfT7XLlqtbRr10Fbx7atm+WDDz7waw9bOfg1GJ0RQAABBBBAAAEEEEAAAQQQQAABBBBAAAEEEEAAAQQQQAABBCwFCJRYEv3bYenS5dKpcxett6pC8d5779kaQf24//rrr9vq694pIgMlatyg4J4yf/4C1xQJEiQQdVTNZ59lc1S1UAGFb745LM2at3Qdj6M6q2N95s6dpYUP1Of79u2XatVras/VvFlTqVmzuiOocuvWLUfgZMLEyaICIO7NTqBE9VcVSnr37inp06WTuHHjyoMHD2TDho1a0Eb1a9y4oXTrqr+jyHhm5zOYVR1Zu2aVpE37ide73r17j9SsVUf7PHHixLJ3z07TfWEnSOEZmlGDqWoyvXoGucJCv//+uxw9ekyGDhsux4+fcM03auRwKVv2ScgoIt/n2bPnpHARPYA0oH8/KV26pOX3IE6cOPLKK6+4+tlxsByUDggggAACCCCAAAIIIIAAAggggAACCCCAAAIIIIAAAggggAACtgUIlNig+vPPPyV9hkw2evru4lk9w86AER0ouXHjhhQrXkoLizjXoY4iOXXqlNey4sWLJ6Hr1oiqaGLUGjRoJGFbtxneZ3TEi7Oj3UCJ+8C+1rhl80Z5551EXuuIjGd2TtKxUxdZtmy5a04VENmze4dhdRAVhMmUOZt27E2dOrWld69g061gN0ihjglSxwV5NhUYih//LTl9+ozXNRUSmjUrRFR4w71F1Pv0PI7Izn539lFH92zcsN51i10Hf+agLwIIIIAAAggggAACCCCAAAIIIIAAAggggAACCCCAAAIIIICAuQCBEhu74/bt25IxU1YbPX13OfD1Xnn77bf9GieiAyVqclU1pEvX7rJp02bLtagjZ2bNDDENk6gB7t+/L926B8mKFSt9jqeO6lHVSpwhEzuBEhUsMApDuE+kgi4zQqbLhx+mMJ0/op/ZOVFo6Hpp0bK1a94G9etJUFB303WoKjeq2o2zWR1hZDdI8fjxY1m8eIl07dbD8p2qDoUKFZQRw4fKm2++6dU/ot6nZ9jG1sL+66T2XdiWja5b7Dr4Mwd9EUAAAQQQQAABBBBAAAEEEEAAAQQQQAABBBBAAAEEEEAAAQTMBQiU2Ngdf/zxh2T4NLONnr67fHPogLz11v/8Gkcd7dK0WQvXPfPmzZZcOXP6NYZRZxVAmP/lAlmyZJnXUTSqvwppNPg/9u4EOooqbeP4G8KOEHZIIGwyEgVEjYiiLHFfAEHEFUVFg8qgjogLIxJARBF3UQkKgjvixqKOokREcIs4IAqf7EgihDXskJDvvJXpSnWnO+lOVydd3f97To6k69ate3+3MscxD+8dfItc2f8KqVmzZqnP0/FeffU1eefdWbJ+/Xq3/lq144YbrpchqbfJjTfeLEuWLjWuX3nlFfLkxCfc+mqVDa224WpadWTlypUy6amnZdOmzW59tXLKueemGBU+6tev79cc7VyzPnDXrt1yWnJn89nvvP2mnHlmF59z+eqrr+XW24aY11f+tlxq1iw62sXzRj2eSI8pcrUvv/hc2rY93uf4avTExCflhx9+9FqF5vTkZLl+4HWiYR49hslXs2M/NWT07rvvlbov3jpoJRo9UsrVAnUo00O5CQEEEEAAAQQQQAABBBBAAAEEEEAAAQQQQAABBBBAAAEEEEDAFCBQwssgeXl5snbtWtm8+S+pV7+eNEtIkMaNG0ulSpXKpKMhi99//10qV64sSUntvFbB8DWwt0BJmzatje4HDhyUtevWSs62HKMaSYsWLUoMRZQ0ebvXXCaoEN+kR/2sWbNW8vLzpE7t2hIfHx9whRydYjD7GeIlMjwCCCCAAAIIIIAAAggggAACCCCAAAIIIIAAAggggAACCCCAQIgECJSECJZhyyZQUqCkbCNyFwIIIIAAAggggAACCCCAAAIIIIAAAggggAACCCCAAAIIIIAAAggEKkCgJFAx+odUgEBJSHkZHAEEEEAAAQQQQAABBBBAAAEEEEAAAQQQQAABBBBAAAEEEEAAAb8ECJT4xUSn8hIgUFJe0jwHAQQQQAABBBBAAAEEEEAAAQQQQAABBBBAAAEEEEAAAQQQQAAB3wIESng7wkqAQElYbQeTQQABBBBAAAEEEEAAAQQQQAABBBBAAAEEEEAAAQQQQAABBBCIUgECJVG68eG6bAIl4bozzAsBBBBAAAEEEEAAAQQQQAABBBBAAAEEEEAAAQQQQAABBBBAIJoECJRE0247YK0EShywSUwRAQQQQAABBBBAAAEEEEAAAQQQQAABBBBAAAEEEEAAAQQQQCDiBQiURPwWO2uBWVlZ8uefa8xJn3XWmVK1alVnLYLZIoAAAggggAACCCCAAAIIIIAAAggggAACCCCAAAIIIIAAAggg4HABAiUO30CmjwACCCCAAAIIIIAAAggggAACCCCAAAIIIIAAAggggAACCCCAAAII2C1AoMRuUcZDAAEEEEAAAQQQQAABBBBAAAEEEEAAAQQQQAABBBBAAAEEEEAAAQQcLkCgxOEbyPQRQAABBBBAAAEEEEAAAQQQQAABBBBAAAEEEEAAAQQQQAABBBBAAAG7BQiU2C3KeAgggAACCCCAAAIIIIAAAggggAACCCCAAAIIIIAAAggggAACCCCAgMMFCJQ4fAOZPgIIIIAAAggggAACCCCAAAIIIIAAAggggAACCCCAAAIIIIAAAgggYLcAgRK7RRkPAQQQQAABBBBAAAEEEEAAAQQQQAABBBBAAAEEEEAAAQQQQAABBBBwuACBEodvINNHAAEEEEAAAQQQQAABBBBAAAEEEEAAAQQQQAABBBBAAAEEEEAAAQTsFiBQYrco4yGAAAIIIIAAAggggAACCCCAAAIIIIAAAggggAACCCCAAAIIIIAAAg4XIFDi8A1k+ggggAACCCCAAAIIIIAAAggggAACCCCAAAIIIIAAAggggAACCCCAgN0CBErsFmU8BBBAAAEEEEAAAQQQQAABBBBAAAEEEEAAAQQQQAABBBBAAAEEEEDA4QIEShy+gUwfAQQQQAABBBBAAAEEEEAAAQQQQAABBBBAAAEEEEAAAQQQQAABBBCwW4BAid2ijIcAAggggAACCCCAAAIIIIAAAggggAACCCCAAAIIIIAAAggggAACCDhcgECJwzeQ6SOAAAIIIIAAAggggAACCCCAAAIIIIAAAggggAACCCCAAAIIIIAAAnYLECixW5TxEEAAAQQQQAABBBBAAAEEEEAAAQQQQAABBBBAAAEEEEAAAQQQQAABhwsQKHH4BjJ9BBBAAAEEEEAAAQQQQAABBBBAAAEEEEAAAQQQQAABBBBAAAEEEEDAbgECJXaLMh4CCCCAAAIIIIAAAggggAACCCCAAAIIIIAAAggggAACCCCAAAIIIOBwAQIlDt9Apo8AAggggAACCCCAAAIIIIAAAggggAACCCCAAAIIIIAAwuCncQAAIABJREFUAggggAACCNgtQKDEblHGQwABBBBAAAEEEEAAAQQQQAABBBBAAAEEEEAAAQQQQAABBBBAAAEEHC5AoMThG8j0EUAAAQQQQAABBBBAAAEEEEAAAQQQQAABBBBAAAEEEEAAAQQQQAABuwUIlNgtyngIIIAAAggggAACCCCAAAIIIIAAAggggAACCCCAAAIIIIAAAggggIDDBQiUOHwDmT4CCCCAAAIIIIAAAggggAACCCCAAAIIIIAAAggggAACCCCAAAIIIGC3AIESu0UZDwEEEEAAAQQQQAABBBBAAAEEEEAAAQQQQAABBBBAAAEEEEAAAQQQcLgAgRKHbyDTRwABBBBAAAEEEEAAAQQQQAABBBBAAAEEEEAAAQQQQAABBBBAAAEE7BYgUGK3KOMhgAACCCCAAAIIIIAAAggggAACCCCAAAIIIIAAAggggAACCCCAAAIOFyBQ4vANZPoIIIAAAggggAACCCCAAAIIIIAAAggggAACCCCAAAIIIIAAAggggIDdAgRK7BZlPAQQQAABBBBAAAEEEEAAAQQQQAABBBBAAAEEEEAAAQQQQAABBBBAwOECBEocvoFMHwEEEEAAAQQQQAABBBBAAAEEEEAAAQQQQAABBBBAAAEEEEAAAQQQsFuAQIndooyHAAIIIIAAAggggAACCCCAAAIIIIAAAggggAACCCCAAAIIIIAAAgg4XIBAicM3kOkjgAACCCCAAAIIIIAAAggggAACCCCAAAIIIIAAAggggAACCCCAAAJ2CxAosVuU8RBAAAEEEEAAAQQQQAABBBBAAAEEEEAAAQQQQAABBBBAAAEEEEAAAYcLEChx+AYyfQQQQAABBBBAAAEEEEAAAQQQQAABBBBAAAEEEEAAAQQQQAABBBBAwG4BAiV2izIeAggggAACCCCAAAIIIIAAAggggAACCCCAAAIIIIAAAggggAACCCDgcAECJQ7fQKaPAAIIIIAAAggggAACCCCAAAIIIIAAAggggAACCCCAAAIIIIAAAgjYLUCgxG5RxkMAAQQQQAABBBBAAAEEEEAAAQQQQAABBBBAAAEEEEAAAQQQQAABBBwuQKDE4RvI9BFAAAEEEEAAAQQQQAABBBBAAAEEEEAAAQQQQAABBBBAAAEEEEAAAbsFCJTYLcp4CCCAAAIIIIAAAggggAACCCCAAAIIIIAAAggggAACCCCAAAIIIICAwwUIlDh8A5k+AggggAACCCCAAAIIIIAAAggggAACCCCAAAIIIIAAAggggAACCCBgtwCBErtFGQ8BBBBAAAEEEEAAAQQQQAABBBBAAAEEEEAAAQQQQAABBBBAAAEEEHC4AIESh28g00cAAQQQQAABBBBAAAEEEEAAAQQQQAABBBBAAAEEEEAAAQQQQAABBOwWIFBityjjIYAAAggggAACCCCAAAIIIIAAAggggAACCCCAAAIIIIAAAggggAACDhcgUOLwDWT6CCCAAAIIIIAAAggggAACCCCAAAIIIIAAAggggAACCCCAAAIIIICA3QIESuwWZTwEEEAAAQQQQAABBBBAAAEEEEAAAQQQQAABBBBAAAEEEEAAAQQQQMDhAgRKHL6BTB8BBBBAAAEEEEAAAQQQQAABBBBAAAEEEEAAAQQQQAABBBBAAAEEELBbgECJ3aKMhwACCCCAAAIIIIAAAggggAACCCCAAAIIIIAAAggggAACCCCAAAIIOFyAQInDN5DpI4AAAggggAACCCCAAAIIIIAAAggggAACCCCAAAIIIIAAAggggAACdgsQKLFblPEQQAABBBBAAAEEEEAAAQQQQAABBBBAAAEEEEAAAQQQQAABBBBAAAGHCxAocfgGMn0EEEAAAQQQQAABBBBAAAEEEEAAAQQQQAABBBBAAAEEEEAAAQQQQMBuAQIldosyHgIIIIAAAggggAACCCCAAAIIIIAAAggggAACCCCAAAIIIIAAAggg4HABAiUO30CmjwACCCCAAAIIIIAAAggggAACCCCAAAIIIIAAAggggAACCCCAAAII2C1AoMRuUcZDAAEEEEAAAQQQQAABBBBAAAEEEEAAAQQQQAABBBBAAAEEEEAAAQQcLkCgxOEbyPQRQAABBBBAAAEEEEAAAQQQQAABBBBAAAEEEEAAAQQQQAABBBBAAAG7BQiU2C3KeAgggAACCCCAAAIIIIAAAggggAACCCCAAAIIIIAAAggggAACCCCAgMMFCJQ4fAOZPgIIIIAAAggggAACCCCAAAIIIIAAAggggAACCCCAAAIIIIAAAgggYLcAgRK7RRkPAQQQQAABBBBAAAEEEEAAAQQQQAABBBBAAAEEEEAAAQQQQAABBBBwuACBEodvINNHAAEEEEAAAQQQQAABBBBAAAEEEEAAAQQQQAABBBBAAAEEEEAAAQTsFiBQYrco4yGAAAIIIIAAAggggAACCCCAAAIIIIAAAggggAACCCCAAAIIIIAAAg4XIFDi8A1k+ggggAACCCCAAAIIIIAAAggggAACCCCAAAIIIIAAAggggAACCCCAgN0CBErsFmU8BBBAAAEEEEAAAQQQQAABBBBAAAEEEEAAAQQQQAABBBBAAAEEEEDA4QIEShy+gUwfAQQQQAABBBBAAAEEEEAAAQQQQAABBBBAAAEEEEAAAQQQQAABBBCwW4BAid2ijIcAAggggAACCCCAAAIIIIAAAggggAACCCCAAAIIIIAAAggggAACCDhcgECJwzeQ6SOAAAIIIIAAAggggAACCCCAAAIIIIAAAggggAACCCCAAAIIIIAAAnYLECixW5TxEEAAAQQQQAABBBBAAAEEEEAAAQQQQAABBBBAAAEEEEAAAQQQQAABhwsQKHH4BjJ9BBBAAAEEEEAAAQQQQAABBBBAAAEEEEAAAQQQQAABBBBAAAEEEEDAbgECJXaLMh4CCCCAAAIIIIAAAggggAACCCCAAAIIIIAAAggggAACCCCAAAIIIOBwAQIlDt9Apo8AAggggAACCCCAAAIIIIAAAggggAACCCCAAAIIIIAAAggggAACCNgtQKDEblHGQwABBBBAAAEEEEAAAQQQQAABBBBAAAEEEEAAAQQQQAABBBBAAAEEHC5AoMThG8j0EUAAAQQQQAABBBBAAAEEEEAAAQQQQAABBBBAAAEEEEAAAQQQQAABuwUIlNgtyngIIIAAAggggAACCCCAAAIIIIAAAggggAACCCCAAAIIIIAAAggggIDDBQiUOHwDmT4CCCCAAAIIIIAAAggggAACCCCAAAIIIIAAAggggAACCCCAAAIIIGC3AIESu0UZDwEEEEAAAQQQQAABBBBAAAEEEEAAAQQQQAABBBBAAAEEEEAAAQQQcLgAgRKHbyDTRwABBBBAAAEEEEAAAQQQQAABBBBAAAEEEEAAAQQQQAABBBBAAAEE7BYgUGK3KOMhgAACCCCAAAIIIIAAAggggAACCCCAAAIIIIAAAggggAACCCCAAAIOFyBQ4vANZPoIIIAAAggggAACCCCAAAIIIIAAAggggAACCCCAAAIIIIAAAggggIDdAgRK7BZlPAQQQAABBBBAAAEEEEAAAQQQQAABBBBAAAEEEEAAAQQQQAABBBBAwOECBEocvoFMHwEEEEAAAQQQQAABBBBAAAEEEEAAAQQQQAABBBBAAAEEEEAAAQQQsFuAQIndooyHAAIIIIAAAggggAACCCCAAAIIIIAAAggggAACCCCAAAIIIIAAAgg4XIBAicM3kOkjgAACCCCAAAIIIIAAAggggAACCCCAAAIIIIAAAggggAACCCCAAAJ2CxAosVuU8RBAAAEEEEAAAQQQQAABBBBAAAEEEEAAAQQQQAABBBBAAAEEEEAAAYcLEChx+AYyfQQQQAABBBBAAAEEEEAAAQQQQAABBBBAAAEEEEAAAQQQQAABBBBAwG4BAiV2izIeAggggAACCCCAAAIIIIAAAggggAACCCCAAAIIIIAAAggggAACCCDgcAECJQ7fQKaPAAIIIIAAAggggAACCCCAAAIIIIAAAggggAACCCCAAAIIIIAAAgjYLUCgxG5RxkMAAQQQQAABBBBAAAEEEEAAAQQQQAABBBBAAAEEEEAAAQQQQAABBBwuQKDE4RvI9BFAAAEEEEAAAQQQQAABBBBAAAEEEEAAAQQQQAABBBBAAAEEEEAAAbsFCJTYLcp4CCCAAAIIIIAAAggggAACCCCAAAIIIIAAAggggAACCCCAAAIIIICAwwUIlDh8A5k+AggggAACCCCAAAIIIIAAAggggAACCCCAAAIIIIAAAggggAACCCBgtwCBErtFGQ8BBBBAAAEEEEAAAQQQQAABBBBAAAEEEEAAAQQQQAABBBBAAAEEEHC4AIESh28g00cAAQQQQAABBBBAAAEEEEAAAQQQQAABBBBAAAEEEEAAAQQQQAABBOwWIFBityjjIYAAAggggAACCCCAAAIIIIAAAggggAACCCCAAAIIIIAAAggggAACDhcgUOLwDWT6CCCAAAIIIIAAAggggAACCCCAAAIIIIAAAggggAACCCCAAAIIIICA3QIESuwWZTwEEEAAAQQQQAABBBBAAAEEEEAAAQQQQAABBBBAAAEEEEAAAQQQQMDhAgRKHL6BTB8BBBBAAAEEEEAAAQQQQAABBBBAAAEEEEAAAQQQQAABBBBAAAEEELBbgECJ3aKMhwACCCCAAAIIIIAAAggggAACCCCAAAIIIIAAAggggAACCCCAAAIIOFyAQInDN5DpI4AAAggggAACCCCAAAIIIIAAAggggAACCCCAAAIIIIAAAggggAACdgsQKLFblPEQQAABBBBAAAEEEEAAAQQQQAABBBBAAIEKFMg/VuD29NhKMRU4Gx6NAAIIIIAAAggggAACThUgUOLUnWPeCCCAAAIIIIAAAggggAACCCCAAAIIIICAiPy6Zp+s3LBfVm8+KGuzDkrO7qOyM/eoYVO/ThVpVLeKHJ9QQ9ol1pD2rWrJKW2Pww0BBBBAAAEEEEAAAQQQKFWAQEmpRHRAAAEEEEAAAQQQiBaBjOzcUpf6TVau9EioIz3j6xh9D/13nRxcvs74c42T23i9v3on75+X+jA6IIAAAggggAACCCDgQ2D7nqOycNlu+XbFHvlpVa4czXOvSuILrkrlGOmcVEe6dYyTlFPrSsO4KhgjgAACCCCAAAIIIIAAAl4FCJTwYiCAAAIIIIAAAghEnIA1GKIBEG0Z2XvMdWb877OyLjwtOVFGJzc3bt/1xgLZNXNBWYeSGh5hE2v4RAMqhFHKTMuNCCCAAAIIIIBAxArMXbJD5izZLsv+3BfUGk/9x3HSp2tD6d21QVDjcDMCCCCAAAIIIIAAAghEpgCBksjcV1aFAAIIIIAAAghEpECogyL+otkZKPH3mdrPFT4hdBKIGn0RQAABBBBAAIHIEViXfUhmf5MjHy7Kkbx8/yqSlLb6yrExckW3hnJlz8bSJr56ad25jgACCCCAAAIIIIAAAlEkQKAkijabpSKAAAIIIIAAAk4RcAVHtLqIq7JIsFVF7Fx7RQVK/FmDZ+iEKif+qNEHAQQQQAABBBAIf4EV6/fLtE+z5dvlRZX37Jx1t5Pj5JZL46Vj61p2DlviWHl5ebJs2TJZvXq17NixQ3bv3i01atSQevXqSdOmTaVz587GPyOpbdq0SY4cOWIsqX79+sYXDQEEEEAAAQQQQACBcBUgUBKuO8O8EEAAAQQQQACBKBAI9+CIry0I50CJrzlr0MRV2YSQSRT8cLFEBBBAAAEEEIgoAT3aJn1elvy0am9I19U5qbak9koQPQonlG3Xrl3ywgsvyOzZs2X//v0lPiopKUmGDh0ql1xyicTExJQ6rYKCAvnss8+kY8eOkpiYWGr/8u5w8sknm2u+7rrrZNy4ceU9BVueF+7OtiySQRBAAAEEEEAAAQSEQAkvAQIIIIAAAggggEC5CGh4JFwrjgQK4MRAia81WoMm9W44P1AK+iOAAAIIIIAAAgiEWOCvnMPy1KzNIatM4jl9rVQy/KpEad6oWkhW9t1338kdd9xRapDE8+FdunSRl19+WeLi4nzOa82aNZKWliZLly6V6dOnS/fu3UOyhmAGjYRAiROcg9kj7kUAAQQQQAABBBAoEiBQwtuAAAIIIIAAAgggYLuAq/LImMzNxtjhdFyNHYuNpECJNw+qmdjxljAGAggggAACCCAQvEB+foERJpmVkRP8YAGMcFVKYxk+oLnExpZeESSAYWXFihXSt29fn7e0bt1acnNzjeNvvLXk5GSZMWOGcSyOZ1u1apVcdtll5scESgLZGf/7OsXZ/xXREwEEEEAAAQQQQKAkAQIlvB8IIIAAAggggAACQQtYAySRFh7xhhPpgRJva6aSSdA/JgyAAAIIIIAAAggELDB3yQ4ZM2NDwPfZccPoQa2kd9cGdgxljtGvXz9Zvny5+X2DBg2MaiX6ed26dc3Pjx49avR78cUXZdGiRW5zuOeee2TYsGHF5vXLL7/IgAEDzM9ff/116datm63zt2Mwp1cocYqzHXvFGAgggAACCCCAAALCkTe8BAgggAACCCCAAAKBC1iPr4mGAImnUDQGSjwNXAGTGie3keqd2gT+EnEHAggggAACCCCAQIkC2/cclUemrZcfV+2tEKkzkmrL2FtaS8O4KrY8/+eff5arr77aHEvDJHPnzpUmTZqUOP7TTz8tkydPNvvUqlXLONJG/2ltTgk6ECix5XViEAQQQAABBBBAAIFyEqBCSTlB8xgEEEAAAQQQQCASBFLmrYy442vKsi8ESoqr1bvxfOPDejcU/pOGAAIIIIAAAgggEJzA7G9y5PG3NwU3SJB3P3hdC7myR6MgRym8febMmTJmzBhzrGeffVZ69+5d6tj5+fly7bXXSmZmptnXW/URAiWlUtrSwSnOtiyWQRBAAAEEEEAAAQSoUMI7gAACCCCAAAIIIFBcIDsj2/gwc0ymJI9Olvie8cb3BEoKrQiUlP5TQ8CkdCN6IIAAAggggAACvgTyjxXIvyavlSW/7alQpK4d4uSZocdLbKWYoOcxfvx4mTZtmjnO/PnzJSkpya9x33jjDUlLSzP7jho1Sm666Sbj+8OHD8vBgweNwElqaqrZ57nnnpNzzjnH+F6rmVSpUlhpZd++fZKXl2f8uVq1alKjRo0S52DtX716ddGvklpOTo788ccfsmnTJikoKJBOnTrJSSedJJUrVzZuK0uFkj179siaNWtk9erVogGbdu3ayQknnOB2TJCvOR04cECOHDliXK5du7bExsYafz527JisW7dOVqxYITq+jqn7Ua9ePa9DBers18bSCQEEEEAAAQQQQCDsBahQEvZbxAQRQAABBBBAAIHyEdAQiQZItGVlZJkP7b2wtxko0aNuUuauLJ8JhfFTCJQEtjmu43H0LiqYBGZHbwQQQAABBBCIToFf1+yTW59cHRaLf3VEOzml7XFBz+XFF1+UZ555xhxn4sSJ0r9/f7/G3bhxozz22GNSv359I/CgQZGuXbsa9+o4U6ZMKXGckSNHyuDBg40+Z5xxhuzYscP4c79+/WTSpEkl3msNgFxzzTWiwRhvbcuWLaJrnDVrltfrAwcOlIcffliSk5Nl//79Rp/rrrtOxo0b5/P5erSPhmfWr1/vtU/r1q2N+XTp0sXnGJdddpmsWrXKuD5hwgS5/PLLZezYscZxQ655WG9u3769aPWYNm3cj7UM1NmvjaUTAggggAACCCCAQNgLECgJ+y1igggggAACCCCAQOgEXCESa4DE82kJPROk18JexscESgp1CJQE9066AiaES4Jz5G4EEEAAAQQQiFyBN7/cKs/O/issFnjPlc1l4AVNgp7Lp59+KsOGDTPH0aohr732mnTu3DmosZ944glJT08vcYwHH3xQbrvtNqOPNVDSt29feeqpp0q81xooueqqq4xQhmfTiiSDBg0ygyq+BjzrrLNEQyKu5itQotVANHwzdepUv2xuv/12ufvuu6Vq1arF+lsDJeqwePFi46u0pqbnnXee2S1Q59LG5zoCCCCAAAIIIICAMwQIlDhjn5glAggggAACCCBgi4D1KJuSQiSeD0stKCodHZNe9B9AbZmUAwchUGLfpnE0jn2WjIQAAggggAACkSPwyPQN8un3hVU0KrpdemYDGXtzq6CncejQISPM4VkVQ6uNXHHFFXLmmWdKkyaBB1feffdd+fDDD2Xbtm2yefNmc56JiYnSuHFj43s9HufSSy81/mx3oESPuNHghee6NCijFURWrlxpfHlrvgIlGrzRAI61tW3b1jg+R9svv/xSrGqJr7GsgRLPOej8mjVrJsuWLSs2/wYNGsiSJUvMo3oCdQ76hWEABBBAAAEEEEAAgbAQIFASFtvAJBBAAAEEEEAAgdAJaIgk65ssMf5pOcomkCdaj71JmbdSMrJyA7k94voSKAnNlhIuCY0royKAAAIIIICA8wRufmKVrFhXeCxKRbeObWrJ9AeSbJnG559/LkOHDvU5VlJSkvTo0cM4wuXUU0+VOnXq+P1cDVkMGDDA7P/6669Lt27dit1vd6DkoYcecjvmRkMaWt3DemTMr7/+KqmpqcUqmHgLgXz//fdy/fXXm/PWSi56LI4eVWNtX3/9tdxzzz1uQRA9xuakk05y6+ctUKKVUtLS0kRDKtry8/Nl4cKFMmTIELd7X3rpJbnooovcPvPX2e+NoyMCCCCAAAIIIIBAWAsQKAnr7WFyCCCAAAIIIIBA2QX8Oc7G39GT05IleXSy0Z1jbzjyxt/3Jph+hEuC0eNeBBBAAAEEEHC6wIUjlsvO3KNhsYz6darIF0+ebNtcZs+eLQ888IBf4+lxM1pZ5JJLLpHmzZuXeI+/QQc7AyVZWVluoRUNf3z77bcSFxdXbK6efbWDZ6BEgx263jVr1pj3v/fee3L66ad7Xfuff/4pF198sXlNq6K88847EhMTY37mGSjRwIsGeypXrlxsTK1C8u9//9v83FvgxV9nvzaYTggggAACCCCAAAJhL0CgJOy3iAkigAACCCCAAAL+C9gZIrE+NaFngvRa2Mv4iEAJgRL/30h7emq4pMbJbaR6pzb2DMgoCCCAAAIIIIBAGAvkHyuQHnf/KoeOHAuLWVavWkm+ee4Uia1UFFIIdmIbN26UZ599VubMmeP3UP3795f7779fGjZs6PUef4MOdgZKNOwxcuRIcz733Xef3HHHHT7XNGHCBHn11VfN656BjW+++UZuueUW8/qgQYPkkUceKdHo0UcflenTp5t99Kicdu3amd97BkpmzpwpZ599ttcxDx48KB06dDCvXXjhhfLyyy+79fXX2e+NpSMCCCCAAAIIIIBAWAsQKAnr7WFyCCCAAAIIIIBA6QKuEIn2LOuRNqU/RSS1INXsFu3H3nDkjT9vTGj6EC4JjSujIoAAAggggED4CERDoMSlvXPnTtGjWxYtWiQZGRlux7d42xGtAPLGG29Ip06dil32N+hgZ6Bk2LBhogEOV8vMzJS6dev6fJn+/vtvtzCHZ6BEj+nR421c7e233zaO/ympLVmyRG644QazyyuvvCIXXHCB+b1noGTVqlVSpUoVn0Nq2ETnqS0lJcUtAKOf+escPj9RzAQBBBBAAAEEEEAgGAECJcHocS8CCCCAAAIIIFCBAqGqRuJrSb0X9pb4nvGF/2Fx3krJyMqtwNVX7KMJlFSsv+vpGi6pd8P54TEZZoEAAggggAACCNgoEMlH3vhi0uNefv/9d/nxxx9l6dKlsnDhQq9dNVSilU1atWrldt3foIOdgZI+ffrIypUrjXnovJYvX17qW6DH+Ozfv9/o5xkoGTNmjGgFEVe78cYbvR6fY31ITk6O6FE1rvbggw/KbbfdZn5vDZQ0aNDA8C2pXXTRReaRO927d3erfqL3+etcKgQdEEAAAQQQQAABBBwhQKDEEdvEJBFAAAEEEEAAgUKB8g6RWN059qZIg0BJeP1EarBEG+GS8NoXZoMAAggggAACZRe4+YlVsmJdYeigolvHNrVk+gNJ5T4NPX5l8eLFMmXKFFm2bJnb8/v16yeTJk1y+8zfoIOdgRLrWO3bt/frCB9rwMMzUKJH3Oiag2nXXHONjB8/3hzC+rzk5GSZNWtWicNb+xMoCWYnuBcBBBBAAAEEEIgMAQIlkbGPrAIBBBBAAAEEIligvI60KY3QGijRvjHpS0u7JWKvEygJ362lakn47g0zQwABBBBAAAH/BR6ZvkE+/X6H/zeEsOelZzaQsTe7VwMJ4eO8Dq2hkokTJ7pd0wBJXFyc+VlFBEqOP/548/n+hDW086233mpWX/EMlPTs2VM2b94cFK/nMTXWgEiPHj1k2rRpJY5PoCQofm5GAAEEEEAAAQQiToBAScRtKQtCAAEEEEAAgUgRqMhqJL4MOfamUIZASfj/lBEsCf89YoYIIIAAAggg4FvgzS+3yrOz/woLonuubC4DL2gS1FzmzZtnHOWybds2IzAxf/58SUoKrOrJ+eefL+vXrzfn8fHHH0vHjh3N78sSKNEja5555pkS12YNjVx11VUyYcIEs7+1Qknbtm3lP//5T6lOOkZmZqbRzzNQYr2m1x9++OFSx/PskJiYKGrlagRKAibkBgQQQAABBBBAAAGLAIESXgcEEEAAAQQQQCDMBMIxSOIisgZKxmT+JWmZwf3tuTCj93s6BEr8pqrwjhyHU+FbwAQQQAABBBBAoAwCv67ZJ7c+uboMd9p/y6sj2skpbY8LamANk4wZM8Yc4+6775a77roroDH1iJuXX37ZvOfVV18VrcbhamUJlFx88cUyefJkn/M4cuSInHjiieZ1z0CJHr2zfPly8/ratWtLXZM1hOIZKHnooYfcjqTxrMJS6uBeOhAoKYsa9yCAAAIIIIAAAgi4BAiU8C4ggAACCCCVeBRCAAAgAElEQVSAAAJhIpA5JlM0TJKVkRUmMyo+DeuxNxnZuZIyd2XYzjWUEyNQEkrd0I1N1ZLQ2TIyAggggAACCNgrkH+sQP41ea0s+W2PvQMHOFrXDnHyzNDjJbZSTIB3undftGiR3HzzzeaHWkUjIyMjoDHvu+8++eijj8x7PvnkE+nQoYP5vb+BkrPPPlv+/vtv477u3bvL9OnTfc5jzZo1ctFFF5nXPQMlnnPSNenafLW9e/fKKaecYl72DJRMnTpVHn/8cfP622+/LV26dCnRScdcvHix1K1bV+Lj46Vp06ZSvXp18x4CJQG9ZnRGAAEEEEAAAQQQ8BAgUMIrgQACCCCAAAIIVKBAOFcj8cWSWpBqXopJX1qBehX3aAIlFWdvx5MJltihyBgIIIAAAgggEGqB2d/kyONvbwr1Y0oc/8HrWsiVPRoFPYc9e/bIaaed5jbOxIkTpX///n6NvW/fPunUqZNb32XLlkmdOnXMzzwDJdOmTZMePXoUG996dI6GL7799lupVKmS13mkp6fLE088YV7zDJR8/vnnMnToUPO6Z0DEc1CtsKKVVlzNs/+CBQtkyJAh5vVzzjlHZsyYUaLRSy+9JE899ZTZR+dz7733mt+HOlDiy9mvjaUTAggggAACCCCAQNgLECgJ+y1igggggAACCCAQiQJODJK49sF67E3KvJWSkZUbiVtU4poIlETGlnMcTmTsI6tAAAEEEEAgUgW27zkqj0xbLz+u2lshSzwjqbaMvaW1NIyrYsvzNZihAQ1ru//+++Wmm26SatWq+XzGypUrRY/IWb9+vdmnT58+8swzz7jd8/vvv0vv3r3Nz5577jnp1atXsXG1UopWTHG1cePGiQY7PJsGTXRu1uYZKNm/f7+cfPLJbn3mz58vSUlJxcbbvn27nHvuuaL3uJpnoOTw4cNGRZTNm4uOFtWwSN++fb36bNiwQdTCOubChQulRYsWZn+7AyX+Otvy0jAIAggggAACCCCAQIULECip8C1gAggggAACCCAQTQJODpK49skaKInWY28IlETWTy3BksjaT1aDAAIIIIBAJAnMXbJDxszYUCFLGj2olfTu2sC2Z+fk5IiGG3bs2OE2plYJ0aNnTjrpJOOrWbNmkp2dLWvXrhUNk8ycObPYHD799FNp166d2+fr1q2TCy64wPxMQx0aFqlVq5Y0adLEOBJGmx4jM2rUKLd7Nehy1llnSc2aNUWDH3qEzPDhw4s91zNQoh20Qsf48ePd+urRNRoecbUVK1bI7bffbh614/rcW0UTDYTceuutbuPdcccdctddd0nVqlXNz3/++WcjaOM6vkcvaPWVKVOmuN1rd6DEX2fbXhwGQgABBBBAAAEEEKhQAQIlFcrPwxFAAAEEEEAgWgQiIUji2quEngnSa2Hh3/QjUCKy640Fsmvmgmh5lSN+nRyHE/FbzAIRQAABBBBwlEB+foE89f5fMmvhtnKd91U9G8nwqxIlNjbG1ueuWrVKNJRhragR6ANeeOEFufTSS4vddvDgQenQoYPX4W688UYZPXq0cW3v3r1yyimneO2XmJjoVh3Es5O3QEl+fr5ceeWVsnz5crfuGpTR6iUawFizZo3X5/k6Iic1NVW++uqrYvd06dJFGjVqZIynltamz/vwww+N8Iy12R0o8dc50H2lPwIIIIAAAggggEB4ChAoCc99YVYIIIAAAgggECECkRQksW5JakGq+W00HntDhZII+QEtYRkESyJ/j1khAggggAACThH4K+ewPDVrs3y7fE+5TLnbyXFGmKR5I9/H0AQzkf/7v/+Thx9+WDIzMwMapkGDBvLYY48ZVTh8Na08ohVIPJsGMayff/755zJ06NBSn6/z1ONnZsyYYfT1FijRzzWk8s9//tOobFJS69Gjhxw6dEh++OEHo5uvQIn20eDMK6+8UuoctYPavP/++9KyZcti/e0OlOgD/HX2a/J0QgABBBBAAAEEEAhrAQIlYb09TA4BBBBAAAEEnCoQqUES135Yj70hUEKFEqf+nJY2b47CKU2I6wgggAACCCBQXgLL/twn6fOy5KdVe0P6yM5JtSW1V4Kc+o/jQvqcY8eOiYY6PvvsM9Hja0pqbdu2lb59+8rAgQOldu3aJfbVaiGPPvqozJ8/3+1oHQ1c/Pjjj273btiwQUaOHGmGO6wXtbLI4MGDpVevXvL444+LHmGj7frrr5exY8d6ncPRo0flvffek5dffrnY0TZ67E7v3r2NKil6lI5rzdbKKd4G/fXXX40Qja/wja7rzjvvlKuvvlpq1KjhdV79+vUzq6ecd955osf7lNT86R+Ic0hfJAZHAAEEEEAAAQQQCLkAgZKQE/MABBBAAAEEEIgmgUgPkrj2MtqPvaFCSTT9VIsQLImu/Wa1CCCAAAIIhKvAivX7Zdqn2SGrVKKVSW65NF46tq5VrgQaxFi7dq3s2rXL+MrNzTWCIw0bNpSEhATRY2jK0rZu3Sr6peM0btxYKleu7HWYI0eOyJ9//ml8xcfHS8eOHaVmzZpleaRxT15enrEerWyiR/u0b99eWrduLbGxsWUeUwMcf/31l3HUjfqoi+srmHHLPCHLjf462/EsxkAAAQQQQAABBBAofwECJeVvzhMRQAABBBBAIAIFoiVI4to6a6BEP4tJXxqBu+p7SQRKomq7zcVyDE507jurRgABBBBAIJwE1mUfktnf5MiHi3IkL7/AlqlVjo2RK7o3kit7NJI28dVtGZNBEEAAAQQQQAABBBBAIDIECJRExj6yCgQQQAABBBCoIIFoC5JYmVMLUs1vo+3YGwIlFfQDFyaPJVgSJhvBNBBAAAEEEIhigblLdsicJdtFj8IJpunRNn26NpTeXRsEMwz3IoAAAggggAACCCCAQIQKECiJ0I1lWQgggAACCCAQWoFoDpK4ZHsv7C3xPeONbwmULAjtC8foYSlAsCQst4VJIYAAAgggEDUC2/cclYXLdsu3K/bIT6ty5WiefxVLqlSOkc5JdaRbxzhJObWuNIyrEjVmLBQBBBBAAAEEEEAAAQQCEyBQEpgXvRFAAAEEEEAAAckckymZaZlRL2E99iYjO1dS5q6MGhMqlETNVvu1UIIlfjHRCQEEEEAAAQRCKPDrmn2ycsN+Wb35oKzNOig5u4/KztyjxhPr16kijepWkeMTaki7xBrSvlUtOaXtcSGcDUMjgAACCCCAAAIIIIBApAgQKImUnWQdCCCAAAIIIBByAYIk7sTWQIleiUlfGvI9CJcHECgJl50Ir3kQLAmv/WA2CCCAAAIIRLNA/jH3aiWxlWKimYO1I4AAAggggAACCCCAQBkFCJSUEY7bEEAAAQQQQCD6BAiUFN/zaD32hkBJ9P38+7NiAiX+KNEHAQQQQAABBBBAAAEEEEAAAQQQQAABBJwiQKDEKTvFPBFAAAEEEECg/AWyM0SyvhFJHm0+e17KPMnKyCr/uYTpE62BkjGZf0la5uYwnam90yJQYq9npIzW5svHzaVkrs6S5HYJkbI01oEAAggggAACCCCAAAIIIIAAAggggAACUShAoCQKN50lI4AAAggggIAfApljRDLTCjv2XigS39P4Y3ZGtsxNmevHANHRxXrsTUZ2rqTMXRkVCydQEhXbHNAirdVJNExy25MfG/cP6dPZ+KIhgAACCCCAAAIIIIAAAggggAACCCCAAAJOEyBQ4rQdY74IIIAAAgggEFoBrUqiYZKsjKLnJPQU6bXQ/J4qJe5bkFqQan4Qk740tPsTJqMTKAmTjQiTaXgedTNlzk+iX9ZGsCRMNotpIIAAAggggAACCCCAAAIIIIAAAggggIDfAgRK/KaiIwIIIIAAAghEvMC8FPcgiXXBVCnxuf3WY29S5q2UjKzciH9VCJRE/BYHtMCESalSvVMb4x5vYRLXYIRKAmKlMwIIIIAAAggggAACCCCAAAIIIIAAAghUsACBkgreAB6PAAIIIIAAAmEgYD3extd0qFLic6OS05IleXSycT1ajr0hUBIGP7dhMgXP6iSn3fpSqTMjWFIqER0QQAABBBBAAAEEEEAAAQQQQAABBBBAIAwECJSEwSYwBQQQQAABBBCoIAFvx9uUNJXkNJHk0WaP9Jj0Cpp4eD02oWeC9FrYy5gUgZLw2htmE3qBNl8+bj6kpOoknjMhVBL6veEJCCCAAAIIIIAAAggggAACCCCAAAIIIBCcAIGS4Py4GwEEEEAAAQScKuBPVRJva7McfZM5JlMy0zKdKmDrvFMLUs3xouHYGyqU2Pr6OHawslQn8VwswRLHbj8TRwABBBBAAAEEEEAAAQQQQAABBBBAIOIFCJRE/BazQAQQQAABBBBwEwi0KoknH0ffeH2hei/sLfE9441rBEr4mYsWgbJWJ/HmQ7AkWt4a1okAAggggAACCCCAAAIIIIAAAggggIBzBAiUOGevmCkCCCCAAAIIBCswL0UkKyPYUUQsVUqyM7Jlbsrc4Md0+AjRduwNFUoc/sLaMH1rdZJAjrop6dGESmzYGIZAAAEEEEAAAQQQQAABBBBAAAEEEEAAAdsECJTYRslACCCAAAIIIBC2AlqVZG6KfdOjSkkxS2ugRC/GpC+1zzsMRyJQEoabUo5T8jzqJvXJT+Tn1VtsmwHBEtsoGQgBBBBAAAEEEEAAAQQQQAABBBBAAAEEghAgUBIEHrcigAACCCCAgAMEMseIZKbZP1GqlBQzjaZjbwiU2P8j5aQR7Tzqxte6CZU46Y1grggggAACCCCAAAIIIIAAAggggAACCESmAIGSyNxXVoUAAggggAACWpVEwyR2HHHjSzO1wLySOSZTMtMyo9qdQElUb3/ULN6zOslpt74UsrWf3q6ZaLAkuV1CyJ7BwAgggAACCCCAAAIIIIAAAggggAACCCCAgC8BAiW8GwgggAACCCAQeQKhqkriKZWcJpI82vw0PSY98iwDWJH12JuM7FxJmbsygLud1ZUKJc7aLztnWx7VSTznS7USO3eQsRBAAAEEEEAAAQQQQAABBBBAAAEEEEDAXwECJf5K0Q8BBBBAAAEEnCEwLyW0VUk8FSxH30R7lRJroESZYtKXOuOdKcMsCZSUAS0CbinP6iSeXIRKIuAFYgkIIIAAAggggAACCCCAAAIIIIAAAgg4TIBAicM2jOkigAACCCCAgA8BPeJmbkr58yT0FOm10HzuvJR5kpWRVf7zCJMnRsuxNwRKwuSFK8dp1OjURuInpZpPnDLnJ9Gv8m4ES8pbnOchgAACCCCAAAIIIIAAAggggAACCCAQvQIESqJ371k5AggggAACkSNQXkfc+BKzVCnJzsiWuSlzI8c2wJVYAyWRfOwNgZIAX4wI6G6tTlJRYRIXI6GSCHihWAICCCCAAAIIIIAAAggggAACCCCAAAIOECBQ4oBNYooIIIAAAggg4ENAq5JomCQro2KJqFJi+luPvSFQUrGvJU+3T6Aij7rxtYrT2zWT9BGX27dIRkIAAQQQQAABBBBAAAEEEEAAAQQQQAABBDwECJTwSiCAAAIIIICAMwUquiqJp1pymkjyaOPTaK9SklpQdCxITPpSZ75fpcyaCiURua0+F9Xmy8fNaxVdncRzklQria53kdUigAACCCCAAAIIIIAAAggggAACCCBQngIESspTm2chgAACCCCAgD0C81IqviqJt5WkFpifZo7JlMy0THvW67BRrMfepMxbKRlZuQ5bQenTJVBSulGk9AjH6iSetoRKIuVtYx0IIIAAAggggAACCCCAAAIIIIAAAgiElwCBkvDaD2aDAAIIIIAAAiUJhMsRN77maKlSol3SY9Kjcj+T05IleXSysfZIPfaGQEn0vNrhXJ3Ecxemjugrye0SomdzWCkCCCCAAAIImAIHly2Rw6t+lSNrVsqRDaslf8dWydux1bheuUETiW3QRKq2aidV27aXakmnSI1Tu6KHAAIIIIAAAggggAACCJQqQKCkVCI6IIAAAggggEBYCITbETe+UHovFInvaVyN1qNvEnomSK+FvQwDAiVh8dPDJMoo4ITqJJ5Lo1pJGTeb2xBAAAEEEHCgQP7uHbL/609k/7efyYEfF4oUFFVMLHE5MTFS84wUqdXtEql17uUSW7eBA1fPlBFAAAEEEEAAAQQQQKA8BAiUlIcyz0AAAQQQQACB4AScEibRVSb0FOm10FzvvJR5kpWRFdz6HXh3akGqOetIPPYmVBVKKjesI9VPbiOValaTQ79tkCMbCv9WaUhbTIxUOz5eqp3YQgoOH5Ujm7bJ4f/bInLsWECPrdklSWqd3V6q/qOZHNt7QA6t2CB7P/tR8rb7d+RRnV5dJK7f2cYzD67YINuf/TCg59vd2TNMMmXOT6JfTmiESpywS8wRAQQQQACB4AT2zntL9n4+Sw7+sjiogWqcdo7Uvvgqqd3r+qDG4WYEEEAAAQQQQAABBBCITAECJZG5r6wKAQQQQACByBGYlyKSleGs9VClRHov7C3xPeONfSNQUvLrGxtXS5qMHSTVT0wUiYlx71xQIPk798rWx96VQ8vX2fpzUC0pUZr8+1qp3LR+sXEL8o/J4ZUbJGfSbDmavbPk58bESPzEW6XGKcd7HWf78x/L3k9/LHmMSpWk9ZwxElOtitFvz+xvZceU+bauN9DBrIESJ4VJXOskVBLojtMfAQQQQAABZwgc3bRG9ryfLns+eM3WCcf1HyxxA1KlSou2to7LYAgggAACCCCAAAIIIOBsAQIlzt4/Zo8AAggggEDkCmRniGhlEqeFSXRHqFIikX7sjV0VSrQiR/0hl0lMbKVSf5YPfP+H/D1qRqn9/OnQ5OHrpFaPk0vvWlAgO16eJ3s++s5n34SnUo2qKiW1rePekv2LVvjsUv/WS6Tu1T2M6wVH8mR970cCrpBS+mL87+HEo268re70ds0kfcTl/i+cnggggAACCCAQ1gKHVvwou9983jjiJhRNj8CpO/Auqd7xjFAM73XMvLw8WbZsmaxevVp27Nghu3fvlho1aki9evWkadOm0rlzZ+OfFd2ysrLk66+/luzsbDlw4IA0bNjQnF+LFi0qeno8X6scHjwoW7ZsscUiLi5OGjVqZMtY5TWIvpv79+83Hle7dm1p0qRJeT2a5yCAAAIIIIBAhAsQKInwDWZ5CCCAAAIIOFJAwyRzUxw5dXPSyWkiyaONb7MzsmVuylxnryfA2VsDJXprTPrSAEcI7+52BEq0Qkiz5+8sVpVEq4NI/jGJqVq5GIIGO3a8FNy7VG/QBVJv4HnFxtYgh1SKkZjKscWubU17Q/Z/t7LY51USG0nitOHm50c358jWsW9KlWYNpfHIa8016BE4G64Y63VTY6pUllZaneR/z9315leya8aXFfoCtPnycfP5TqxO4ok3dURfSW6XUKGmPBwBBBBAAAEEghPQMMnOKeODPuKmtFnoETj1h/w75KGSXbt2yQsvvCCzZ882fwnua25JSUkydOhQueSSSyTGs6JfaQuy4fqsWbPkoYce8jrS008/LZdfXhjgLSgokM8++0w6duwoiYmJNjyZIQIRUPt//vOfgdzis+9ll10mzz//vC1jldcgffr0kZUrC/8/21lnnSVvvvlmeT2a5yCAAAIIIIBAhAsQKInwDWZ5CCCAAAIIOE5Aq5Jkpjlu2l4nnFpgfpw5JlMy0zIjY11+riKSj72xI1DS6qPRUum4GqbmsYNHZNv4t+XAD6uMz2Lr15b4CbdI1TaFRwcZraBAttz1khxetdnPXXDvZoRYXhjq9uHhNVmyddTrkrc91/hc+zQdO0hi6x1X9NjDR2V9r1HFntn00ZukZpekwqnl5cv6y0aZlUVqdj5Bmj52i3mPr1BKw7v6Sp3eZxaOceiIrO8z2lhnRbVIqU7i6ccROBX1RvFcBBBAAAEEghfQY252TE4LWWUSzxlqpZIGQ9NCdvzNd999J3fccUepQRLPeXXp0kVefvll0eoR5dV++eUXGTBggM/HzZkzR9q3by9r1qyRtLQ0Wbp0qUyfPl26d+9eXlPkOf8TIFBCoIQfBgQQQAABBBAIjQCBktC4MioCCCCAAAIIlEUgksIkuv4oP/rGGigZk/mXpGWWLQRRllcp1PcEGyip2rKxNH/1XnOaWpVk88DHzVCHdf6Jr90rVVo0Nj/So2P0CJmytKbjb5aaZ7Qzbz2yLlv+GvJcsaG0OkqrDx6RmOpVzWs5T82WvZ//7NY3ceb9UiW+vvHZwV/XSvaIqW7XW88da46x++2vZef0L9yuV6pRVVp+lGYe+bNz6qeye9aisizNtnsirTqJFYZQiW2vCQMhgAACCCBQrgLbn7pf9nzwWrk+M67/YGk4fKLtz1yxYoX07dvX57itW7eW3Nxc4/gbby05OVlmzJhhHItTHs1a9cH1PA22VKpUSXJycuSjjz6STZs2iVa0cDUCJeWxM8WfQaCEQEnFvHk8FQEEEEAAgcgXIFAS+XvMChFAAAEEEHCGwLwUkawMZ8w1kFn2XigS39O4I9qOvrEee5ORnSspc4sfmRIIZTj1DTZQ4lkFY+8XmZLz5Ptel1ileUNJnH6fee1o1g7ZPOjJMnG0nv9o0VE6BQWyccCjkr+n8Jxtz1bvhvNF5+lq+79ZLlsffdutW6s5Y0VDIdo0bKKhE2tr8c5IqdywjvHR/iW/y9bRM92uN37gKjnu/NOMz44dOCwbLi88JqqimnVfIuGoG2+OhEoq6u3iuQgggAACCJRNYO+8t2TbY3eV7eYg72o88nmp3ev6IEdxv71fv36yfPly88MGDRoY1Ur087p165qfHz161Oj34osvyqJF7oHje+65R4YNG2brvLwNduzYMfnHP/5hXqpVq5Z8+eWX0qRJE7funlVMXn/9denWrVvI58cD3AU8AyXXXHONeRxRoFaNGzeWVq1aBXpbhfa/6667zJ8tPfJmwoQJFTofHo4AAggggAACkSNAoCRy9pKVIIAAAggg4EyB7AwRrUwSiWES3ZEor1KSWpBqvpcx6Uud+Y56mXWwgZImo66XWt07miPvmrlAdr2xwKdPmy8miPzvvPgCH8fPlIZbuWl9aTFzhDlOXs4e2XSd7//IWPPME6XpuEHmsHrMzpZhk90eYw2UaGURrTBibYkzRkiVhAbGR4d+3yRZd79kXtbjflp9+Ig5n+3Pfyy5c78vbRkhu+4Z8onUQIkCnt6umaSPuDxklgyMAAIIIIAAAvYI5O/eIVsfvkUO/rLYngEDHKXGaedIk0enSWzdwn+fC7b9/PPPcvXVV5vDaJhk7ty5xQIans95+umnZfLkon8P1WCHHi2j/wxlO3DggHTsWPTv7DfeeKOMHl08AE2gJJS74P/YnoES3SvdMxoCCCCAAAIIIIBAcAIESoLz424EEEAAAQQQCEZAwyRzU4IZwRn3RnGVEuuxNynzVkpGVq4z9qyUWQYbKGmQeqnEDSg6V33vZz9JztMfeH2qEbz4qOg/XOfnHpCN/ceW2bFKYiOpcdo/JO/vnXLgh1U+x6l304VS7/pzzesHvv9D/h41w61/y1kPS2y944zP9v7nZ8mZ5F6hxHp938L/yrbH3jHvb5J2g9Q6u73xfbBrKjOG5caESalSvVMb45NIDpNYraaO6CvJ7RLs4GMMBBBAAAEEEAiBQO6H0yRn0ogQjOz/kI3ue1LqXHGL/zeU0HPmzJkyZswYs8ezzz4rvXv3LnXs/Px8ufbaayUzM9PsWx5VQPbs2SOnnVZYTU/biBEj5Pbbby82XwIlpW5huXQgUFIuzDwEAQQQQAABBKJQgEBJFG46S0YAAQQQQCAsBLQqSWZaWEwl5JOI4iol1kBJJB17E2ygpOYZ7aTp+JvNV6/gaJ5svHKcceyLZ9MqIVotxNW8VQqx+x2OqVJZWrz1oBkW0fF3TJkve2Z/6/ao5lPulqpt4o3Pis0rJkZaf/qoxFSONa7vnPYf2f3OQuPPsfVrS8t3R5rVSbY9MUv2LfjF7mX4PZ5ndZLTbi2qpOL3IA7tyBE4Dt04po0AAgggEBUC2f8aIAd++LpC11qzy7kS/4z3oxkDndj48eNl2rRp5m3z58+XpKQkv4Z54403JC2t6P8/jho1Sm666aYS79UgSnZ2tqxfv974qly5snGEjX5Zj9fxHGT//v2iR+7s3r1bzjvvPPOyHikyaFBhBb+YmBipXr26HDx40Ai6pKYWVWZ87rnn5JxzzjH6aRUVrXRSUFBgfF+1alWpWbOmz3nn5uaKHrWjrVKlSlKnTuHxkd6aPvvw4cL//6BrO+64wqC3t7Zt2zbZtGmT4bBr1y6pXbu2xMXFSfv27aVly5YlOro8tJPeFxsba6zpu+++M8bU+zt37myM56tpOGfNmjWyevVq0X1p166dnHDCCSXug18vhqVTqAMluuYjR44YT3Q56J91v9atWycrVqwQXaeuTd/revXqBbSE7du3yx9//CFbtmwx3quTTjpJOnToYFbi0XdS98LXe2Sdn7f3LNTz13kdOnTIsNB93rlzp7Rt29bY56ZNmxo/M4G2YMbTe/VLm/6s6pe+exoA++9//2vMqVOnTpKYmBjotOiPAAIIIIBA1AkQKIm6LWfBCCCAAAIIhIFANIVJXNzJaSLJRVUm0mPSw2AjQj+FhJ4J0mthL+NBBErcvVvOHiWxcUVluvN35Er2A6/KkY3bCjtWqiSNhveX2hcmu92Y9a9X5NBvG0K2eVXi60vTxwebR9XogzTwsv6yUSL/+w/hroc3GjGgaH4FBbJxwKOSv6fwP3LGXXGONLijcO+16XE5GjrRFj/hFqlx+gnGn/N37pWNV48P2Xr8GbjNl4+b3aKlOonVhVCJP28JfRBAAAEEEChfgYPLlkjWP/sU+/ev8p2FkZyQhBfnSI1Tuwb96BdffFGeeeYZc5yJEydK//79/Rp348aN8thjj0n9+jTccIQAACAASURBVPWNX9RrYKNrV+9z0vCGhlXGjh0rO3bs8Dq+/hJ53Lhx0q1bt2LXe/bsKZs3F/57a0lt4MCB8uabb5bY54EHHpAnnnjC7NOjRw+3UI315ry8PCOMYG0aMNBwgLd2yy23yDfffGNc0mDInDlz3LrpL/VfeuklWbhwoRlE8DaO3jthwgRjDG/t/PPPN4Io2vT4IW333ntvsa7qff3117t9rkcTafjHdb/nTa1btxYNGnXp0qU07lKvhzpQctlll8mqVYUVHtXr8ssvN94xPbbJFfSwTlI9tQpPmzaFVRB9NQ2Q6D69++67Xrt0795dJk2aJO+//748+eSTRp+TTz5ZPvroI7f+/fr1k+XLlxuf6c/HjBnu1SVDNX99nv68PPzww7J4sffjuTRYpT8L1113nV/BEjvG02pIWhVJ2zXXXCM33HCDcQSS5/8mXHHFFaZrqS8ZHRBAAAEEEIhSAQIlUbrxLBsBBBBAAIEKE4jGMIkL23L0TeaYTMlMKyrZXGH7UQ4PTi0o+tt6kXLsTbAVSpS96vEJ0uzFoWYFD9dWHNt3UAoOH5VKcbWKXdv7RabkPGnP3xC1bn39wReLHoVTtWUTqdK8odtbUXAkzwi6eAuxGMfxfPiIWWmk4NAR2f3+IqncME5qX3y6+fmR9X/LX6nPGuNWblpfWswcYV7bOuZN2b/4t3J4E70/Ipqrk1hFCJVU2CvIgxFAAAEEEPAqsPudl2THC6PCQqfBsHFS99o7g57Lp59+KsOGDTPH0V8yv/baa0Z1C7va33//LVpJxHo8Tklj6y+4H3zwQbMKhPa1M1CiY2uowhX80PF/++03qVGjRrFpeR6dox1mzZolycnuAXP9XAMMGipwtTvuuEPuu+8+83sNG1i/98dXK8DoL909m9VDvd5++22vw/373/8WDblo08opGh6aOnWqP482jhK6++67fYZn/BmkPAMluq8anvAVoLDONz093a3SjfWaBlS8hRw816vVNLRayYIFC4xL3gJEffr0kZUrVxrXzzrrrGJhJ2ugxK7567M++OADuf/++/3ZIklJSTHCOI0aNfLZ367xRo8ebRpoKGrZsmVeA2ZahUj3iIYAAggggAACvgUIlPB2IIAAAggggED5CURzmESVo/ToG+uxNwRK3H/ctBpIkzE3StXWTUv+OSwokOwHX5ODv6yx/+c1JkbafDHB67hamWTTtRPMqiPeOjW4vZfE9S8s6e19kALZPPhpObo5x7ic8PQQqd6xtfHnvK27ZNPAor+xaf/iSh8x2quTWIUIlZT+vtADAQQQQACB8hLYNm6o7P3Me8WC8pqD6zm1L7lGGo+aHPRj9fiJM844o1g1B62moFUCzjzzTGnSpEmZn6NHj9x8883Ffsmv1UhOP/1047gSDZpo6MTaPKuGDB8+3Ki4oPN1/YJe+zdo0EBatWpl3nrJJZeIhhj0OBlrRRN9XuPGjY1+eiyPHoOi1RtcTasmnH322cXWOXnyZLMCiOuiVgIZOnRosb5fffWV2zE7s2fPllNPPdXot3btWrnwwgvd7tHwjv7ivGHDhrJv3z6jj7fQjf7S3fOYHX8DNkuWLDH3T4NDGiCyNj3+RI8Y0abhGc+qJRpW0aoxZW3lGSjxnKNWWmnWrJkRWvCsVqLvjdrosUTWpu+NBh08+2uASI9l0gozOp63FmygxI756xhvvfWWPPLII27D6Xq14oxWE9KfH881qNXnn39ezMPu8ayBkpLeKf25u/jii8v62nEfAggggAACUSFAoCQqtplFIoAAAgggEAYC0R4mcW2BpUpJdka2zE2ZGwabE9opROKxN3ZUKKlUq7o0SbtBanRqY1brKGkn8nL2yNaxb5rHxti1a1qZJHHacJ/DHTtwWHKemi37F63w2cc43ub2y4qtQ4+z0SN6jmYVlhqv2rKxNH+1qDy2EZLJ/NN93JgYqdwoTvK27bZriT7HsVYnicajbrzBECoJ+WvHAxBAAAEEEPBL4K/B58vhP7z/MtmvAWzsVO3EU6X5a4WVEYJt+otkbwEJ17hJSUmiAQ/9hbQGJDzDDSU9X4+f0V8iu5qGKPSIFv2lvbW98847bgEPvebtl8oaBDnttNPMW0eOHCmDBw8uNgXPyiKvv/6621E6WVlZbt8PGTLEa0WHq666qljIQx28VQTRY2Rcn+sv8LUKSmxsrDE361Ef+r3OWYMp1atXd5v7ihUr5F//+pdbsMNblRJvgRKtjjJgwABjf7T6SkxMjOgRRtq+//57t6NvdB80KKJHxFjb119/Lffcc49boEKPjznppJPK9Jp5Bkr0+J2+ffsGPJZ6tmzZsth91gofrotaCUTNNCyjLT8/3zhiSPfY2vRIm4suusjtsxEjRsiHH35ofqZBi1deecUcSy/8+eefotVnPMM3dgVKgpn/rl27jJ9VayBGf7b1q1q1aua61q1bZ4SfrGvw9p7ZPZ63QInurVaE0f+d+fHHH+Wnn34yjhqyzjfgF4YbEEAAAQQQiAIBAiVRsMksEQEEEEAAgQoXmJcikpVR4dMIiwlEYZUSAiXF37zYOjWl+fT7RP9pbfm5B+Topm3GkTd69EzlJvXcrhfkH5PsEVPl0IrCM8ztaPqchKeGGAGOY4ePStXERhJbv3axobe/8Inkzlnq85ExVStLzdNPkOqnthUNkhxY+rsc2bDVrX+zl4ZJtX80Mz47+td22XzzJPO6Vjmpe01PiY2rVRhMKSiQ/N37ZcdLc2RfRuFZ4HY2z6NuUp/8RH5evcXORzh2rNPbNZP0Ee7/wd+xi2HiCCCAAAIIOFRgY9+OkrctKyxmX7lxgrT82He4ONBJajWNBx54wK/bNLhw6aWXilYDad68uc97tEKIBh+s7csvv5Q2bdp4vUcDGAMHDjSv6S+aNQig4QdXsytQouNZjyPR8MF//vMft3l5Pst6UYMfNWsW/f8GrcSi1Vx27CgMbWtwYuzYscafPcfR44Q0eFKpUiWvDlqlRIMsruatSohnoESPX1Fb65xc92ugQvdrzZqiyorvvfeeUSHGW9PAhLU6hM5XAz8aUAm0eQZKAr3f1V8DSFOmTCl2u2egpKRKGxpS0COAfLlu2LDB7Rgcff/0OBtvAaq9e/cafV37rWPaESgJZv46B8/gkh6xpOEXb02r4mi4xxUq0Z8zDSLVq1f0/3ftHs9boGTevHly4oknlvXV4D4EEEAAAQSiVoBASdRuPQtHAAEEEECgnAQIkxSHjsIqJakFqaZDJBx7E2yFkvgnbpUapxX+LTajFRTIzlc/k92zFrm9L9WSEqXpozcVhixcXY/myfpej4gcOxayH+LqHVpJ03GDpNJxRWe7a5hl4xVjRCuWlKVVO6G5NJv8T/PWrHtelkMrNxrfNxoxQGpfWPxseFfnfQt+kW1PzCrLY33ew1E3JXMSKrH1dWMwBBBAAAEEAhZY262xljsI+L6Q3BAbK8d/u83WoTdu3CjPPvuszJkzx+9x+/fvb1T20GNbPJtnSOWWW25x+4W+t4foL7+/+OIL85JnlRI7AyWex9lYj4fRCWiYwLOqhWtinkfk/Pbbb27VPqZPny7du3c3uv/3v/+VJ554wgh0aADh+eefFw1C+Gp5eXnSrl0787IGX5555hm37p6BkmnTphmVKbw1DQmovasNGjSo2JEonvc9+uijomtwNT0qxzonf1+Q8g6U+Dq6SOd78OBB6dChgzl1PYLo5ZdfNr9Xw/Hjx5vfawUXDfP4au+//748+OCD5mU7AiXBzD83N9c8YkknpRU/9GfZVSXH2zr0Z80aONEQlIahtNk9no7pGSjxVRnI3/eLfggggAACCESzAIGSaN591o4AAggggECoBQiT+BZOLTCvZY7JlMy0zFDvRoWO33thb4nvGW/MIdoDJXqcS4u3HnQ7HkbDEhqa8NYq1agqLWc/IloBxNV2v7NQdk5z/1uNdm+whlhavDtSYioXls7Wtvfzn43jb8rS9KgbPfJG25H1f8tfqc8af67esbUkPF1UErogL1/yt++R2AZ1JKZK0Zq1MsvBX9eW5dHF7vGsTnLarS/ZMm6kDUKoJNJ2lPUggAACCDhJINIDJa692Llzp+jRJ4sWLZKMjAy34zO87ZdWNnjjjTekU6dObpc1RJGenm5+pseuNGrUqMQt9wxmDB8+XO68807zHjsDJb///rv07t3bHHvSpEnSr18/83trdQatnKIBk7///tu4rkeI6JE1ruYZTtGxvR3ZoaGGqlWrlvhL/q1bt8oFF1xgumt1kRdeeMHNzTNQokeFaEUNb02P+9FwhKtpdRQ9tqekpuGaG264weyix77onAJt5R0oWbVqlVSpUsXnNM8++2xzD1NSUuTVV181++oea5UcV/vjjz+MvfLVNPijxy+5jpexI1ASzPxXrlxpVN1xNT26aNiwYSVumWfIxhr6sns8nYhnoEQDPRrsoSGAAAIIIIBA4AIESgI34w4EEEAAAQQQ8EeAMEnJSslpIslF53unxxT9x09/eJ3WJ9KOvQmmQklcv7OlwZ1F/zHZGq7wta/HnX+aNH6gqBT10awdsnnQkyF/DeoNukDqDTzPfI7nMTX+TqD6yW0k4amiKjVb7nheDq8pLOGe+Nq9UqVFYdCk4NAR2XTjRMnftc84DihxxgizSkpezh7ZdN0Efx9ZYj+qk/jPSKjEfyt6IoAAAgggYKdAJB9548tJj0vRcIQGFvSX7XoEjbemoRKthtCqVSvz8q233mr21+vLl5d+ZKLnL7g14KFBD1ezM1BSUFBgBCtcx5bo8R9PPfWU+SxraEMDIxqy+eCDD4zreuzPRx99ZPa1Hp/Tq1cvee6550p99XStW7ZsEa0Mo8eO6NcPP/xgHkHiGsCfQMnatb5D3p7Hltx4440SFxdX4vxycnJEj4hxNa3Ecdttt5W6Js8OnoGSwYMHy4ABAwIeR4+dadKkSbH7rEfeaKBG39OS2kUXXWQe/aMVZKxVWKxhE29HIHkbV48m0iOKtAUbKAl2/lpFxhogSU5Olq5du5ZqbQ0raZUbrdSize7xdEzPQAnH3ZS6PXRAAAEEEEDApwCBEl4OBBBAAAEEELBXIDtDZG6KvWNG6mhRdPSNNVCi2xmTXvS3sZy4vcEEShrd219qX9LZXPae9xfJjvRPS2aoVEna/Ocxs8+xg0dkQ59HQk6nFUW0soir6XE3Gy4vCkL5OwENhlRJKPxbjIdXbZYtwyabt7b5YoJZrcXTIm5Ad2mQemlh34ICWXfhQ/4+0mc/qpMETkioJHAz7kAAAQQQQCBYgb8Gny+H/1gW7DC23F/txFOl+WsLbBkrkEE0BLF48WKZMmWKLFvmbuEZ/rD+gv7UU08VPQLHn3bGGWeYIQ/PX9LbGSjRuegRHzNmzDCmpaEXXZMeEbJ582bRQImr/fTTT6JHx9x3333mZ7/88osRzNCKItZf3Jd0pM2ff/4peqzJt99+azzDn1ZaoMQz3OI5ph5xo3sWTLvmmmvcjoPxdyzPQIkGCjTQYlezBko0QDFrVslHclr7WwMlGi7SEImrnXfeeW7VdXzNV98HV7Ao2EBJMPPX+Wm1D2v4qizGTZs2le+++8641e7xdEzPQIkeB3XccceVZarcgwACCCCAQNQLECiJ+lcAAAQQQAABBGwUIEwSGGZCT5FeRX/rbl7KPMnKKKzaEIktko69CSZQ0mTMjVKr60nmFu96Y4Hsmln6f6Bv/emj5hEwBfnHZP3FIwN6TTTQUfvi06VKyyZSpWk92f7iHDm0Yn2JY+hxO63mjDX7FBzJk/WXPRzQc2t2SZKmj95k3rP5lqfk6OYc4/vKDetIi3eK1rHlzhfk8J9bzL6e17Uqi1ZnKWur0amNxE8qqpQyZc5Pol+00gU0VDKkT2dJbpdQemd6IIAAAggggEDQAtvGDZW9nxVVbQh6wCAGqH3JNdJ4VFEgOIihynyrhkomTpzodr8rZKEfHn/88ea1s846S958802/nmWtIpGYmGgcu+NqdgdK9Jfn1oDDJ598Ih06dDCCCQ89VBicTkpKkvnz5xvVRDSE4Gp6XIoem6JVS+6//37zc6uB68MjR44YYRQdp7SmlSpcVVO0b2mBEj0yRH/576t5Ho9T2vO9Xfc8HsbfMcozUGKtruFrfr4CJbo/J554onmbv+u1BiSCDZQEM3+d+KhRo0SPMwq2uard2D2ezsszUFJSZZ1g18H9CCCAAAIIRLoAgZJI32HWhwACCCCAQHkKZI4RyUwrzyc6/1lRVKXEGigZk/mXpGX697fkwnGTgwmU1Lv+XKl3U9HZzQd++j/5e2RhqV9fLaZyrLT+bLx5+djeA7LhiqKghz9G+kx9tqsd+HG1/P3v6SXeWuvs9tIkreg887IctaOBEQ2GaDu0fJ1kDS863qn6SS0k4bmic+o39Bsjx/YddJuT9XiabePfln0ZpZcv97Uoa3USwiT+vDXF+0wd0ZdQSdnouAsBBBBAAIGABHa/85LseGFUQPeEqnODYeOk7rVF/85WlufocRNaLWPbtm1GtQwNO2h4IpB2/vnnux3R8vHHH0vHjh2NIawVSkqromF9pvbdv3+/8ZFnZRO7AyWeQQINhgwZMkTuuusuM/yh37sCI9Zwhh7po6GToUOHyueff27M1/MYFf1Mjw3SMIkeCeStaWUKDSO0a9fO+Kd+nXLKKaZBsIES67Es+vyHHw4sjK73aLBH9zrQ5pRAia7LWhnH34o6qamp8tVXXxksFR0o0WOWtDqOq2llGt23QJpW53EFrOweT+dBoCSQ3aAvAggggAACJQsQKOENQQABBBBAAAF7BQiVBOYZRVVKrMfeZGTnSsrclYFZhVHvYAIl1ZISpdkLQ83VaIBCgxQltbh+Z0uDO3ubXbSySNa9UwISqZLYSBKnDTfvMaqN9BplHCXjqyU8e4dUb9/SvLxvwS+y7YmSSztbxzoupZM0Hnlt4UcFBbLphomSt3WX2cXTYkPfNDm2/1DREB5H/Wwd+6bs//a3gNbt6sxRN2Vi83oToRL7LBkJAQQQQAABXwIHly2RrH/2KfHf1cpFLyZGEl6cIzVO7RrU4zRMMmZM0b/z3n333UaQIpCmR2xYq2O4qnboGDfffLMsWrTIGE6Pk1m+vPQQ8r59+6RTp07mFDTEoJVQXM3uQImOq+vWcI22zp07y1tvvWUEWVyhltdff126detmXFcvddOmR6RoRRMNErja+PHjRY+HsTbPUIVeu/3220WPCGrdurVxxI61eR6/cvHFF8vkye7VaKzBltIqlGjoxXoUjLcKKoHseSB9nRQoGThwoCxdWngMrFaJ+fHHH0tdqrWaTkUHSjTMNXx40f+3tP4slroQLx3sHk8fQaCkLDvBPQgggAACCHgXIFDCm4EAAggggAACQQkcXPadHPrlO6k3uKjsrhAqCcw0OU0kebRxT3ZGtsxNmRvY/Q7qnVpQdNxITHrhf0BzYgsmUKLrbfPFBJGYGHPpB39dK9kjpnqliI2rJS3eHSlapcTVdr3+hex662u3/sb1SkVjamDEs7WeN05iqlUxP96/aIVsHfeW1+fWvjBZGo0Y4HZNK6loRRV/W8v3H5bYuoXnVB/8+f8k+yH3SiwxVStL6/mPmsNtGTZZDq8qqlyjx/QkzhhhXt907WOStz3X38e79bNWOqE6SZkI3W4iVBK8ISMggAACCCBQmkD2vwbIgR/c/52vtHvsvl6zy7kS/8z7QQ+rYQ8Nfbia5/Ey/jxAK2989NFHZlfXkTH6wdixY2XGjBnmNX1es2bNShxWf4l/7bX/Cz+LGNUS9JfQrhaKQImGSTRU4mrvvPOO2xxWrFghNWvWNC4vWLDAqGDianrkj/W4myVLlkiTJk3c1uj5S3RvoRPrDVlZWWaART/3FhgJJFAydepUefzxx81H6LEoXbp0KXEf9u7dK4sXL5a6detKfHy8NG3aVKpXr+7PK+HWx0mBEs990rmfcMIJPtecnZ0t55xzjnm9ogMly5YtkyuvvNKczz333CPDhg0rdc/0na7y/+zdCXgT1frH8bcUkEVEFoHWiwqiVeSPQEUEEVpRQWwRFHEDF8CyCuoVV5TWDRAQl8tWFNzBFaVV8CK0yKZCwCtWQUFEoGUREZCdtv/nTM10kiZN0kySSfKd5+lzbXPmnDOfM/Xxys/3rVJFO2N11qedVlLJ0uz51JwESjweBwMQQAABBBDwWoBAiddUDEQAAQQQQAABZwEVJskf1kP7cd0BDxMq8ecVSSutEmHLsIkt3ebPbJa919j2Jjk7T3LzKxYOCPUD+hsoqdO3i9S582qHx1Chkj2TPpKTO//Uf64qfJzx4E2ighf2q/DAYdl60zMiRUUO95/94ROiwif2a8+kD+XgwjUOY+oOvFZOv7mzw88OLf1eqzpSfOKfAEpMjJzxYG9RgRLjdfSH3yT//ule05923aVS/74bSsYXF8vWW56Twj8PlrlftfKxh2UOLlgte174SB9Tb3CK1L7xn39xWlwsv15T0lve14vqJL6KeTeeUIl3ToxCAAEEEECgogIHPp4leyaWhmsrOo8/953x4AQ57Yb+/kyh3esczlA/UwGJG2+80au5nauJqJvUH0Lb/0D6rbfekvT00varqnKHClOUdxmrRKhxmZmZ0qVLF/2WigZKZs2aJZ07O/4zt33Sv/76S1TbGful/tpmK/n/fqpiydy5c/XPnMcan8VdWx/ntkDGgIorC+cAiHp+5WC8fAmUOIdgVAjCGPRxtYepU6fKpEmT9I9UW58HHnjAq/fCOCicAiWLFi3SKsfYr+uuu86hhYzzwz/55JNaNRv7FepAyb59++SSSy7R96OqAqkQlwoFubvWrFkjN998s/6xsdWP2fOpRQiU+PwrxA0IIIAAAgi4FSBQwsuBAAIIIIAAAhUW2NyhnsO9hEoqTCliqFKiZslOzpb83Hw/JrTmrYnpiZI4puRfoIZz2xt/AyXq+Ru/9oBUOatBmYMqPnZCVGhEhUOMQRJtYHGxbB/yihzfXPbdOOfjJ6VSrZL/mlFdf7w0Tw5kf1Nm/n9NHyFVz413+HlxYZEU7vtbYirFSGydUx2qp6iBRUeOy9abnha1N2+vc+aNkUqnVteGH1qRJ7vS33J5q7GtTvHJQskfMVWO/bJDqp7dQM6cNkJiqpSEaY5typcdQ0r7dHu7DzWO6iS+aPk2llCJb16MRgABBBBAwBeBwr/2yq7R/eXI2uW+3Gba2OptOkrDZ2ZJ7OmO/7+voguMHz++TFhBVdy466675JRTTnE7bV5enlbVY8uWLfqYHj16yOTJk/XvVfiiU6dOeusY9YGxgonz5M7BB/W5WsdYGcPbQMmPP/4oqaml7SlfeuklSUlJcfs8zkEW+0AVolBhCuOlWtW4at/z8MMPS1paafVH+z3KRT2H/Vq9erXUrVvX5V4WLlxYZj1XARBfAiXHjh0T1Zpl27bSqoMqLNKzZ0+Xe/jtt99E7dne8kcNysnJkbPOOsvn1yycAiVFRUWaifGsVEsndd7O1xdffCFDhw51+HGoAyVqM84Vg/r06SPPPfecxBgqcdo3feTIEbntttsc3mXn5zV7PgIlPv8KcQMCCCCAAAJuBQiU8HIggAACCCCAQIUEVD/vI2tXlLmXUEmFOEtuSs0RiUvS/jJSW9/EJ8VLSk7Jv1yN9kCJCow0GjdATmnmGO5w9wapFjZ7Jrwvf+e67gfvbaCkUo1T5F8zRkrlRq7/xbLz+qpiSsFjs+XEtj1ev9y1e18h9QZdVzJeVSfp/bQWknF1VW5YR85666HSEEtxsRQdOiqValZz+Nm2uybKify9Xu/BPtBYncS2MV/umfCJz3NwQ/kChEp4QxBAAAEEEAicwMHsd2T3cyMCt0A5Mzd47GWplXK7aWvv2bNHVCWGvXsd/5lOtb9QYZDmzZtrX6pVjWrxsXnzZu0P3N98880ye/j8888lISHB4efvvfeePPbYYw4/U1VQbrjhBv0PuQsLC0VV5ZgwYYLDOBVsMbaXUR96Gyj59ddf5eqrS6sPXnDBBfL000+LqtqgWtI4V21Qz5ORkVHmmT744ANp06aNw89ffPFFeeWVV8qMVSGDZs2alfn5E088IarNjP1SLWxUoMPeRkf9XP3hvgrUqDYlzperyie+BErUfCoQMnDgQIephwwZIiNGjJCqVavqP1cVK1RQaOfOnfrPVIWVGTNmVOidcw6UJCcnu60U480CKhjToEHpfwCg3t0NGzZot6oKNKoSTXmXcbx6v2fPnu0wfOnSpdK/v2P1n5tuukkLJ5199tmyfft2Uc/09ttvl1nGCoGSXbt2SYcOHRz2pircqMpAZ5xxhv5zFS4aPXq01tbIfqnfDRV2MgbJzJ6PQIk3bzljEEAAAQQQ8E6AQIl3ToxCAAEEEEAAAYOAuzCJfQihkgq+LvFJIik5+s2RWqUkrbj0v6QL17Y3ZlQosR/0qV1aS/2RvaRS9dJ/uerwBhUXy6GVP8ru5+aICpW4u87+YLTEnn6q/vEfL38iB7K+djv+tOs7SL207mWroPxzh2qBs++NRfLXe0t9e6FjYqTJ/AyJqVbyPH8vXie7x71X7hyn9+kkqh2PuPiv2VQgZe+0bNk/r2yAzdPGnFvdzJi/WtQXl7kClyScKZmjrjd3UmZDAAEEEEAAgdJ/rpv0kOz/6LWgitS+cYDU//fzpq+p/kBeVTIwVqTwdREVsOjevXuZ21RYRFV4MFZ9UIPUH16r9hzqc9Umx3nt9u3ba21ZYmNjHeb0NlCiAhotWrRw+Rh33HGH1nrDeG3dulWuvPLKMuOVTZUqVRx+/s0332iVHYxX48aNJTc31+V6rsbXq1dPunXrpjmo9jr2FjuuJlBj1q5dK5Url7bc9DVQouZV1VMWL15cZol27dppYYNNtj7F/AAAIABJREFUmzbp4Qz7IBUs+vjjj7UQTkUu50BJReYw3qOCHOrdsF9mB0rUvOPGjdMCTr5eroI/xuo0at/OQZRA7F+FZJ555pky21eBl3PPPVdUSES9k86XCj2pd8H5MnM+AiW+vlWMRwABBBBAwL0AgRLeDgQQQAABBBDwScBTmMQ+GaESn1hLB0dBlZLUnFSJS4rTnplASenRq/Yw1S9uKqc0P1tia1WXYz9vl6Prt8jxrbu9fpmqt2kmceNL/mvA/AdmaPd7uqr8q37JugmNRbW+OfrDb3Jk3SYp/POgp1tdfn5qUktp8Nit2mdqvq03PiVFh495nOuU8/8l9e/rJVX+dYZUqlZFa7Nz4vfdsmfiBz4ZGBcyBkoIk3g8Ar8GECrxi4+bEUAAAQQQKFfgxO+bZO+UdDm0bEFQpGpeca3UG5YuVc4qWwHDjA38/PPPWsWC8oINrtZRwQjVUkNVsXB3HThwQBujqn14c6mKEOoPnqtXL2nVaLy8DZSoe5wrg9jnUX9obqwYYv+5qn6hQhX2S1V2yMzMLLOHo0ePivrDeeOlqn2o9iDuLlWRZOrUqd48vhZWadKkiVZVwn6pyhuqAof9qkigRO1bBX+mT5/u1T7U2aozU5U5KnqFY6BEPeu8efPKPU81Rr3TqrKNvUKKq9ZEoQiUqL198skn8uSTT3odElMVaMr7HTZrPgIlFf1N4j4EEEAAAQTKChAo4a1AAAEEEEAAAa8F9r32vPz52nivxxMq8ZqqdGAUVCmJhLY3ZlYoqcBb4vaWesN6SO2eHbQ2M792fUz732i9nKuTtBno3b9Uj1YvM56bUIkZisyBAAIIIICAa4Gj67+VP2c8K0fWlraNCIRV9TYdpe6gx6Xa/10aiOn1OYuKimThwoVaSw/Vvqa8S7V26dmzp/Tt21dq1arl1b5U25WJEyeWqYJhv1kFJvr16yeqLYq76+DBg9KqVSv9Y/UH1KriiKtLVT9RlRo+++wzh5Y+Kijx7bfflrnFuZVNeXPffffd8tVXX+lzfPjhh9K6detyHVRLG7Uf1W7E1aUCLCqYouZxrpii2rA8/vjj+m3G8IuqcvHyyy97dQZq0HfffaeFIdyFh5TP0KFD5eabb3YZ6vF6IRGtjY9z2yJf7nceq1ooqco29ktVv/n++5L2o+4CQMY5fBmvQlbqjNX8ykq1AVJhpMTERLn22mu1VlAqhLFlS8l/MKAq9Di3QlKVf+zOrlry+LIftYYv41UlEhVKUpVz3FUfUu+VaoXkTQUaM+ZT77+9zZCqvGM/O3/eCe5FAAEEEEAgWgUIlETryfPcCCCAAAII+Cjga5jEPj2hEh+h1fDEdJHEkrLIBbkFkpWcVYFJrHuLMVCidhmTucq6m3WzMysGSqq3Olcaje0vMZVjteoiW28u/a8Mww7YhA03XTROn4XqJCaAejnFoB5tRX1xIYAAAggggID5AipU8tfbLwesUomqTHJ63xEBD5M4y5w4cUI2b94s+/bt075UlREVHKlfv77Ex8eLavFS0evYsWPaH8Kr+YuLiyUuLk7OOussre1KoC71h+HqS+2/QYMGDu1jArWmq3lVyCU/P1+2b9+uBRTq1q0rKpyjTGNctZoM4ObUXtQ+VFUWdb5qD/Yv51ZDAdxGWE+t2tzYwxoqPDJ27FhLPo9699XvW0FBgfZ7duaZZ2pn7aoKkDcPYPZ83qzJGAQQQAABBBBwFCBQwhuBAAIIIIAAAh4FKhomsU9MqMQjcdkBhtY3tgyb2NJtFZjEurekFafpmwvHtjdWDJQ0WficxMRW0lz3vfWl7HvzS+u+AAHeGdVJAgzsYXpCJaH1Z3UEEEAAgcgWUO1v9n+QKfs/es3UB6194wCpfVNawNrcmLpZJkMgzAWWLl2qVRhRAR/VcuiWW26R2rVru32qdevWSe/evfXP//3vf2uVXbgQQAABBBBAAIFgCBAoCYYyayCAAAIIIBDGAv6GSeyPTqjEx5cgwlvfpOakSlxSnIZCoMTHd8PN8IYZd0iNdhfIHy98JAf/G1kBJF+FqE7iq5j54wmVmG/KjAgggAACCBgFDma/IwcXvu93CxzV4qZWtz5SK+V2gBFAIEgCq1ev1kIk9mv48OFy//33u1xdVdlRrYbs7W7UIG/aHgXpUVgGAQQQQAABBKJAgEBJFBwyj4gAAggggEBFBcwKk9jXJ1Ti40kYqpREWusbY9ub3IIDkpyV5yNOaIdbsUKJanUTc0oVKTp0NLQ4IV7dWJ2EVjehPQxCJaH1Z3UEEEAAgcgXKPxrrxxa8qnWAufwtzkixcXePXRMjNS4NFlUi5uaV14vsafX8+4+RiGAgCkCqu1P69atHeZasGCBnH/++Q4/U2GS8ePHyxtvvKH/vGbNmqIqltAqyJSjYBIEEEAAAQQQ8EKAQIkXSAxBAAEEEEAgGgXMDpPYDQmV+PA2RXCVEmOgRInEZK7yASb0Q60YKAm9Suh34NzqhkBJ6M9k5qiekpgQH/qNsAMEEEAAAQQiXODIupVybMN3cnxTnhz/baMU7t0lJ/fu0p66cr2GEluvoVQ9J0GqNrtITrmglVRv3SHCRXg8BKwtMGzYMFm4cKHDJpOTkyUhIUGqVasmO3fulEWLFsnevXsdxmRmZkqXLl2s/XDsDgEEEEAAAQQiSoBASUQdJw+DAAIIIICAOQKBCpPYd0eoxIdziuAqJeHc9oZAiQ/vcBCHxk9Mk2oXN9VWJEwSRHgPSxEqsc5ZsBMEEEAAAQQQQAABawgcOnRIbrjhBtm0aZPXGxo9erTcfffdXo9nIAIIIIAAAgggYIYAgRIzFJkDAQQQQACBCBI4sm6F5A/rEfAnIlTiJbFTlRJbhk1s6TYvb7b2MGOgJNza3hAosd675VydpM3AqdbbZBTviFBJFB8+j44AAggggAACCCDgUmD//v3yzjvvyPTp00UFTNxdnTp1khEjRpRpkwMrAggggAACCCAQDAECJcFQZg0EEEAAAQTCSGBzh+D1zyZU4uWLkZgukjhGH5wZk+nljdYeZmx7Q6DE2mcVDrtrumicvk2qk1jzxNa+OtSaG2NXCCCAAAIIIIAAAgiEUODw4cOSl5cnO3bs0L6OHj0qZ5xxhvbVpk0badiwYQh3x9IIIIAAAgggEO0CBEqi/Q3g+RFAAAEEEDAIBLrVjStsQiVevoKG1jeRVKUkrThNB4jJXOUlRuiHUaEk9Gdg3AHVSax1Hu52c0nCmZI56vrw2Cy7RAABBBBAAAEEEEAAAQQQQAABBBBAAAEhUMJLgAACCCCAAAKaQCjCJHZ6QiVevIROrW+yk7MlPzffixutPcTY9iY5O09y8w9Ye8P/7I5AibWOieok1jqP8nZDqCR8zoqdIoAAAggggAACCCCAAAIIIIAAAgggQKCEdwABBBBAAAEEQhomsfMTKvHiRTRUKSnILZCs5CwvbrL2kMT0REkck6htMpza3hAosc57ZaxOQqsb65xLeTsZ1KOtqC8uBBBAAAEEEEAAAQQQQAABBBBAAAEEELC2AIESa58Pu0MAAQQQQCDgAqGsTOL8cIRKPBx3BFYpiU+Kl5ScFO3BCZQE/Nc94hZwbnWTNuFTWbNxR8Q9ZyQ+0MxRPSUxIT4SH41nQgABBBBAAAEEEEAAAQQQQAABBBBAIGIECJREzFHyIAgggAACCFRMYHOHehW7MUB3ESrxABuBVUrSitP0hw6XtjdUKAnQ3wB8nJZWNz6CWWw4oRKLHQjbQQABBBBAAAEEEEAAAQQQQAABBBBAwEmAQAmvBAIIIIAAAlEskD+8hxxZu8JyAoRKPBxJWrE+wJZhE1u6zXJn6MuGUnNSJS4pTruFQIkvctE91rk6SZuBU6MbJAyf/pKEMyVz1PVhuHO2jAACCCCAAAIIIIAAAggggAACCCCAQHQIECiJjnPmKRFAAAEEECgjYKVWN66Oh1BJOS9tYrpI4hh9QGZMZli/4eHY9oYKJaF/5ahOEvozMGMHg3q0FfXFhQACCCCAAAIIIIAAAggggAACCCCAAALWEyBQYr0zYUcIIIAAAggEXMDqYRI7AKGScl6FCGp9YwyUqCeOyVwV8N8BfxcgUOKvoH/3U53EPz+r3U2oxGonwn4QQAABBBBAAAEEEEAAAQQQQAABBBAoESBQwpuAAAIIIIBAlAmES5jEfiyESty8oPFJIik5+ofZydmSn5sftm9zuLW9IVASulet+sVNJW5imr6BGfNXi/riCm+BmaN6SmJCfHg/BLtHAAEEEEAAAQQQQAABBBBAAAEEEEAgwgQIlETYgfI4CCCAAAIIlCdwZN0KyR/WI+yQCJW4ObIIqlJCoCTsfi1DtmFjdRLCJCE7hoAsvPbVoQGZl0kRQAABBBBAAAEEEEAAAQQQQAABBBBAoGICBEoq5sZdCCCAAAIIhKXA5g71wnLfatOESlwcXQRVKTG2vcktOCDJWXmWflepUBKa46HVTWjcg7XqJQlnSuao64O1HOsggAACCCCAAAIIIIAAAggggAACCCCAgAcBAiW8IggggAACCESJQLi1unF1LIRKXKgkposkjtE+KMgtkKzkrLB8o42BEvUAMZmrLP0cBEpCczxNF43TF6Y6SWjOINCrDurRVtQXFwIIIIAAAggggAACCCCAAAIIIIAAAgiEXoBASejPgB0ggAACCCAQcIFICJPYkQiVuHhd0or1H9oybGJLtwX8nQrEAuHU9oZASSDegPLnpDpJ8M1DtSKhklDJsy4CCCCAAAIIIIAAAggggAACCCCAAAKOAgRKeCMQQAABBBCIcIEj61ZI/rAeEfWUhEqcjjNCWt8YAyVWb3tDoCT4f0uhOknwzUO54sxRPSUxIT6UW2BtBBBAAAEEEEAAAQQQQAABBBBAAAEEol6AQEnUvwIAIIAAAghEukD+8B5yZO2KiHtMQiVOR5qaIxKXpP0wXFvfGNveECiJuF9Zvx7IWJ3EtjFf7pnwiV/zcbP1BS5JOFMyR11v/Y2yQwQQQAABBBBAAAEEEEAAAQQQQAABBCJYgEBJBB8uj4YAAggggEAktbpxdZqESgwqEVKlJK04TX+omMxVlv0lpkJJ8I7GudXNjPmrRX1xRb4AoZLIP2OeEAEEEEAAAQQQQAABBBBAAAEEEEDA2gIESqx9PuwOAQQQQACBCgtEepjEDkOoxPCKRECVEmPbm+TsPMnNP1Dh34FA3kigJJC6jnMbAyWESYLnbpWVBvVoK+qLCwEEEEAAAQQQQAABBBBAAAEEEEAAAQSCL0CgJPjmrIgAAggggEBQBDZ3qBeUdaywCKGSf04hAqqUJKYnSuKYRO2BrNz2hkBJcH7znauTtBk4NTgLs4qlBGaO6imJCfGW2hObQQABBBBAwPICxYUixcUl24yJEYmJtfyW2SACCCCAAAIIIIAAAghYT4BAifXOhB0hgAACCCDgt0C0VCcxQhEq+UcjMV0kcYxOkxmT6ff7FMwJ4pPiJSUnRVuSQEkw5a25VtNF4/SNUZ3EmmcUjF3R+iYYyqyBAAIIIBD2AjuXi+z5VuSP70T2/SByKF/kyK6Sx6reUKRmvEidFiL1Wok0uFSkUcewf2QeAAEEEEAAAQQQQAABBAIvQKAk8MasgAACCCCAQFAFojFMYgcmVPKPhKH1jS3DJrZ0W1DfQX8XSytO06ewatsbKpT4e8qe76c6iWejaBpB65toOm2eFQEEEEDAa4HDBSJb5on8ni2Sv0Sk8Jh3t8aeIhJ/pchZKSJNeonUiPPuPkYhgAACCCCAAAIIIIBA1AkQKIm6I+eBEUAAAQQiWeDIuhWSP6xHJD+ix2cjVCIiYd76JjUnVeKSSv6lNoESj698xA6gOknEHm2FH4zWNxWm40YEEEAAgUgU2Pi6yM+zRQq+8u/p4jqJnH+3SMJd/s3D3QgggAACCCCAAAIIIBCRAgRKIvJYeSgEEEAAgWgVyB/eQ46sXRGtj68/N6ESETFUKSnILZCs5KyweS/Coe0NFUoC+zoZq5PQ6iaw1uE0O61vwum02CsCCCCAQMAE9v0o8uM0kZ8yRYqOm7NMpaoiF94j0nyoSJ3m5szJLAgggAACCCCAAAIIIBARAgRKIuIYeQgEEEAAAQREornVjavzj/pQSRhXKTEGStTZxmSustyvOIGSwB2Jc6sbAiWBsw7HmWl9E46nxp4RQAABBEwT2P21yLrnRLYGKCx+dqpI68dEGlxm2paNE+3fv1/27NlTZu6mTZtKpUqVfF5TzaXmNF4NGzaUWrVq+TwXNyCAAAIIIIAAAggggIBrAQIlvBkIIIAAAghEgABhEteHGPWhkjCuUmL1tjcESgL3N05a3QTONlJmpvVNpJwkz4EAAggg4JPAzmUitgyRHYt9us3nwWd2EUkcI9LoCp9v9XTDyy+/LC+99FKZYR9++KG0bt3a0+1lPr/tttvkm2++cfj5E088IXfdRfsenzG5AQEEEEAAAQQQQAABNwIESng1EEAAAQQQiACBzR3qRcBTBOYRoj5Uklasw9oybGJLtwUG2uRZjYGSDNt2SbdtM3kF/6YjUOKfn7u7nauTtBk4NTALMWtYC9D6JqyPj80jgAACCFRE4MBmkVX3B64yifOeVKWS9pNFTju3Irt1e4+7QElaWpo8/PDDPq21a9cu6dChQ5l7CJT4xMhgBBBAAAEEEEAAAQQ8ChAo8UjEAAQQQAABBKwtQHUSz+cT1aGSxPSS/8LwnyszJtMzmAVGGNve5BYckOSsPAvsqnQLBEoCcxxUJwmMayTOSuubSDxVngkBBBBAwKVA0UmRVfeJ5E0JLtBFw0tCJZUqm7auu0BJvXr15Ouvv/ap7c1bb70l6enpZfZGoMS042IiBBBAAAEEEEAAAQQ0AQIlvAgIIIAAAgiEsQBhEu8PL6pDJYbWN+FUpSStOE0/4JjMVd4fdhBGEigxH5nqJOabRvqMtL6J9BPm+RBAAAEENIGNr4ssvTs0GJ1niySY1z7GXaBEPZyvbW969+4t69atK+NCoCQ0rwqrIoAAAggggAACCESuAIGSyD1bngwBBBBAIAoEaHXj2yFHbagkPkkkJUfHyk7OlvzcfN/wQjDa2PYmOTtPcvMPhGAXrpckUGL+UVCdxHzTSJ+R1jeRfsI8HwIIIICAHC4QyeknsmNxaDDO7CKS/JZIjThT1i8vUHLPPffII4884tU627Ztk6SkJJdjR48eLXffHaIAjle7ZxACCCCAAAIIIIAAAuElQKAkvM6L3SKAAAIIIKALUJ2kYi9D1IZKDFVKCnILJCs5q2KAQbzLGCixWtsbAiXmvgjG6iQz5q8W9cWFgDcCtL7xRokxCCCAAAJhK/DjdJHlQ0K7/Y7TRJoPNmUPzoGSmjVryqFDh7S5fWl7M3PmTBk3bpzLPVGhxJSjYhIEEEAAAQQQQAABBHQBAiW8DAgggAACCIShwJF1KyR/WI8w3Lk1thyVoZIwrFISnxQvKTkp2ktDoMQavzuB2IVzq5u0CZ/Kmo07ArEUc0aoAK1vIvRgeSwEEEAg2gWKTop80UNk24LQSjS+VqTrfJFKlf3eh3OgZMCAAfLaa6/p83rb9ua6666TDRs2aPd1795dPv/8c30ObwMlu3fvlt9//122bNki+/btk1q1aknt2rXloosukrPPPrvcZz18+LAcP35cG6Pui42N1f66qKhIfv31V1m/fr3s379fEhIS5IILLpA6der4bOfP/pwX++OPP+Snn36SHTt2yJEjR6R58+bSokULUYEedZ04cUIP9lStWlVq1Kjhcb/q+TZt2iQbN26UwsJC7VnPP/98Of300z3eq0JEak2jnzJdsWKFdibKv23bttp5cCGAAAIIIIAAAgiEXoBASejPgB0ggAACCCDgswDVSXwmK3NDVIZKEtNFEsdoFuFSpSStOE0/Oyu1vaFCif+/g/YZaHVjnmW0zkTrm2g9eZ4bAQQQiHCBnctF5l9hjYfssUykUUe/9+IcKHn//felT58++rwDBw6URx99tNx1Nm/eLNdcc40+ZsqUKTJs2DD9+/ICJSr8MHXqVMnJydEDFK4WU6GSsWPHauESV5cx0KLGXX/99fLUU09JVlaWy3nVPC+++KI0bdq03Gcza3/2RVSARD3v3LlzXa7bqVMnmThxonzwwQcyYcIEbUzLli1l3rx5bve5atUqUcYqiOPqatKkiTz77LPSrl07t3NcddVV+v0vvPCCNu6BBx4oM16Z3n777X6/d0yAAAIIIIAAAggg4J8AgRL//LgbAQQQQACBoAsQJjGPPCpDJWnFOqAtwya2dJt5oAGYydj2hkBJAIBDPKVzdZI2A6eGeEcsH64CtL4J15Nj3wgggAACbgW+nyTy9YPWALpsokjLf/u9F+dAyeLFi7UgxtKlS7W5vWl7owIk9hCCCi088sgj0qtXL31v7gIlKiTx4IO+eaanp0u/fv3KPLcxUKLWX758ufbl6crMzJQuXbq4HGbm/tQCqoLLHXfcIXv37i13W40aNdKqlXz55ZfaOBV+mT9/fpl7jh07JpMnTxbVbsiba/DgwTJy5EhRFU+cr6SkJNm2bZv249tuu03effddl1M+/vjj0r9/f2+WYwwCCCCAAAIIIIBAAAUIlAQQl6kRQAABBBAIhMDmDvUCMW3Uzhl1oRJDlRJ16JkxmZY+e6u2vaFCiTmvDdVJzHFklhIBWt/wJiCAAAIIRJRAzh0iv7xljUc6r59I8pt+78VVoGTdunUOQQ9VLaNNmzZu1zJWt1DVQVRLGU+BEueqJmpy1e5FhTvq168vf//9t6gxNlvZsL3a32mnneawH2OgxHmjqkLHmWeeKeo+1drFeKnAzMqVK6VyZcf2QWbvT7XLUU7O6ycmJsp5552ntalR+3N1uQuU3HvvvQ6thdS9zZo1k4svvlibZu3atWWqlqiwyNNPP11mGWOgpLyXSlk1bNjQ7/eOCRBAAAEEEEAAAQT8EyBQ4p8fdyOAAAIIIBBUAaqTBIY76kIlqTkicUkaptVb3xAoCcw7b4VZqU5ihVOIrD3Q+iayzpOnQQABBKJe4NMOIrtWWYOhYXuR61f6vRdXgZI6deo4BEgGDBggjz32mMu1fvrpJ0lJSdE/W7NmjVbpwlOgJCMjQ958szQQo9ZQLVaqVavmsM769evl/vvvdwhGuKpS4ipQ0r59e1FjVchCXYWFhVprnUGDBjmsoVrQdO3a1eFnZu9v1KhR8vHHH+trqJDL9OnT9b2pD3755RcZMmRImRCIq0DJ119/7dB6RoVxVFBEtfoxXkuWLJH77rvPIcii2gA1b97cYZyrQIlqtXPTTTdp4R1VsSYmJkaef/55v985JkAAAQQQQAABBBDwX4BAif+GzIAAAggggEBQBAiTBJY5qkIl8UkiKTk6aHZytuTn5gcW2I/Z04rT9Lut0vaGCiV+HKiIVL+4qcRNLD3XGfNXi/riQsBfAaqU+CvI/QgggAAClhF4q5HIkV3W2E71hiL9dvq9F1eBknPOOUcLXdhbrpTX9ka1ulEtb9SVnJwsr776qnz//fflBkr279/vEFhp27at1mKlUqVKLp9HVSnp06eP/pmrKhvOgRIV2Fi4cGGZyiNqkrlz54pq3WK/nOcze3+//fabQ1sd5alsnausqP0cPHhQG2tsi+McKFHBmO7du8umTZv0Z3jvvffkkksucemngirdunXTP1Pec+bM0QIi9ss5UKLa7ixatEhq1Kjh9zvGBAgggAACCCCAAALmCxAoMd+UGRFAAAEEEAiIAK1uAsLqMGlUhUrCqEpJak6qxCXFaWdFoCTwvwfBWMFYnYQwSTDEo2cNqpREz1nzpAgggEBECxQXisw+TeTkYWs8ZuUaIncfEImJ9Ws/7gIlqoqFqmxhv1y1vSkuLpaOHTvKzp0lwZYXX3xRUlNTPQZK/ve//8n48eO1QIQKTqg9qECIu+vkyZOSkJCgf9yjRw+ZPHmyw3DnQImqfnL55Ze7nPLIkSPSokUL/bNrrrlGpk2bpn9v9v5mzZolzz77rD6/qiSiQizuLmX9yCOP6B87B0pUtZD+/fvrn995553y5JNPlvsePPPMMzJ79mx9zOeff+5g6hwoUXvu3LmzX+8WNyOAAAIIIIAAAggEToBASeBsmRkBBBBAAAHTBKhOYhqlx4miJlQSRlVKrNj2hgolHn+V3A6g1U3F7bjTO4FBPdqK+uJCAAEEEEAgbAWiLFCiKmW0atVKPy5XbW/WrVsnvXv31seoIMapp57qMVBifAdUuKNq1aoSG+s+GLNr1y65+uqr9bYtqjrHK6+84vAqOQdKNmzYIFWqVHH7uqmwiT0IY6+s4mqwGfvr27evrFpV2ipJtQlSz+zuUgGaNm3a6M/rHCh5/fXXtfY29ktVd2nXrl25v1orV66Ufv366WNUux1lar+cAyXffvutqEoqXAgggAACCCCAAALWFCBQYs1zYVcIIIAAAgg4CFCdJLgvRNSEShLTRRLHaLgFuQWSlZwVXGgvVzMGStQtMZmh7yVPoMTLw3MxrOmicfpPqU5ScUfuLF9g7atDIUIAAQQQQCC8BaKo5Y06qGHDhmltY9SlwgUqFGEMfjz33HPy2muvaZ+rQIeqNKIuTy1v3L0EKryxY8cO2bp1q2zZskX7+uabb7T/NV6eAiVqryoQUd7VtWtXvWVMp06dHKp3mL0/Y3ilWbNm8sUXX3j8PVAtflSrH3U5B0oyMjJEVWCxX3fccYfUrl273Dn37NmjtfqxX6oCyj333KN/7xwo2bx5s8c9MgABBBBAAAEEEEAgdAIESkJnz8oIIIAAAgh4JUB1Eq+YTB8UNaGStGLdzpZhE1t6yb9ItNpltbY3BEoq9oZQnaRibtzluwCtb3w34w4EEEAAAYsJfNpBZFfog9SaSsP2Itev9BvIXcsbNbFqi3Lvvff/TC90AAAgAElEQVTqaxjb3hQWFkr79u21ljXqmjFjhlx11VXaX/sSKPnll1+0cMSyZctk27ZtXj2Pp0BJYmKivP/+++XOZaxoUl6gxN/9qbZAKkRiv7p06SKZmZken/PBBx+UefPmaeOcAyWqxc3y5cs9zlHegFtuucWhDY8xUNKyZUt9bb8W4WYEEEAAAQQQQACBgAkQKAkYLRMjgAACCCDgvwBhEv8N/ZkhKkIlYdL6xhgoybBtl3Sbd/8C2J/zL+9eAiUVk6U6ScXcuKtiAjNH9ZTEhPiK3cxdCCCAAAIIhFog5w6RX94K9S5K1j+vn0hyaZWKim6qvEDJ4cOH5f/+7//0qfv37y+PP/649r2qHHLbbbfpn+Xl5Um1atW0770JlBw/flxUaOKzzz7zuHVVccQeXFGDPQVKOnfuLLNmzSp3Xk+BErP2p+a58MIL9b2U117HuOExY8bI22+/rf3IOVDiXE3EI6CLAc77MM55zTXXyLRp0yoyLfcggAACCCCAAAIIBEmAQEmQoFkGAQQQQACBigjQ6qYiaubeExWhktQckbgkDc6qrW+MbW9yCw5IclaeuQft42wESnwEExFjdRLbxny5Z8Invk/CHQj4IECVEh+wGIoAAgggYD2B7yeJfP2gNfZ12USRlv/2ey/lBUrU5CNHjpTs7GxtHWPbG2PgQbVnGTt2rL4XT4ESVd1EhUnmz5/vcv+qwogKUSQkJGj/q75atWolhw4d0sYHOlBi9v4uvfRSPRDTunVr+fDDDz2eW1pamixevFgb5xwoMbbDUZ+PHj3a43zOAxo3bqxXlFGfESjxmZAbEEAAAQQQQACBkAoQKAkpP4sjgAACCCDgXoDqJNZ5OyI+VBImVUrSitP0lyImM7TlvwmU+Pb76dzqZsb81aK+uBAItABVSgItzPwIIIAAAgET2LlcZP4VAZvep4l7LBNp1NGnW1wN9hQoWbRokQwePFi/VbW9US1R2rRpowc8Xn/9dbniilIXT4GSBQsWyPDhwx22o9bo1auXNGnSRGJjYx0+c24b061bN5kyZYrDGGPFEX8rlJi9v759+8qqVSX/X0mFcr799luP59a1a1fZtGmTNs45UPLoo486tPRZu3at1K5d2+Oc5Q0gUOIXHzcjgAACCCCAAAJBFyBQEnRyFkQAAQQQQMA7AaqTeOcUrFERHyoJgyolxrY3ydl5kpt/IFjHX2YdAiW+0cdPTJNqFzfVbiJM4psdo/0ToEqJf37cjQACCCAQQoGikyJf9BDZtiCEmxCRxteKdJ0vUqmy3/vwFCg5cuSItGjRQl9n4MCB0qlTJ7njjju0n9WsWVPWrVvnEALxFCgxVjdRczz77LNyyy23uH2W/Px8h8CKq5YsZgZKzN6f83wqsHL++ee7fd6CggLp2LE0LOQcKJk5c6aMGzdOv//dd9+Vdu3alfsuHDx4UJYvXy6nn366xMXFSaNGjfQWRepGAiV+/yoxAQIIIIAAAgggEFQBAiVB5WYxBBBAAAEEvBOgOol3TsEeFdGhkjCoUpKYniiJYxK1Yw912xsCJd7/9jlXJ2kzcKr3NzMSARMEBvVoK+qLCwEEEEAAgbAT+HG6yPIhod12x2kizUurhvizGU+BEjW3ak8zb948bRlVYePqq6+WuXPnat+rYIkKTBgvT4GSq666SrZs2aLfsn79eqlRo4bbx3AOUHTp0kUyMzMdxpsZKDF7f85VXtRelbu768knn5R33nlH/9g5UPLll1/KoEGD9M9V+OSNN94o9zWYOnWqTJo0SR8zbNgweeCBB/TvCZT481vEvQgggAACCCCAQPAFCJQE35wVEUAAAQQQ8ChAdRKPRCEbENGhksR0kcTSf0GbGeP4L05Dhv7PwvFJ8ZKSk6J9R6Ak1Kfh/fpNF5X+F41UJ/HejZHmCtD6xlxPZkMAAQQQCJLA4QKRnH4iOxYHaUGnZc7sIpL8lkiNOFPW9yZQkpOTI6oyiavr/fffl8TEkoC5/fIUKOnRo4fk5eXp41evXi1169Z1Of/ChQtFhR+Ml6sAhZmBErP3V1RUJD179nR45okTJ2otfpyvL774QoYOHerwY+dAybFjx0S1xNm2bZs+ToVF1Bqurt9++03UMx06dEj/WJ3pWWedpX9PoMSUXycmQQABBBBAAAEEgiZAoCRo1CyEAAIIIICAdwJUJ/HOKZSjIjpUYmh9Y8uwiS3dFkrqMmunFafpPwtl2xsqlHj3WlCdxDsnRgVegNY3gTdmBQQQQACBAAlsfF1k6d0BmtzDtJ1niyTcZdra3gRKVIChbdu2DoEEtQFVreTrr7+WSpUqOezHU6DkiSeeENWmxX6pFjYqEGGsUqJa7ahKHPfdd1+ZZ23ZsqVeMcX+oZmBkkDsb+nSpdK/f3+HZ7npppskNTVVzj77bNm+fbuoVjhvv/12med1DpSoAa5CPkOGDJERI0ZI1apV9TnWrFkjI0eOlJ07d+o/UxVYZsyY4bAOgRLTfqWYCAEEEEAAAQQQCIoAgZKgMLMIAggggAAC3gtQncR7q1COjNhQicVb36TmpEpcUsl/IUmgJJS/Ad6tTXUS75wYFRwBqpQEx5lVEEAAAQRMFig6KbLqfpG8/5g8sYfpLhom0v5FkUqVTVvXm0CJWuzRRx8VVY3EeA0ePFhGjRpVZi+eAiXffPON3HbbbQ73qXBKt27dpGbNmmKz2bQvd5cas3btWqlcudTBzEBJIPannmXcuHGi2vf4erkK0Kg50tLSZPHispVy2rVrJ2eccYZs2rRJNmzY4LBco0aN5OOPP5aGDRs6/JxAia+nwngEEEAAAQQQQCC0AgRKQuvP6ggggAACCDgIUJ0kvF6IiA2VGKqUFOQWSFZylmUOxiptb6hQ4vmVMFYnodWNZy9GBF6AKiWBN2YFBBBAAIEACRzYXBIq2Rqkfy4/O1Wk/WSR08419YG8DZQsW7ZM7rrLsTJKVlaWNG/evMx+PAVK1A2qIsnUqVO9ehYVPmnSpIk8++yz+vhZs2ZJ586d9e/NDJQEYn/2jc6bN08efPDBcp/7ueeekzfffFMPg7hq8aMmOHr0qLzyyisyffp0rxxVaOeDDz7QKqI4XwRKvCJkEAIIIIAAAgggYBkBAiWWOQo2ggACCCAQ7QKEScLzDYjIUImFq5QYAyXqjYnJXBWSF4dASfnszq1u0iZ8Kms27gjJWbEoAkYBqpTwPiCAAAIIhK3AzmUitgyRHWWrRJj6TGd2EUkcI9LoClOnVZOpUIcKd9iv3Nxcady4cZl1Tpw4IYmJiXrbGzVGjXV1/fTTT5KSkqJ/lJGRIX379i0zVLW0eeaZZ2Tbtm0u5+nSpYuoNi6tW7eWrVu3ypVXXqmPU+1jHn/8cf37Xr16iQqyqEvdl5mZWa6VN+PN3J9xMz///LN89dVX2n5VJRbVjkZVFVG+1157rRbSUW1ptmzZot3WvXt3LTji7vruu+9EhVDcVXVRQZKhQ4fKzTffLNWrV3c5TdeuXbWKJupS4RwVNOJCAAEEEEAAAQQQsK4AgRLrng07QwABBBCIMgECJeF74BEZKrFwlZK04jT9ZQlV2xsCJeX/vtLqJnz/fhbpO6dKSaSfMM+HAAIIRLjA7q9F1j0XuEolqjJJ68dEGlwWkZCFhYWSn58v27dv14IVdevWlWbNmkl8fLzExMSE/JlDtT/V5ubQoUPa8/fp00fGjh3r0ULtVTmqYMiBAwc0Q/tXbGysx/sZgAACCCCAAAIIIBA+AgRKwues2CkCCCCAQAQLECYJ/8ONyFBJWrF+MLYMm9jS3fcWD+YJpuakSlxSnLYkgZJgynu3lnN1kjYDvSsv7t3sjELAfwGqlPhvyAwIIIAAAiEU2PejyI/TRH7KFCk6bs5GKlUVuTBNpPkQkTpl28qYswizBENg6dKlWoURFZRRrXtuueUWqV27ttul161bJ71799Y///e//61VGOFCAAEEEEAAAQQQQMAuQKCEdwEBBBBAAAELCGzuUM8Cu2AL/gpEXKgkMb2k3PU/V2ZM+aWc/fXz9n5j25vcggOSnJXn7a2mjaNCiXtKqpOY9poxUYAEqFISIFimRQABBBAIrsDG10V+ni1S8JV/68Z1Ejn/bpGEu/ybh7stIbB69WotRGK/hg8fLvfff7/LvR07dkxrOWNvd6MGffjhh1rbHy4EEEAAAQQQQAABBOwCBEp4FxBAAAEEEAixANVJQnwAJi8fcaESQ+sbq1QpMQZK1PHFZK4y+RQ9T0egxLUR1Uk8vzuMsIYAVUqscQ7sAgEEEEDAT4HDBSJb5on8ni2Sv0Sk8Jh3E8aeIhJ/pchZKSJNeonUKKn+xxX+Aqr9jHMgZMGCBXL++ec7PJwKk4wfP17eeOMN/ec1a9YUVbGEljXh/x7wBAgggAACCCCAgJkCBErM1GQuBBBAAAEEKiBAdZIKoFn8logKlcQniaTk6OLZydmSn5sf8hMIddsbAiVlX4HqFzeVuIlp+gcz5q8W9cWFgBUFqFJixVNhTwgggAACfgnsXC6y+1uRvd+J7PtB5FC+yJFdJVNWbyhSM16kTguR+q1EzrhUpFFHv5bjZusKDBs2TBYuXOiwweTkZElISJBq1arJzp07ZdGiRbJ3716HMZmZmdKlSxfrPhg7QwABBBBAAAEEEAiJAIGSkLCzKAIIIIAAAiUCVCeJ3DchokIlhiolBbkFkpWcFfKDMwZKQtH2hkBJ2VfAWJ2EMEnIf0XYgBcCVCnxAokhCCCAAALhK1BcKFJcXLL/mBiRmNjwfRZ27pPAoUOH5IYbbpBNmzZ5fd/o0aPl7rvv9no8AxFAAAEEEEAAAQSiR4BASfScNU+KAAIIIGBBAaqTWPBQTNxSxIRKLFilxNj2hkCJiS9tBaei1U0F4bgtpAJUKQkpP4sjgAACCCCAQAAF9u/fL++8845Mnz5dVMDE3dWpUycZMWJEmTY5AdwaUyOAAAIIIIAAAgiEmQCBkjA7MLaLAAIIIBA5AlQniZyzLO9JIiZUkpgukjhGe1SrVClJKy5trxKTuSqoLxQVShy5my4ap/+A6iRBfRVZzE8BqpT4CcjtCCCAAAIIIGBpgcOHD0teXp7s2LFD+zp69KicccYZ2lebNm2kYcOGlt4/m0MAAQQQQAABBBAIvQCBktCfATtAAAEEEIhSgfzhPeTI2hVR+vTR9dgREypJ+6dktojYMmxiS7eF9CCNbW+Ss/MkN/9A0PZDoKSUmuokQXvtWCgAAlQpCQAqUyKAAAIIIIAAAggggAACCCCAAAIIRIwAgZKIOUoeBAEEEEAgnASoThJOp2XOXiMiVGKoUqJUMmMyzcGp4CyJ6YmSOCZRuzvYbW8IlJQeGtVJKvgCc5tlBKhSYpmjYCMIIIAAAggggAACCCCAAAIIIIAAAhYTIFBisQNhOwgggAAC0SFAoCQ6ztn5KSMiVJKaIxKXpD1aqFvfxCfFS0pOirYXAiWh+Z0yViexbcyXeyZ8EpqNsCoCfghQpcQPPG5FAAEEEEAAAQQQQAABBBBAAAEEEIhoAQIlEX28PBwCCCCAgBUFCJNY8VSCt6ewD5XEJ4mk5Ohg2cnZkp+bHzxAp5XSitP0nwSz7Q0VSkScW93MmL9a1BcXAuEoQJWScDw19owAAggggAACCCCAAAIIIIAAAgggEGgBAiWBFmZ+BBBAAAEEnAQIlPBKhH2oxEJVSlJzUiUuKU57qQiUBPd3yxgoIUwSXHtWM1+AKiXmmzIjAggggAACCCCAAAIIIIAAAggggED4CxAoCf8z5AkQQAABBMJMYHOHemG2Y7YbCIGwDpVYqEpJqNreRHuFEufqJG0GTg3ErwlzIhBUAaqUBJWbxRBAAAEEEEAAAQQQQAABBBBAAAEEwkCAQEkYHBJbRAABBBCIHAGqk0TOWZrxJGEdKklMF0kcozEU5BZIVnKWGSQ+z2EMlKibYzJX+TxHRW6I9kBJ00XjdDaqk1TkDeIeKwpQpcSKp8KeEEAAAQQQQAABBBBAAAEEEEAAAQRCKUCgJJT6rI0AAgggEHUCVCeJuiP3+MBhHSpJK9afz5ZhE1u6zePzBmJAKNreRHOghOokgXiLmdMqAlQpscpJsA8EEEAAAQQQQAABBBBAAAEEEEAAASsIECixwimwBwQQQACBqBCgOklUHHOFHjJsQyUWaX1jDJRk2LZLum1bhc7Bl5uiOVBCdRJf3hTGhpsAVUrC7cTYLwIIIIAAAggggAACCCCAAAIIIIBAIAUIlARSl7kRQAABBBAwCFCdhNehPIGwDZWk5ojEJWmPFqrWN8a2N7kFByQ5Ky/gL1u0BkqM1UlodRPw14wFQiSw9tWhIVqZZRFAAAEEEEAAAQQQQAABBBBAAAEEELCWAIESa50Hu0EAAQQQiFABqpNE6MGa/FhhGSqxSJWStOI0/TRiMleZfDJlp4vGQIlzqxsCJQF/zVggRAK0vQkRPMsigAACCCCAAAIIIIAAAggggAACCFhOgECJ5Y6EDSGAAAIIRKIA1Uki8VQD80xhGSqxQJUSY9ub5Ow8yc0/EJgD+mfWaAyUxE9Mk2oXN9UECJME9PVi8hAL0PYmxAfA8ggggAACCCCAAAIIIIAAAggggAAClhEgUGKZo2AjCCCAAAKRKkB1kkg92cA9V9iFSixQpcQYKAlG25toC5Q4VydpM3Bq4H4BQjhz83MaSOL58VJUXCwf5Pwgx08WVmg3NatXlctbnCWnVq8q32/eKZt2/FmheYJ9U0Lj+tKt3XnS+rw4qRQTI+u37JLPVv0sP/6226utNI2vIxOGdNPGHjx8TO4a+7FX91lxEFVKrHgq7AkBBBBAAAEEEEAAAQQQQAABBBBAINgCBEqCLc56CCCAAAJRJ0CgJOqO3JQHDrtQSWK6SOIY/dkzYzJNcfB2kvikeEnJSdGGEyjxVs37cU0XjdMHR2p1kmpVK0vuSwOkapVY7Vlvf/oD+WnrHq+RGjeoLeMHd5WzG9aW6qdUcbivuFhkc/6f8tC0L+S3nfu8ntPVwK+nDZKYmJgKz1EsxdLj0bdl975DDnOkpV4ig6+/1OW881dskPTZSzyu+c4TN8mFZ5+hjdu0fa/0SX/P4z1WHUCVEqueDPtCAAEEEEAAAQQQQAABBBBAAAEEEAimAIGSYGqzFgIIIIBAVArQ7iYqj92Uhw67UImh9Y0twya2dJspDt5Oklacpg+NyVzl7W0VGhdNFUqipTrJm4/dKC2aNtTfB18CJd0uPU+eHthFYitVKvd9UsGSzKzVWsugil5rXx1a0Vv1+24YPcch2HJnt9Yysnf7cuf94ttf5NHMRW7HqOoub4/uXSE/vx8oQBOYYR2grTEtAggggAACCCCAAAIIIIAAAggggAACQREgUBIUZhZBAAEEEIhWAaqTROvJm/fcYRUqCXHrG2Pbm+TsPMnNP2DeQTjNFE2BkmioTjL1gVS5rHljh1P2NlAy6taOcmuXlmXetaPHT0qVypVchkyGvDBfvvlxe4XeTzNCDs6BkhVT7tGrqhw5dkJGTftC/jxwWCYOvVbi69fS9qnCMKmPviX5fxx0ue8Pn7pVVMsbdanKLsov3C/a3oT7CbJ/BBBAAAEEEEAAAQQQQAABBBBAAAF/BQiU+CvI/QgggAACCJQjQHUSXg8zBMIqVGKoUlKQWyBZyVlmEHg1R2J6oiSOSdTGBrrtTbQESozVSSKx1U2DOjVl6v099CCE8UXzJlDS6rw4mfVwL4f38+dtf8i/py6UHXtKAk1tLzhTJt/bXWoY2uCo0Mblw2Z69V47D1JtZWIredfyRrXGOe9f9Rym2PPXIbn2oTelqKhY+/n1HS+UMXcl62P6j5sn320q0L5X7X9WTk2TSv+02HFXpUQ944wHr9fn6P3kHPk137/WPhXCMfkm2t6YDMp0CCCAAAIIIIAAAggggAACCCCAAAJhJ0CgJOyOjA0jgAACCISLANVJwuWkwmOfYRMqCWGVkvikeEnJSdEOlECJ/++1c6ubtAmfypqNO/yf2CIzDLguUYb0vFQPSzhvy5tAyX8n3SX1a9fQb1U+ysn5UmGSJS/1l6qVY/WPBoyfJ+t+KQluBOp65PZO0ie5hT798ZOFkvLwW/LH/sP6z568M1l6XnGh9v2hI8flintfddjOG4/dKP/3TyugDb//Ibc99X6Z7WaN7StnnnGa9vPvfimQ/uPnBeqRgj4vVUqCTs6CCCCAAAIIIIAAAggggAACCCCAAAIWEiBQYqHDYCsIIIAAApElQKAkss7TCk8TNqGSEFYpSStO048qkG1voqFCSaS2umncoLZMvT9VD0C4+932FCi54Kz68u6TffTbDx09IZ3vfVWKVG8YF9fI3u3lzm6t9U8+//pnGf3qlwH7W0uni8+RF+/trs+vtjV40qeyeoNjKEhVWFGVVtS1448DkvrI2w57Gpt2tXS99DztZ3sPHJarH3jd4fMrWp4tL424TvuZWqPHo29r80TKRZWSSDlJngMBBBCIfIEV+avkuz3/k7y9P8nGfT/LzsO7ZNeh3dqDN6zZQBrVaCgJdc6Xi+pdKK3OuFguj28f+Sg8IQIIIIAAAggggAACCPgtQKDEb0ImQAABBBBAwLUA7W54MwIhEDahkrTSP1S3ZdjElm4LBEeZOVNzUiUuqeQPxwmUVJzcuTpJm4FTKz6Zxe7MfXmAnFbjFIddqcodu/78W1TYxH6pShyqIoe7a8KQrtIl8Vz942fezJWPv/rR7XhVyeSjp2+VYycK5eDhY5K9cqPMXrA2IDrVqlYW9ZzGiihzF6+X5+csK7PerEd6SatmJb8zv2zfKzenv+cwZvQdSXJDp+baz1y16lk44U5RrYPU9fWP22ToC8FrcxUQPBeTrn11aLCWYh0EEEAAAQR8Eth7dK98sjlbPt+yUHK2LZVicR1sdZ40RmIkuXFn6d6kq/Q8N1XqVXNskefTJhiMAAIIIIAAAggggAACES1AoCSij5eHQwABBBAIlQDVSUIlHx3rhkWoJDFdJHGMfiCZMZlBOZxgtb2J9AolkVqdRL2Ey/5zj9SsVkV/H3/N3ycDn58nj/btLFdfUhoQ8RQoWfJifzn91GraPKoqySX3TAvKO+7NIpOGXSvJrZvoQ/cfOiZd7pvlsnrKC8OvlaRWJWNdVSgxfr573yHpNuoNfd5ul54nz6VdrX2vqpNc+9AbosZE2kXbm0g7UZ4HAQQQiAyBdzbMlbk/fyDLd6z064E6xneQWxJuktsvuMWvebgZAQQQQAABBBBAAAEEIlOAQElknitPhQACCCAQYgGqk4T4AKJg+bAIlYSg9Y0xUKJeg5jMVQF5GyI5UBLJ1UnUy2APlPx58Ii88tHX8unyn7R3ZPzgrj4FStbMHCKVYmK0e7ft3i/XP/aOw7vWsM6pUqtGVdm048+AvIPuJk1oXF/mjCltxaPGDZpYttWN/f4RN7aXu64tacVz9PhJ6TDUMfylqqo0iaujff795p1y19iP9aW/nHy31K1VXfs+97st8sB/FgT1WYO1GG1vgiXNOggggAAC3ghs+muzzFj/mrz6w2xvhns9ZmCLu2XQ/w2QZqeXBmy9vpmBCCCAAAIIIIAAAgggELECBEoi9mh5MAQQQACBUAlQnSRU8tG3ruVDJfFJIik5+sFkJ2dLfm5+wA8qGG1vIjVQUv3iphI3MU0/oxnzV4v6iqTrmYFXyYr1W2XBN784PJYvgRLVGufT527X71dzPT5zkVzTtpkM6tFWzmlUR/7JmmiVO/48eFi++XG7PDlrsRQVeVeKvqLmWeP6ypn1T9Nv//an7TJ40ny303VocZb8574U/fMnXlssn63aqH0fX7+WZI/rp3/2zqL/yaT3VmjfqzY4qh2OulSFlqvuny1//X20otu2/H1UKbH8EbFBBBBAICoEvtm5Wl5eN0U+/+2LgDxv93O6yojWw6Rdo7YBmf+vv/6SP/4obSl4zjnnSOXKlQOyFpMigAACCCCAAAIIIICAOQIESsxxZBYEEEAAAQR0AQIlvAzBFLB8qCQEVUqMgZIM23ZJt20z/UgiNVBirE4SiWGS8l4EXwIlXRLPlQlDuurTvfvl93Lev+pJ2wvOLPddU61nhkz6VDb8XvoHKWa+nKp1jWpRY79U0KPL/bNlv4egx4Ln75CGdU/VblMBmA+X/qDdc0fX1lK1Sqz28+MnC6XT8Fe1/1XX0pcHSK0ap2h//cW3v8ijmYvMfBTLzUWVEssdCRtCAAEEok5AhUme+WacLM/3r8WNJzjVAmd0u0cCEip5/vnnZcaMGfoWPvjgA2nTpo2nLfE5AggggAACCCCAAAIIhFCAQEkI8VkaAQQQQCAyBWh3E5nnauWnsnSoJARVSoxtb3ILDkhyVp7pxxeJgZJIb3Xj6SXwJVBirM6h5j1+olAPXnhaRwU2bhozR37N3+dpqM+fq6opqnqK/Vr63W9y/38+9zhPu+b/kqn399Crqri6Yfy7y+S9Jeu1j+7o2kruu6mD9teFRUWSNHKWHDpy3OM64T5g7atDw/0R2D8CCCCAQJgKqDY3Y1Y9HbDKJM4sqlJJRvsnTG9/Q6AkTF9Ato0AAggggAACCCAQ1QIESqL6+Hl4BBBAAAGzBahOYrYo83krYOlQSWK6SOIY7VEKcgskKznL28eq8Li04tK2LTGZqyo8j7sbIzFQ0nTROP1xo606iXpwXwIld1/bRu698TKXr8cf+w/LJ8t+lO827ZQmcXWkW7vz5KJzGjiM3fHHAUl95G1T38sWTRrIm4/31udUwZVr/v267D1w2Kt1Wp0XJ1PuS5Hqp1RxGH/iZJE8mvlfWbL2V+3nlWJiZNl/BurjPln2kzz1RmlrK/vNDeucqq19srDIq/XDYRBtb8LhlNgjAgggEJkCo5Y9Jq/+MDuoDzewxd0y4YrnTF2TQImpnEyGALg3zgwAACAASURBVAIIIIAAAggggEBQBAiUBIWZRRBAAAEEokUgf3gPObJ2RbQ8Ls9pMQFLh0rSinUtW4ZNbOm2gOoZ294kZ+dJbv4BU9eLtEBJtFcnUS+HL4ESFSZRoRLna/6KDZI+e0mZn9+U1EIe7dvJ4eeT318pb/33O9Pey7dG93YIrqzK2ybDJvsW3lJhkZbnNpLL/+8sqRxbSVb+8LvYfs6XoqLS398hPS+Ve1Iu0fatwiIdh8/UKrSoq1WzOHn2nqukQZ2aElupkvYzVblk/soNMmHOctOeNVQT0fYmVPKsiwACCES3wDsb5srwnPtDgvCf5Mly+wW3mLY2gRLTKJkIAQQQQAABBBBAAIGgCRAoCRo1CyGAAAIIRIMA7W6i4ZSt/YyWDZUEufWNMVASiLY3kRYoifbqJOq32pdAyaAebUV9Ga/fdv4lN4x+1+3fIF4Yfq0ktWqif76lYJ/c+MQcU/6GUuOUKrLsP/c4tKxJeeQtyf/joCnz2ydRIZPlU+6RqpVjtR/NWfy9HhRJ7ZAg6Xd3cds2Z9vu/dJr9LsO4RRTNxekyahSEiRolkEAAQQQ0AT2Ht0rd32RJsvzV4ZEpOOZHeT1azKlXrV6pqxPoMQURiZBAAEEEEAAAQQQQCCoAgRKgsrNYggggAACkSxAu5tIPt3wejbLhkpSc0TikjTMQLe+iU+Kl5ScFG0tAiXlv7/G6iS2jflyz4RPwuuFN2m3vgRKbu3SUkbd2tFh5RtGz5Hfdu5zuxvn0MehoyfkiuEzTdm9cwuenX/+Ld0fetOUuY2TPHhLR7ntqpbaj46fLJSOw2ZqVUpUwEQFTVTgRF2q3c6ufX9rbXFq1zxFn+KD3B9k7Ntfmb6vYE5IoCSY2qyFAAIIIPBa3uvy4FePhhRiYqdxMuCiO03ZA4ESUxiZBAEEEEAAAQQQQACBoAoQKAkqN4shgAACCESyAIGSSD7d8Hs2S4ZKglylJK04TT84s9veREqFEudWNzPmrxb1FY2XL4GS7pedL88MvEpnKiwqkrZp0z2yLX15gNSqURqwuOSeaVKk0hd+Xh8/c6uc06iOPsvM7DUy7ZNv/ZzV8faqVWJl+X9KQyOvfWaTKfO+0QapcI0K2divQRM/ldUbdmjfvvnYjdKiaUPtr9WzJo14Tf4+ctzUvQVzMtreBFObtRBAAAEEbsy+VZZsyw0pxJWNk+SjFHOqqgUjULJ79275/fffZcuWLbJv3z6pVauW1K5dWy666CI5++yzXVru379fiv/5Z7KqVatKjRo13JofOHBAioqKtM8rVaokp512mtuxR44ckWPHjmmfV65cWapUqSLqZ/ZL7S02tqTyW3nXoUOH5MSJE9oQNUfNmjXdDlfPsmnTJtm4caMUFhZKQkKCnH/++XL66ad7WkaM69j3dvjwYVmxYoVmqvzatm2reXIhgAACCCCAAAIIRI8AgZLoOWueFAEEEEAgwAK0uwkwMNP7LGDJUEkQq5QY294QKHH9+hgDJdEcJlE6vgRKLjirvrz7ZB8dVVXruGzwDI+/o588e7uc1bD0X8BfO+pNrZKHP1e1qpVlxZQ0vdWM+rOQTiNelUMmhzaeuDNJel3RXNvq0eMnteok9jDMZ+P7SVy9Wtpnm7bvlT7p7+mPFF+/lmSP66d/P2raF7LYttmfRw75vWtfHRryPbABBBBAAIHIF1iRv0pSP71RisX/8Kk/WjESI1nXfySXx7f3Zxrt3kAFSlR4YurUqZKTk6OFItxdKlQyduxYLVxiv1RQ44ILLtC/79y5s8yaNcvlFCdPntQCGsbrp59+EhVCcXX1799fli5dqn2k1uzatau88MIL+lDlceONN5brqsIrV1xxhezcuVMbpwIdc+fOLXPPqlWr5IknntCCNK6uJk2ayLPPPivt2rVzu95VV12l32/f5wMPPFBm/FNPPSW333673+8DEyCAAAIIIIAAAgiEhwCBkvA4J3aJAAIIIGBxAaqTWPyAonh7lguVBLFKSSDb3kRChRLn6iRtBk6N4t8U3wIlCso2c6ge4lDfq0CJCpaUd305+W6pW6u6PsSMCiW9ky6Sx/p21ufcUrBPbnzCnP+K2D5pzepVJfel/hJbqaSljapMoiqU2K8VU+7R2tuo690vv5eJc5c7MBg/fzV7jUw1uXpKsF9c2t4EW5z1EEAAgegUmPK/6TJ6ZYYlHv6ZDmNk2MWD/d5LIAIl8+bNkwcffNCnvaWnp0u/fqWBV2PwQ030ww8/SPXqpf/MZp987dq1ctNNNzms9f7770tiYmKZ9VWwpWXL0gpuQ4YMkZ49e2qhEvulwh3vvvtuuXv/9ttv5dZbb9XHOO9dVUCZPHmyzJzpXSvFwYMHy8iRI12GYJKSkmTbtm3aWrfddpvbvT3++OOizLgQQAABBBBAAAEEokOAQEl0nDNPiQACCCAQYAECJQEGZnq/BCwXKklMF0kcoz9TZkymX8/n7mZjoESNiclcZdo6kRAoabponO4R7dVJFIQvFUrU+JwX+0vtU6vpht5U3vh2xmCpHFsSyjhZWCSXDvLcJsfTSzt5eHfp3Oocfdjcxevl+TnLPN3m0+dj066Wrpeep91z6OgJuWK44x9YrM4crIdNJr+/Ut7673cO8y964S6pd1pJ6XhVnURZhfNF25twPj32jgACCISPwNAlI2XOxvctseFbE/rI1Ctf8nsvZgdKNm/eLNdcc43DvlQ7mC5dukj9+vXl77//FjXGZisNwtoHr1u3Tm9XM2fOHBk9erQ+z5tvvimXX355meedMmWKQ4URNUBV8Bg2bFiZsYsXL5a0tNIWnB9++KG0bt1aevXqJd9//70+fvny5RIXF+fWVoU3jBVJVq9eLXXr1tXH33vvvfL555873N+sWTO5+OKLtZ+pEIxz1RIVFnn66afLrGkMlJR32CtXrpSGDUtaGnIhgAACCCCAAAIIRL4AgZLIP2OeEAEEEEAgCAK0uwkCMkv4JWC5UImh9Y0twya29LL/ktevB/7n5rTi0n+Ja2bbm3APlFCdpOzb5Wug5JmBV0n3y87XJ/puU4H0HzfP7Wt7a5eWMurWjvrnZlUSWTjhTmlQp6Y+7yMz/iv/Xb3JjF8fbY7TT60mqrJKpZgY7fsJc5bLnMWlfwiifmYMlEx6b4W8s+h/DusbwzeLVm+Sh2f817T9hWoi2t6ESp51EUAAgegR6PLRtbJ2t2NIM1RP36ZBK1l84wK/lzc7UJKRkSEq/GG/BgwYoAU8qlUrDf2qz9avXy/333+/Q7DCWOkjPz9faytjvwYNGiQPPfRQmeft06dPmXCKuyojqv2MvfpIvXr1RLWkiY2Nlffee08ee+wxfe5HH31UBg4c6NL2yJEj0qJFC/2zbt26iQq12K+vv/7aofWMCtOooMj111/vMN+SJUvkvvvuc2gHlJWVJc2bl7QztF+uAiWqyoqqynLaaadp7XtiYmK01kVcCCCAAAIIIIAAAtEjQKAkes6aJ0UAAQQQCJAA1UkCBMu0pgtYKlQSpNY3qTmpEpdU8l/8ESgpfaWoTlL218vXQMnZDU+Xec/e5jCRClKoQIXzVeOUKrLkxf5StUqs/tHYt7+SD3J/cBiqQhuVK5dUMFHXyZNFUlRcXO7fC9bMHKKHPbT3/L5Zsv/vo6b9/ePFe7tLp4tLKqDsP3RMkke+VmbunJcGSO2ap2g/d1Uh5etpg/Rnd26XY9pGgzwRbW+CDM5yCCCAQBQKXPRWG8n/u8ASTx5/apzk9Vvr917MDJTs379f2rRpo++pbdu2WoCj0j8t+pw3q6qUqECI/XKu0tGjRw/Jy8vTPlYVPr74wrGimvN6xvlVYKVGjZJqbOoqKiqSyy67TPbu3at9f/vtt8tTTz1V8s9TTvt2tZZ9ns8++0xGjBihz5uZmalVX1FXYWGhdO/eXTZtKg0Sq7DKJZdc4vKcfvnlF1GBFPulvFRlFhUQsV/OgZJGjRrJokWLHJ7N75eACRBAAAEEEEAAAQTCToBASdgdGRtGAAEEELCaAIESq50I+ylPwFKhEkOVkoLcAslKzjL98Ixtb3ILDkhyVsm/JPb3CucKJcbqJLS6KX0TfA2UqDtnPHi9tL3gTIfX6c0vvpPZC9bqoY7m5zSQzFHXiwqV2K9DR45L55GvSVGRY1jkpRHXyRUtz9bHLft+q4x8+TO3r2vT+Dry4VO36p+b1UbHPmHDOqfK58/fIfY/Z0ifvUTmr9hQZj8fPX2rNImro/182+79cv1j7+hj1PO/Pbq3/v3wF7Nl5Q+/+/srGPL7aXsT8iNgAwgggEDEC9Sf/i8pLC60xHPGxsTKH4O3+70XMwMl//vf/2T8+PFaoEIFN15++WW57rrr3O7x5MmTkpCQoH+uAiSTJ0/Wv3duZ+Pc1uXLL78UVbnE1eXcIueHH35wqBIye/Zs6dSpk37rgw8+KPPmlVa2U8GRCy64oMzUqnJJTk6O9nNVfUSFYqpUKflnSlUtpH///vo9d955pzz55JPlntEzzzwjai/2S7XKMZo4B0pmzZolnTt39vvcmQABBBBAAAEEEEAgvAUIlIT3+bF7BBBAAAELCNDuxgKHwBZ8ErBMqCQIVUqMgRKFFJO5yicrd4PDNVDi3OqGQEnpCVckUFKzelX5fHw/qVWjpDqH8frr76NSpXKs1KxWGiSxfz5g/DxZ90vZ/+J4yv2p0v6ixvo0q/K2ybDJ7oNWya2byKRh1+rjd+87JN1GvWHKO64mMQZm9h44LFc/8LrLue++to3ce+Nl+mfj3vlK3s/5QapVrSwfPHWLnFn/NO2z4ycKpePwmaKCL5Fw0fYmEk6RZ0AAAQSsK0CgxPuzUa1hqlatqrWUcXft2rVLrr76ar3ti6ru8corr+jDf/zxR0lNTdW/nzhxovTq1Uv/3thep2/fvqICJjt37tQ+HzZsmNZqx345h1PU3KecUvrPiyqs0q9fP3384MGDZdSoUQ5b3717t7Rv317/mQqXqPY49uv111/X2tvYL1WdRbXfKe9yXnf69Omaif1yDpR8++23otr1cCGAAAIIIIAAAghEtwCBkug+f54eAQQQQMBPAaqT+AnI7SETsEyoJAhVSgLR9iZcAyXxE9Ok2sVNtfeOMInjr19FAiVqBtXG5tVRPaVF04Yef59V+5qn38iVT5f/5HKsr4GSO7q2kvtu6qDPtXrDDhk08VOP+/BmQOMGteXT527Xhz48/QtZtGaz21uXvjzAIVijqrCcUrWyVI4tbeEzce5yeffL771ZPizG0PYmLI6JTSKAAAJhK0DLm4odnQqX7NixQ7Zu3SpbtmzRvr755hvtf42Xc6CkuLhYC2TY29T07NlTJk2apN9iDFuowMiSJUvko48+0j5v2bKlQ8URY/uclJQUeemllxzWVu1qVFjEvpYKbaxatcohEOMcGMnOzpYLL7xQn8cYcFE/vOOOO6R27drlou3Zs0fmzp2rj3nkkUfknnvucfmM6oebN7v/Z7+KnQ53IYAAAggggAACCISjAIGScDw19owAAgggYBkBAiWWOQo2UgEBS4RKnKqU2DJsYku3VeBp3N9iDJRk2LZLum2b3/OHY6DEuTpJm4FT/XaIpAmeGXiVdL/sfP2Rej85R37N3+f1Iw7q0VZUwKO6obWN8eZN2/fKmNlL5Kete9zO+eK93aXTxefon3/94zYZ+oL7CiXDerWTAdcl6uNfX7BOXv7InCo8rz96g7Q8t5E2964//5ZrH3qzXIvW58XJtAd6aAEbV9di22YZNe0Lrz3DYSBtb8LhlNgjAgggEL4CXT66Vtbu/s4SD9CmQStZfOMCv/diZssb42Z++eUXUW1nli1bJtu2effP+s6BEjXfU089JW+8UVLtTbWYWbdunRbyUHOqQIn9Wr16tdZyRrWusV9r167VAh2qEkqHDqWBX3eteFR1lBdffFG//5133pHLLiut+Kba92zYUNJqULXDUW1xjJdqcbN8+XK/zuSWW26RZ599Vp/DGJpxDsn4tRA3I4AAAggggAACCIS1AIGSsD4+No8AAgggEGoB2t2E+gRY318BS4RKEtNFEsfoj5IZk+nvYzncb2x7k1twQJKz8vyePxwDJU0XjdOfm+okfr8CbidQbXAub3GWXHrhv+TYiZOyecefsmL977Jr399eL7pm5hCpFBMjHy3Nk2ffWur1fWYNrFo5VlZOS5MYidGmvPelbFn5w+8epz+txikydtDVcuHZDaR2zWpy4mSh7PjjgLyavUYWfPOLx/vDcQBtb8Lx1NgzAgggEB4CQ5eMlDkb37fEZm9N6CNTr3SsslGRjZkdKDl+/LgW6nAOW7jam6oCYq8Ioj53FShZsWKFVunDfn366afSokULef/99/V2M/Zwh6qC0qlTJ33sq6++KsnJyVrVkoceekj/uT1o4rwnVUHlyiuv1H/cp08fGTt2rPa9CpKoQIn9GjNmjMO+1M+d29NU5DzUftW+7ZdxzmuuuUamTZtWkWm5BwEEEEAAAQQQQCDCBAiURNiB8jgIIIAAAsEToDpJ8KxZKbAClgiVGFrfBKJKSVpxmo4Yk+l/BYdwC5RQnSSwv0Nmzt6iSQN58/He2pQjXvpMlq/faub0zGWyAG1vTAZlOgQQQAABXWDK/6bL6JUZlhB5psMYGXbxYL/3YmagRLWNUWGS+fPnu9xXYmKiXHTRRZKQkKD9r/pq1aqVHDp0SBvvKlCiAirGtjIqGDJo0CAZMWKEHlpR39sDI8YAxsCBA7XQybBhw2ThwoXaGipwMnv2bLduqkKIqnZiv3744QepXr26ODuplj3169d3mEcFUGy20sqOo0eP9vl8GjduLFdddZV+H4ESnwm5AQEEEEAAAQQQiAoBAiVRccw8JAIIIIBAIAQIlARClTlDJRDyUIlT65vs5GzJz803jcPY9iY5O09y8w/4NXe4BUqoTuLXcQft5jq1qsv7GTdLvdNqSHGxSLvB0+VkYVHQ1mch3wVoe+O7GXcggAACCHgnsCJ/laR+eqMUS7F3NwRolKpYlnX9R3J5fHu/VzAzULJgwQIZPny4w54GDx4svXr1kiZNmmitaoxXcXGxNGvWTP9Rt27dZMqUKWWeaeTIkZKdna39vG3btqJa0bRu3VoPorz++utyxRVXaJ9nZGRorXbUpeZWFU1UcMV+qXYyKjTi7po3b55D2xxVLUSFOjp27Cg7d+7UbnNXKUSFV1TlFPvlrhKKL4dGoMQXLcYigAACCCCAAALRI0CgJHrOmidFAAEEEDBZgHY3JoMyXcgFQh4qMVQpKcgtkKzkLNNMEtMTJXFMojafGW1vwilQYqxOQqsb016pgEz08TO3yTmNTtfmXv/rLrnzuY8Csg6TmidAoMQ8S2ZCAAEEECgrcGP2rbJkW25Iaa5snCQfpcwxZQ9mBkpUG5i3335b35en8EZ+fr4eBFE3uQtqqDCJCpXYrzlz5sitt96qf79+/XqpUaOG9v2XX36pVTCxX+r5jO1uVq5cKQ0bNnRrp6qltGzZUv9chU/69evn0O5mxowZDlVE7INnzpwp48aVtrR89913pV27duWe08GDB2X58uVy+umnS1xcnDRq1EiqVaum30OgxJTXnEkQQAABBBBAAIGIEyBQEnFHygMhgAACCARD4Mi6FZI/rEcwlmINBIIqENJQSQCrlMQnxUtKTopmGU2BEudWN2kTPpU1G3cE9Z1iMe8FUjskSEb/LjJv2Y/y9Buh/cMj73fNSNre8A4ggAACCARK4LW8N+TBrx4J1PRezTux01gZcNFdXo31NMjMQIlq1bJlyxZ9SWPQw9U+nAMYXbp0kczMzDJD//rrL1HtcuyX+mt7axlVsWTu3Ln6Z85jjZOpoIiqQOLpMlYaqVmzpqSlpcnkyZO129T3a9askapVq5aZxjnMoqqavPHGG+UuN3XqVJk0aZI+RrXneeCBB/TvCZR4Oi0+RwABBBBAAAEEolOAQEl0njtPjQACCCDgpwDtbvwE5HZLC4Q0VJKYLpI4RvMxu0pJWnGa7u5v25twqVBCqxtL/6q53Nzpp1aTv/4+Gn4bj+IdD+rRVtQXFwIIIIAAAmYL7D26V+76b5os37HS7Km9mq9jfAd5vWum1KtWz6vxngaZGSjp0aOH5OXl6UuuXr1a6tat63ILCxcuFBWeMF7lBTD69u0rq1atKjOXCl84z6Na7Hz//fdlxj788MNaOMTTpQIjN998s8th/fv3l8cff9zlZ8eOHZOuXbvKtm3b9M9VWKRnz54ux//222+izFRVFPuVk5MjZ511lv49gRJPp8XnCCCAAAIIIIBAdAoQKInOc+epEUAAAQT8FCBQ4icgt1teIKShkrTSPvG2/2fvPqCjrPI+jv9DAFOkxEhIgkgREymCEBApChEUVyGoa2EtqIhBiqBS1rVRLBRRXKUGAcGyrvKKGtaKG1AiKAxRFCEI0icBxEAghJbkPXfYDDOpU57nmXlmvs85OUrmPv/7v587nvU97897J1rEMsGiiVe/jH4S1zPOVisYAiVlTyfpMHi2Jo4UQQABZwGuveEbgQACCCCgp8A7W96TERmP6TlFpbVnJs+Quy8boNncZQMlKrjRokULl+urq2b++te/2sY/88wzoq55KX3UFTYqUFF6HY36fWFhoe1amkcffbTcHFWdILJkyRKZOHFiuXc++OAD6dChg9PvX331VXn99dfLjf3iiy9cWltJSYkkJyc7BUNKi6Wnp0urVq0q9VGBkMGDBzt9PnToUBk5cqTTqSYqtKKu8cnNzbWPVSe8qOt0HB8CJS5/FRmIAAIIIIAAAggElQCBkqDabhaLAAIIIKCVwPau2vwXWlr1Qx0E9BDwWajE4ZQSta60kPJHUXuyXi2vvTHDCSWcTuLJt4R3EPBMYMMbwzx7kbcQQAABBBBwQWDst0/KG78scmGkdkMGt3lAXrr6Re0KikjZQIm7xdUVMKWngXz//fdy1113OZWIjo6WG264wXZVjLqmpvSqmormUWM2bNggNWvWLPfxrl275Nprry33+y1btkitWrWcfl9RH40bN5aVK12/vnDu3Lny0ksvOdVVQRsVSqnuUaegfP311+WGde7cWRo0aCDbtm0T1bfjExsbKx9++KE0bNjQ6fcESqrT5nMEEEAAAQQQQCA4BQiUBOe+s2oEEEAAAS8ECrMyxTo8xYsKvIqAeQR8FirplyES19MGpdXVN46BElU3JK38Mdau7oy/B0o4ncTVnWQcAtoIzB97syQlxmtTjCoIIIAAAgiUEdh2eLuMX/OcfLqz+oCBFng3Nu0jE7s8Iy3qX6JFOXsNLQMlqqg6kWT2bNdO4VPhk2bNmskLL7xg72fhwoXSo0ePCteorpNRYYzSp1evXpKWVj7ofuLECWndurVTDXVKyJgxY1y2s1qtcvXVVzuNVyew3H///dXWUPOrE1JUKMWVR4Vu1EkrTZo0KTecQIkrgoxBAAEEEEAAAQSCT4BASfDtOStGAAEEEPBSgOtuvATkddMJ+CRUEt9TpG+G3Wp58nKxrrR6bafVtTf+HCgJb9dc4qafu6993ifrRP3wIICAfgJDUjqJ+uFBAAEEEEBAL4Hvc9fJ899PkdXW7/Sawla3e3xXebrzE9I5Vvv/XZsxY4bMnDnT4/4dTygpLaKutHn++ecrvDJGjVFBEBXwaN++vZQ9eWTQoEHy1FNPVdhP2atsxo8fLwMHDqxw7AMPPCDffPON/bOlS5fa5nPnUYEXddpJ6bN27VrbCSOuPj/++KO8+OKLlZ7KooIkw4YNkzvvvFPCw8MrLOsYornpppvktddec3V6xiGAAAIIIIAAAggEsACBkgDeXJaGAAIIIKCPgHVEihRuyNSnOFUR8FMBn4RKdDilJBgCJY6nkxAm8dN/oGgr4AQ6JjaStLH9A25dLAgBBBBAwL8EVKjktaxZup1Uok4mGdl+uC5hEj0li4qKRJ3ysXfvXsnNzZULLrhA1JUx8fHxEhISoufUmtQuKSmR6667Tnbs2GGr17t3b5k3b55HtZWFclCnq+Tn59sMSn9CQ0M9qslLCCCAAAIIIIAAAsEtQKAkuPef1SOAAAIIeCCwvWu0B2/xCgLmFzA8VKLDKSWO196szMmX5PRNHm2Mv55QwlU3Hm0nLyGgicCGN4ZpUociCCCAAAIIVCWgrr+Z9/MCeeOXRZpCDW7zgAy5/EHNr7nRtMkALZaVlSW33XabfXVvvPGGJCcnB+hqWRYCCCCAAAIIIICA2QQIlJhtx+gXAQQQQMCnAoVZmWIdnuLTHpgcAV8KGB4qSZogkjTetuSclTmSnpzu1fIdAyWqUEjaGo/q+WugpPlXU+zr4XQSj7aWlxDwWGD+2JslKTHe4/d5EQEEEEAAAXcE3tnynryX/YHXV+B0b9RVBiTcLndfNsCd6RmrocDIkSPlP//5j62iuppmzZo1wmkiGgJTCgEEEEAAAQQQQMArAQIlXvHxMgIIIIBAsAnkLZgmfy6YGmzLZr0IOAkYHipJLbHPb5loEcsEi1c7osW1N/4YKOF0Eq++FryMgNcCQ1I6ifrhQQABBBBAwCiBQycOyUfb0+XTHV9Ixp5VUiLn/r25qh5CJESSG/eQG5vdIDdf0leiwziF06g9U9fbqGt5YmJi5MCBA7Jw4ULbT+kzbtw4GTJkiFHtMA8CCCCAAAIIIIAAAtUKECiplogBCCCAAAIInBOwjkiRwg2ZkCAQ9AKGhko0vvrGMVDi6bU3/hgo4XSSoP/HEgAfC3RMbCRpY/v7uAumRwABBBAIVoFM6xr58eBPsunQZsnO2yq5x/fL/oIDNo6GkTESG9FQEqMSpHV0S7miQTvpFt8lWKl8uu5169bJgAEVnwYTGRkp3377rdSrV8+nPTI5AggggAACCCCAAAKOAgRK+D4ggAACCCDghsD2rvyXH7+NrwAAIABJREFUW25wMTTABQwNlfTLEInraRP19uobx2tvAiVQ4ng6iSXbKg+99FGAf/tYHgL+KbDhjWH+2RhdIYAAAggggIBfCGzfvl2uv/76Cnv55z//KX379vWLPmkCAQQQQAABBBBAAIFSAQIlfBcQQAABBBBwUYDrblyEYlhQCRgWKtH4lJLUklT7PoWkrXF7z/zphJKyV93M+2SdqB8eBBAwXmD+2JslKTHe+ImZEQEEEEAAAQRMIXD8+HG5/PLLy/U6fvx4GThwoCnWQJMIIIAAAggggAACwSVAoCS49pvVIoAAAgh4IUCgxAs8Xg1oAcNCJRqeUuJ47U3y8k2y0prv1h75U6AkfnqqhLVrbuufMIlb28hgBDQXIFCiOSkFEUAAAQQQCDiB77//XjZv3iz5+fnSsWNH6dChg4SFhQXcOlkQAggggAACCCCAQGAIECgJjH1kFQgggAACBghYR6RI4YZMA2ZiCgTMJ2BIqETDU0qSJiRJ0vgkG7Qn1974S6Ck7OkkHQbPNt+Xh44RCCCBjomNJG1s/wBaEUtBAAEEEEAAAQQQQAABBBBAAAEEEAhmAQIlwbz7rB0BBBBAwC2B7V2j3RrPYASCTcCQUEnSBJGk8XbatJA0j5jje8ZL34yz95ObOVDS/Ksp9vVzOolHXwVeQkBzgQ1vDNO8JgURQAABBBBAAAEEEEAAAQQQQAABBBDwhQCBEl+oMycCCCCAgOkECrMyxTo8xXR90zACRgsYEipxuPrGMtEilgkWj5aZWpJqf8/da2/84YQSTifxaNt5CQHdBbj2RndiJkAAAQQQQAABBBBAAAEEEEAAAQQQMEiAQIlB0EyDAAIIIGBugbwF0+TPBVPNvQi6R8AgAd1DJRpdfdMvo5/E9YyzqZgxUMLpJAZ9oZkGATcFCJS4CcZwBBBAAAEEEEAAAQQQQAABBBBAAAG/FSBQ4rdbQ2MIIIAAAv4kQKDEn3aDXswgoHuoxOGUkpyVOZKenO42izfX3vj6hBLH00m46sbtrecFBHQV6JjYSNLG9td1DoojgAACCCCAAAIIIIAAAggggAACCCBghACBEiOUmQMBBBBAwPQC1hEpUrgh0/TrYAEIGCmga6hEg1NKHAMlyiUkbY3LPL4MlJS96oZAicvbxkAEDBPY8MYww+ZiIgQQQAABBBBAAAEEEEAAAQQQQAABBPQSIFCilyx1EUAAAQQCSmB71+iAWg+LQcAoAV1DJRqcUuLptTe+DJRw1Y1R317mQcBzAQIlntvxJgIIIIAAAggggAACCCCAAAIIIICA/wgQKPGfvaATBBBAAAE/FSjMyhTr8BQ/7Y62EPB/AV1DJakldgDLRItYJljcAnEMlEy07JUJlj0uve+rQEnZ00k6DJ7tUr8MQgABYwXmj71ZkhLjjZ2U2RBAAAEEEEAAAQQQQAABBBBAAAEEENBYgECJxqCUQwABBBAIPIG8BdPkzwVTA29hrAgBAwV0C5UkTRBJGm9fSVpImlurcrz2ZmVOviSnb3LpfV8FSjidxKXtYRACPhcgUOLzLaABBBBAAAEEEEAAAQQQQAABBBBAAAENBAiUaIBICQQQQACBwBYgUBLY+8vqjBPQLVTicPWNJ6eUpJak2hFC0ta4BOKLQAmnk7i0NQxCwC8EOiY2krSx/f2iF5pAAAEEEEAAAQQQQAABBBBAAAEEEEDAUwECJZ7K8R4CCCCAQNAIWEekSOGGzKBZLwtFQE8BXUIl8T1F+mbY216evFysK60uL8Px2pvk5ZtkpTW/2nd9ESjhdJJqt4UBCPiNAIESv9kKGkEAAQQQQAABBBBAAAEEEEAAAQQQ8EKAQIkXeLyKAAIIIBAcAtu7RgfHQlklAgYJ6BIqcTilJGdljqQnp7u8GsdAiavX3hgdKHE8nWTeJ+tE/fAggIB/C2x4Y5h/N0h3CCCAAAIIIIAAAggggAACCCCAAAIIVCNAoISvCAIIIIAAAlUIFGZlinV4CkYIIKCxgOahEi9OKYnvGS99M/raVuiPgRKuutH4y0c5BAwSmD/2ZklKjDdoNqZBAAEEEEAAAQQQQAABBBBAAAEEEEBAewECJdqbUhEBBBBAIIAE8hZMkz8XTA2gFbEUBPxHQPNQSdIEkaTxtgW6e0pJakmqHcaVa2+MPKGEq2785ztLJwi4I0CgxB0txiKAAAIIIIAAAggggAACCCCAAAII+KMAgRJ/3BV6QgABBBDwGwECJX6zFTQSoAKah0pSS+xSlokWsUywuCTneO2NPwVKOJ3Epe1jEAJ+KTAkpZOoHx4EEEAAAQQQQAABBBBAAAEEEEAAAQTMKkCgxKw7R98IIIAAAoYIWEekSOGGTEPmYhIEglVA01CJwyklyjMtJM0l1qQJSZI0Psk21pVrb4w6oYTTSVzaPgYh4JcCHRMbSdrY/n7ZG00hgAACCCCAAAIIIIAAAggggAACCCDgigCBEleUGIMAAgggELQC27tGB+3aWTgCRgpoGirplyES19PWvqtX38T3jJe+GX1t7/hLoITTSYz8BjIXAtoLECjR3pSKCCCAAAIIIIAAAggggAACCCCAAALGChAoMdab2RBAAAEETCZAoMRkG0a7phbQLFQS31Okb4bdYnnycrGutFZrk1qSah9T3bU3ep9QEt6uucRNP9fPvE/WifrhQQABcwlseGOYuRqmWwQQQACBgBEoKSqRkpKz10GGhIRISGhIwKyNhSCAAAIIIIAAAggggIBxAgRKjLNmJgQQQAABkwkUZmWKdXiKybqmXQTMLaBZqMSDU0r6ZfSTuJ5xNkBfB0ocTychTGLu7zTdB7fA/LE3S1JifHAjsHoEEEAAAUMEclfnysEfDsofP/4heb/kSYG1QAr3F9rmDm8YLpHxkRLVJkqir4iWmCtjJLZ7rCF9MQkCCCCAAAIIIIAAAgiYW4BAibn3j+4RQAABBHQUyFswTf5cMFXHGSiNAAIVCWgSKvHglBJ3rr3R84QSrrrhnwsEAkeAQEng7CUrQQABBPxR4HjOcdmxbIfsXr5brP+1StHJIpfaDD0vVOKvjZeL+14szW5pJhFxES69xyAEEEAAAQQQQAABBBAIPgECJcG356wYAQQQQMBFAQIlLkIxDAEdBDQJlSRNEEkab+suZ2WOpCenV9mpY6BEDQxJW1PpeD0DJc2/mmKfl9NJdPhyURIBAwWGpHQS9cODAAIIIICA1gLZb2bL1kVbJeebHK9Kx10TJwkPJEji/Yle1eFlBBBAAAEEEEAAAQQQCEwBAiWBua+sCgEEEEBAAwECJRogUgIBLwQ0CZWknr03Xj2WiRaxTLBU2ZGr197oFSjhdBIvvjC8ioAfCnRMbCRpY/v7YWe0hAACCCBgVoG8X/Pk1zm/yua0zVJ8qliTZdSoXUNaPtRSWg1rJVGtojSpSREEEEAAAQQQQAABBBAIDAECJYGxj6wCAQQQQEAHAeuIFCnckKlDZUoigICrAl6HSty8+sYxUDLRslcmWPZU2KpegRJOJ3H1m8E4BMwhQKDEHPtElwgggIBZBA6sPSBZL2bJrvRdurTcpF8Taf9ke4m5KkaX+oWFhbJv3z5NaterV08aNGigSS2jiuTk5EhBQYFtujp16kjDhg2Nmpp5EEAAAQQQQAABBBDwWIBAicd0vIgAAgggEOgC27tGB/oSWR8CphDwOlTSL0MkrqdtrdVdfeN47c3KnHxJTt9UoZEegRLH00ks2VZ56KWPTLE/NIkAAlULbHhjGEQIIIAAAgh4LZD7ba7txL19X2sTyKisoUa9GknS+CSJvTrW657LFvjss89kxIgRmtS96aab5LXXXtOkllFFUlJSZNOms//3RZcuXeTtt982amrmQQABBBBAAAEEEEDAYwECJR7T8SICCCCAQKALECgJ9B1mfWYS8CpU4uYpJaklqXaakLQ1FTJpHSgpe9XNvE/WifrhQQAB8wvMH3uzJCXGm38hrAABBBBAwGcC+dvzZc1ja3Q7maTswtRJJV1mdJG6l9TVdM0ESgiUaPqFohgCCCCAAAIIIICAIQIESgxhZhIEEEAAATMKECgx467RcyALeBUqceOUEsdrb5KXb5KV1vxyrFoHSuKnp0pYu+a2eQiTBPK3mLUFowCBkmDcddaMAAIIaCdQfKZY1jy6RjbNqvjkPO1mcq7UekRrW6ikRs0amk1BoIRAiWZfJgohgAACCCCAAAIIGCZAoMQwaiZCAAEEEDCTQGFWpliHp5ipZXpFICgEPA6VuHFKiWOgpLJrb7QMlJQ9naTD4NlBsZcsEoFgESBQEiw7zToRQAABfQSy38yWVQ+s0qd4NVV7LOohifcnajZ32UDJgAEDpH///h7Vj4mJkaZNm3r0rq9eGjlypGzcuNE2vbryZvLkyb5qhXkRQAABBBBAAAEEEHBZgECJy1QMRAABBBAIJoG8BdPkzwVTg2nJrBUB0wh4HCpJmiCSNN6+zrSQtArXHN8zXvpm9LV9ZkSgpPlXU+x9cDqJab6GNIqAywJDUjqJ+uFBAAEEEEDAXYHjOccl494M2ff1Pndf1WR8o16NJPmtZImIi9CkXtlAyfjx42XgwIGa1KYIAggggAACCCCAAAII6CNAoEQfV6oigAACCJhcgECJyTeQ9gNewONQicPVN5aJFrFMsFRolVqSav99RdfeaHVCCaeTBPxXlQUiYAuTECjhi4AAAggg4InAr3N/ldVDV3vyqmbvdJ/TXVo93EqTegRKNGGkCAIIIIAAAggggAAChgoQKDGUm8kQQAABBMwiQKDELDtFn8Es4FGoxMWrbxyvvdEzUMLpJMH8DWbtwSLQMbGRpI317Dj/YDFinQgggAAC5QWKzxTLFylfyJ7P9viUp/FfGkufT/pIjZo1vO5D70DJ8ePH5dSpU7Y+69SpI6Ghoba/Ly4ult9//11+/vlnOXLkiCQmJspll10mUVFRbq3pjz/+kM2bN8u+ffuksLBQWrVqJW3atJHIyEhbndOnT0tBQYHt72vXri0REc4nuzj2V93nevSv+lLr37Ztm2RnZ0tRUZHNIiEhQerXr++WRelgb+opK2XmuF/KKDMzU3bv3i1NmjSRTp06Sb169TzqjZcQQAABBBBAAAEEtBEgUKKNI1UQQAABBAJMwDoiRQo3ZAbYqlgOAoEn4FGoxOGUkpyVOZKenF4Oprprb7Q4ocTxdBKuugm87yYrQqBUgEAJ3wUEEEAAAU8EclfnyidXf+LJq5q/k/JtisR2j/W6rt6Bkptuukm2bNli63Py5MnSv39/mTRpkqSnp9uDHo6LaN26tbz66qvSvHnzKtemAiSzZ8+W9957r8Jx11xzjUyfPl0++OADeemll2xj2rZtK8uWLXMaf8stt8jGjRttv+vevbssXrzY6XO9+leTrFmzRp555hnZsWNHhWto1qyZvPDCC9K5c2eX9lmLer1797b388orr9jmffzxx8vNr/bw7rvvdqkvBiGAAAIIIIAAAghoL0CgRHtTKiKAAAIIBIDA9q7RAbAKloBAcAi4HSpx4ZQSx0CJUgxJW+OE6W2gpOxVN6kvfSzrs/cFx4axSgSCTIBASZBtOMtFAAEENBLY+PJGWTtmrUbVvCtz1fSrpO3ott4VEREjAyVPPPGErF692vZT3ZOWlia9evWqcJgKqAwcOFAOHTpUZZnY2FjbaSUrVqywjVNhlU8+cQ4EpaSkyKZNm2yfd+nSRd5++22nmo6BEq36P3nypMyYMUPmz59fHYPt84cfflhGjRplO2GlokfLej179pQ9e86ewHPXXXfJu+++W+GcTz31lAwaNMil/hmEAAIIIIAAAgggoL0AgRLtTamIAAIIIBAAAgRKAmATWUJQCbgdKnHhlJLUklS7Ydlrb7wNlHDVTVB9PVksArLhjWEoIIAAAggg4JZAxsAM+e2t39x6R6/Bl957qSQvSfa6vJGBkrLNqhM4GjVqJFlZWeVOK4mOjpbvvvtOatas6fTagQMHRJ2iUXqNTemHSUlJcumll9qujVH1Knq8DZRo0b+q8cgjj8inn37qVK5FixbSrl072+82bNhQ7tQSFe547rnnKlyXlvUcAyVVfbnU3jRs2NDr7x8FEEAAAQQQQAABBDwTIFDimRtvIYAAAggEsEBhVqZYh6cE8ApZGgKBKeB2qCS1xA5hmWgRywSLE0y/jH4S1zPO9jstAyVlTyfpMHh2YG4Iq0IAAbsAgRK+DAgggAAC7gp83PVj2b9mv7uv6TK+YZeG0v+7/l7XLhsoUdeY3HzzzW7XVQGQJk2alHvP8YSP0g/VSSATJkwQFaJQT1FRkWRkZMiQIUOc3ldX2vTp08fpd2PHjpUPP/zQ/jsVSpk7d669lvrgt99+k6FDh5YLZWgVKPGm/7Vr1zpdFRMZGWkLiqirgByf//73v/Loo486BWfUNUGtWrVyGqd1vYoCJeqqoNtvv13q1q0rq1atkpCQEJk2bZrb3xFeQAABBBBAAAEEENBOgECJdpZUQgABBBAIEAECJQGykSwjKAXcCpUkTRBJGm93SgtJczJzvPZmZU6+JKefPZ5aPd6cUMLpJEH51WTRQS4wf+zNkpQYH+QKLB8BBBBAwB2Bt2LfksL9he68otvY8Ibhcm/uvV7XLxso8bSgOjVk3rx55V4vGyhRAZDPP/+83Mkj6sX33ntP1FUqpU/ZUzl27tzpdA2OCrGo62xU0KHsc/ToUdtYx2txtAiUeNO/Cs7ceOONsm3bNnu7//73v6Vjx44VsqtgzA033GD/rFOnTvKvf/3LFuhQj9b1VM2ygRJ1bdBXX30lERERnn41eA8BBBBAAAEEEEBABwECJTqgUhIBBBBAwNwCBErMvX90j4BboRKHq2/KnlLiGChRqiFpa+y4ngZKOJ2E7ycCwSlAoCQ4951VI4AAAp4KlBSVyKK6i+TM8TOeltD0vZoRNeWB/AckJPRsuMDTx+hAyZIlS6Rbt24VtltYWCht2rSxf3b99dfLnDlz7H9euHChvPDCC/Y/q5M9VOiksueDDz6QJ554wv6xFoESb/pXp3sMGjTI3s99990nzz77bJVb9/zzz8uiRYvsY9RVOYmJibY/a11P1SwbKFHmPXr08PTrxXsIIIAAAggggAACOgkQKNEJlrIIIIAAAuYVyFswTf5cMNW8C6BzBBAQl0Ml8T1F+mbYxZYnLxfrSqv9z5Vde+NJoCS8XXOJm55qrz3vk3WifngQQCDwBQiUBP4es0IEEEBASwECJVVrunpCyZYtW6RWrVqVFlNhk9zcXNvnycnJ8sYbb9jH3nPPPbJmzblA+ebNm6V27dqV1jpz5ox06NDBfm2MFoESb/p/8803bdfblD7vvvuudO7cuUrY7777Tu6999xJNOp6n+uuu872jtb1VM2ygZIffvhB1EkwPAgggAACCCCAAAL+JUCgxL/2g24QQAABBPxAgECJH2wCLSCggYDLoRKHU0pyVuZIenK6fXbHQMlEy16ZYNlj+8yTQInj6SSESTTYYEogYCKBISmdRP3wIIAAAggg4KpAMFx58+CDD8rtt9/uKol9nLp2pmHDhuXec7zyRgUTVEChqqdPnz72K2GuueYap9M5HMMmLVq0kC+++KLaPu+44w6xWCy2cd4GSrztf+LEiaJOOCl9Bg4cKPXq1atyDQcPHrRdBVT6qBNXHnroIdsfta6napYNlGzfvr1aYwYggAACCCCAAAIIGC9AoMR4c2ZEAAEEEPBzAQIlfr5BtIeAGwIuhUqqOKXE8dqblTn5kpy+yTa7u4ESrrpxY9MYikAAChAoCcBNZUkIIICAzgIfd/1Y9q/Zr/MsrpVv2KWh9P+uv2uDqxhV9sqb8ePHiwo6aPU4BkqSkpLk/fffr7K043jHQElJSYmoEEnp06tXL0lLS6u2zTFjxsiyZcts47wNlHjTv5pfXXGzevXqanuuasCAAQPs1/5oXU/N6xgoadu2rd3Oq6Z5GQEEEEAAAQQQQEBzAQIlmpNSEAEEEEDA7AIESsy+g/SPgLOAS6GSpAkiSeNtL5Y9pSS15Nw1NSFpZ4+9djdQ0vyrKfamOJ2EbygCwSfQMbGRpI31/v8RF3xyrBgBBBAIXoGMgRny21u/+QXApfdeKslLkr3uxchASY8ePWThwoVV9lxZoOTUqVPSsmVL+7tlr8OprKgKyLz99tu2j70NlHjTv5q/7Okfnmye47q1rle2x+uvv17mzJnjSZu8gwACCCCAAAIIIKCzAIESnYEpjwACCCBgPgHriBQp3JBpvsbpGAEEKhVwKVSSWmJ/3zLRIpYJZ4+rdrz2Jnn5JllpzXcrUMLpJHwxEUCAQAnfAQQQQAABdwU2vrxR1o5Z6+5ruoy/avpV0nZ0W69rmyVQohZ65ZVXyqFDh2xrbt++vSxdurTa9aempsrXX39tG+frQInj9Tuqn6effrra/ssOaNy4sfTu3dv2a63rqZqOIRUCJW5vDy8ggAACCCCAAAKGCRAoMYyaiRBAAAEEzCJAoMQsO0WfCLgnUG2oxOGUElV5efJysa60StKEJEkan2SbrPTaG3dOKOF0Evf2idEIBKIAgZJA3FXWhAACCOgrkLs6Vz65+hN9J3Gxesq3KRLbPdbF0ZUPM1Og5J577pE1a86eThgdHS0//PBDtevv06ePbNu2zTbO14GSf/zjH05X/mzYsEHq1atX7RoqG6B1PTUPgRKPt4MXEUAAAQQQQAABQwUIlBjKzWQIIIAAAmYQIFBihl2iRwQ8E6g2VNIvQySup6146dU38T3jpW9GX9vv3A2UOJ5OYsm2ykMvfeRZ47yFAAKmF9jwxjDTr4EFIIAAAggYJ1B8pli+SPlC9ny2x7hJK5ip8V8aS59P+kiNmjW87sNMgRLH62vUwlXvCQkJlRrk5ORI9+7d7Z/7OlAyf/58mTLl3LWb7777rnTu3LnKPTx69KisXr1a6tevL3FxcRIbGythYWG2d7Sup2oSKPH6HykKIIAAAggggAAChggQKDGEmUkQQAABBMwkQKDETLtFrwi4L1BlqCS+p0jfDHvR0lNKUktS7b9T1970jKsn45Musv0u760VkrdkRblGyl51M++TdaJ+eBBAIDgFCJQE576zagQQQMAbgV/n/iqrh672poTX73af011aPdzK6zqqgJkCJV999ZU8/PDD9nXfdNNN8tprr1Xq8Oyzz8o777xj/9zXgZIVK1bIkCFD7P2osMvixYur3MfZs2fLyy+/bB8zfPhwefzxx21/1rqeqkmgRJN/rCiCAAIIIIAAAgjoLkCgRHdiJkAAAQQQMJvA9q7RZmuZfhFAwE2BKkMlFZxS0i+jn8T1jLPN4kmghDCJmxvEcAQCUIBASQBuKktCAAEEdBY4nnNcMu7NkH1f79N5porLN+rVSJLfSpaIuAhN5jdToKS4uFhuvvlm2bRpk33t06dPl1tuuaWcxRdffCHDhjmfRObrQMnJkydFXcGzZ8+5E25UWEStqaJn586dkpKSIgUFBfaPMzIy5OKLL7b9Wet6qiaBEk3+saIIAggggAACCCCguwCBEt2JmQABBBBAwGwCBErMtmP0i4BnApWGSio4pUTN4HjtzSprfpUnlJQ9naTD4NmeNclbCCAQMAIESgJmK1kIAgggYKhA9pvZsuqBVYbOWTpZj0U9JPH+RM3mLhsoSU5Olh49enhcXwUmYmJi7O+rU0S2bNli+7Oqu3DhwiprO46/5pprZNGiRU7jV61aJYMGDXL63e233y79+vWTJk2ayN69e22nrrz99tvl5vF1oEQ1pAIhgwcPdupt6NChMnLkSKldu7b99+vXr5dRo0ZJbm6u/Xe9e/eWefPmOb2rdT0CJR5/9XkRAQQQQAABBBAwVIBAiaHcTIYAAgggYAYBAiVm2CV6REAbgUpDJUkTRJLG2ybJWZkjlokWe6BE/W6iZW+VgZLmX527r5zTSbTZK6ogYHYBAiVm30H6RwABBHwjUHymWNY8tkY2zTx3UoYRnbQe3lq6vNpFatSsodl0ZQMl3hZWQY4uXbrYy2gdKFGFp0yZIvPnz3e71bZt28qyZcuc3lMngJSeeKL6LhtE0aP/1NRU+frrr8v137lzZ2nQoIFs27bNHsIpHRQbGysffvihNGzYsNx7WtYjUOL214oXEEAAAQQQQAABnwgQKPEJO5MigAACCPizAIESf94dekNAe4FKQyWpJfbJVKAkvke8/dqblTn50jOuru3zvLdWSN6SFfaxnE6i/R5REYFAECBQEgi7yBoQQAAB3wjkb8+3hUp2pe8ypIEm/ZpIlxldpO4lZ/99V6vHjIEStXYVDBkzZkyVDC+++KIsWbLEHs7o3r27LF682OkdXwRKTpw4Ia+//rrMnTvXpW2Mjo6WDz74wHYCS0WPlvUIlLi0JQxCAAEEEEAAAQR8LkCgxOdbQAMIIIAAAv4kUJiVKdbhKf7UEr0ggIABAhWGSnJWqntuKpy9qkAJp5MYsGFMgYAJBQiUmHDTaBkBBBDwI4Hcb3Ntp+bt+3qfrl016tVIksYnSezVsZrPs2LFChkyZIhmdf/9739Lx44d7fVuueUW2bhxo+3PvXr1krS0tCrncmf81q1b5ZtvvrHVt1gstuth1CkfSUlJ8pe//EVatWol6pqYHTt22Oa88cYbbUEOx+eOO+6wvaueiq7kcacfVcOd8T/++KOo0Evp/GVhVJBk2LBhcuedd0p4eHi1e6RFPXVlkTohRT3qdJbXXnut2nkZgAACCCCAAAIIIGC8AIES482ZEQEEEEDAjwUIlPjx5tAaAjoLVBgqie8hEtezypkdTyhxPJ2Eq2503jDKI2Aygfljb5akxHiTdU27CCCAAAL+JHBg7QHJejFLt5NK1Mkk7Z9sLzFXxfjTsk3Ti7rmpqCgwNavCo9MnjzZ73ovKiqSvXv32oIc+fn5Eh8/AnL8AAAgAElEQVQfb/8JDQ11u1+t67ndAC8ggAACCCCAAAII6C5AoER3YiZAAAEEEDCTAIESM+0WvSKgvUC5UIk6pcTFQEnZq24IlGi/P1REwMwCBErMvHv0jgACCPiPQN6vefLrnF9lc9pmKT5VrEljNWrXkJapLaXV0FYS1SpKk5pmL7Jq1SrbCSMtWrSQZs2ayYABA6RevXqVLisrK0tuu+02++ejR4+2nfjBgwACCCCAAAIIIICA2QUIlJh9B+kfAQQQQEBTAQIlmnJSDAFTCpQLlVSzitITSuKnp0pYu+a20YRJTLn1NI2ArgIESnTlpTgCCCAQdALZb2bL1kVbJeebHK/WHndNnCQ8kCCJ9yd6VSfQXl63bp0tRFL6jBgxQh577LEKl3ny5EnblS2l192oQUuXLpX27dsHGgvrQQABBBBAAAEEEAhCAQIlQbjpLBkBBBBAoHIBAiV8OxBAQAm4EypRgRL1RN3b247XYfBsIBFAAAEnAQIlfCEQQAABBLQWOJ5zXHYs2yG7l+8W63+tUnSyyKUpQs8Llfhr4+XivhdLs1uaSURchEvvBdMgdR1M2UDIZ599JgkJCU4MKkwydepUWbx4sf33kZGRok4s8eQKmWAyZq0IIIAAAggggAAC5hAgUGKOfaJLBBBAAAGDBAiUGATNNAiYQMDVUIkKlDiGSTidxASbS4sI+ECAQIkP0JkSAQQQCCKB3NW5cuCHA3Lox0OS90ueFFgLpHB/oU0gvGG4RMZHSlSbKLnwigulwZUNJLZ7bBDpeLbU4cOHy+eff+70cnJysiQmJkpYWJjk5ubKV199JYcOHXIak5aWJr169fJsUt5CAAEEEEAAAQQQQMDPBAiU+NmG0A4CCCCAgG8FCJT41p/ZEfA3AVdDJY59czqJv+0i/SDgHwIESvxjH+gCAQQQCBaBkqISKSkpsS03JCREQkJDgmXpmq2zoKBAbr31Vtm2bZvLNZ9++ml54IEHXB7PQAQQQAABBBBAAAEE/F2AQIm/7xD9IYAAAggYKkCgxFBuJkPAFALuhEo4ncQUW0qTCPhEgECJT9iZFAEEEEAAAa8Ejhw5Iu+8847MnTtXVMCksueaa66RkSNHlrsmx6vJeRkBBBBAAAEEEEAAAT8QIFDiB5tACwgggAAC/iNAoMR/9oJOEPAnAVdCJYRJ/GnH6AUB/xMgUOJ/e0JHCCCAAAIIuCpw/Phx2bRpk+zbt8/2c+LECWnQoIHtp0OHDtKwYUNXSzEOAQQQQAABBBBAAAFTCRAoMdV20SwCCCCAgN4CBEr0FqY+AuYVqC5UkvrSx7I+e595F0jnCCCgq8CQlE6ifngQQAABBBBAAAEEEEAAAQQQQAABBBAwiwCBErPsFH0igAACCBgiQKDEEGYmQcC0ApWFSizZVsIkpt1VGkfAGIGOiY0kKTHemMmYBQEEEEAAAQQQQAABBBBAAAEEEEAAAQ0ECJRogEgJBBBAAIHAESBQEjh7yUoQ0EugupNK9JqXuggggAACCCCAAAIIIIAAAggggAACCCCAAAIIGClAoMRIbeZCAAEEEPB7AQIlfr9FNIiAXwgQKvGLbaAJBBBAAAEEEEAAAQQQQAABBBBAAAEEEEAAAR0FCJToiEtpBBBAAAHzCRAoMd+e0TECvhKoKlSStjzHV20xLwII+KlAUsL5kpRQx0+7oy0EEEAAAQQQQAABBBBAAAEEEEAAAQTKCxAo4VuBAAIIIICAgwCBEr4OCCDgrkBlwRIVKklLt7pbjvEIIBCgAqn94iW1b1yAro5lIYAAAggggAACCCCAAAIIIIAAAggEogCBkkDcVdaEAAIIIOCxAIESj+l4EYGgFgjv0E3C23eXqAfHOTlYth4Vy9ZjBEuC+tvB4hE4K0CghG8CAggggAACCCCAAAIIIIAAAggggIDZBAiUmG3H6BcBBBBAQFcBAiW68lIcgYAX4LSSgN9iFoiAxwLzRidw5Y3HeryIAAIIIIAAAggggAACCCCAAAIIIOALAQIlvlBnTgQQQAABvxUgUOK3W0NjCJhKgGCJqbaLZhEwRIBAiSHMTIIAAggggAACCCCAAAIIIIAAAgggoKEAgRINMSmFAAIIIGB+AQIl5t9DVoCAPwkQLPGn3aAXBHwrQKDEt/7MjgACCCCAAAIIIIAAAggggAACCCDgvgCBEvfNeAMBBBBAIIAFCJQE8OayNAR8JKBCJeqJenCcUwdpy3Nsf05Lt/qoM6ZFAAEjBQiUGKnNXAgggAACCCCAAAIIIIAAAggggAACWggQKNFCkRoIIIAAAgEjQKAkYLaShSDgdwKcVuJ3W0JDCBgqQKDEUG4mQwABBBBAAAEEEEAAAQQQQAABBBDQQIBAiQaIlEAAAQQQCBwBAiWBs5esBAF/FSBY4q87Q18I6CtAoERfX6ojgAACCCCAAAIIIIAAAggggAACCGgvQKBEe1MqIoAAAgiYWIBAiYk3j9YRMJkAwRKTbRjtIuClwPp5SV5W4HUEEEAAAQQQQAABBBBAAAEEEEAAAQSMFSBQYqw3syGAAAII+LkAgRI/3yDaQyDABFSoJKxDNwlv381pZWnLc8SSfVQsW48G2IpZDgLBK0CgJHj3npUjgAACCCCAAAIIIIAAAggggAACZhUgUGLWnaNvBBBAAAHdBLZ3jdatNoURQACBigQ4rYTvBQKBL0CgJPD3mBUigAACCCCAAAIIIIAAAggggAACgSZAoCTQdpT1IIAAAgh4LUCgxGtCCiCAgIcCBEs8hOM1BEwgQKDEBJtEiwgggAACCCCAAAIIIIAAAggggAACTgIESvhCIIAAAgggUEaAQAlfCQQQ8LUAwRJf7wDzI6C9AIES7U2piAACCCCAAAIIIIAAAggggAACCCCgrwCBEn19qY4AAgggYEIBAiUm3DRaRiAABQiVBOCmsqSgFiBQEtTbz+IRQAAB3QVW5eSL5eAx+enP47I5r1Byjp+S3OOnbfPGRtSSuIja0jIqXNpdECFJDc6XHnF1de+JCRBAAAEEEEAAAQQQQMD8AgRKzL+HrAABBBBAQGMB64gUKdyQqXFVyiGAAAKeCRAs8cyNtxDwNwECJf62I/SDAAIImF/g4InTsvT3Q/Lxzjz5cu9hKXFxSSEicv1F9aV/0yi5rXm0NAir5eKbDEMAAQQQQAABBBBAAIFgEyBQEmw7znoRQAABBKoVIFBSLREDEEDABwIES3yAzpQIaCSQlFBH5o1O0KgaZRBAAAEEEBBZmH1A3vrtoKy05nvF0TO+rtx7aQMZlBjjVR1eRgABBBBAAAEEEEAAgcAUIFASmPvKqhBAAAEEvBAgUOIFHq8igICuAuEdukl4++4S9eA4p3ksW4+KZesxSUu36jo/xRFAwDMBAiWeufEWAggggEB5gezDhfL6plyZtSlXU57hrWPlkdaxklg/XNO6FEMAAQQQQAABBBBAAAFzCxAoMff+0T0CCCCAgA4CBEp0QKUkAghoKsBpJZpyUgwB3QUIlOhOzAQIIIBAUAhk7j8qL/1klY93/qnLevs3vUDGtouXbg3r6FL/xIkTsnfvXnvtmJgYqVu3rltzHTlyRA4ePGh/p3HjxnLeeec51SgsLJR9+/a5XDckJEQiIyMlIiLC9tfQ0FCX32UgAggggAACCCCAAAKBLkCgJNB3mPUhgAACCLgtkLdgmvy5YKrb7/ECAgggYLQAwRKjxZkPAc8ECJR45sZbCCCAAALnBFSY5Ol1u72+4qY6U3UFzvOdLtYlVJKRkSGDBw+2tzBu3DgZMmRIdS05fT5r1ix55ZVX7L9788035eqrr3Yas3z5chk1apRbdR0Hd+7cWbp27Sr33HOP1K9f3+M6vIgAAggggAACCCCAQCAIECgJhF1kDQgggAACmgoQKNGUk2IIIGCAAMESA5CZAgEvBFL7xUtq3zgvKvAqAggggEAwC6hrbv7+w27dTiYpa6tOKpl65cWaX39jlkBJqYc6reT111+XHj16BPPXj7UjgAACCCCAAAIIBLkAgZIg/wKwfAQQQACB8gIESvhWIICAGQVUqCSsQzcJb9/Nqf205TliyT4qlq1HzbgsekYgIAQIlATENrIIBBBAwGcCIzJ3yKxNuYbOP7x1rMzs1kzTOc0WKCldfHp6urRq1UpTC4ohgAACCCCAAAIIIGAWAQIlZtkp+kQAAQQQMEyAQIlh1EyEAAI6CHBaiQ6olETASwECJV4C8joCCCAQxAILsw/Ig6u2+0RgQY9LZFBijGZz+ypQMnbsWPnb3/5W6TpOnDgh+/fvlz179siiRYskKyvLaWz79u1l6dKlmjlQCAEEEEAAAQQQQAABMwkQKDHTbtErAggggIAhAoVZmWIdnmLIXEyCAAII6CVAsEQvWeoi4L7AvNEJkpRQx/0XeQMBBBBAIKgFDp44LXes2Corrfk+cegZX1fe750gDcJqaTK/rwIlkyZNkrvvvtvlNahQyfPPP+80ftmyZdK2bVuXazAQAQQQQAABBBBAAIFAESBQEig7yToQQAABBDQTIFCiGSWFEEDADwQIlvjBJtBC0Ausn5cU9AYAIIAAAgi4LzDn11wZtnqH+y9q+Mbs7s1kaKtYTSqaJVCiFjt48GBR/ZY+48ePl4EDB2riQBEEEEAAAQQQQAABBMwkQKDETLtFrwgggAAChggQKDGEmUkQQMBAAUIlBmIzFQIVCBAo4WuBAAIIIOCJwA2fbpYv9h725FXN3ulzUX35/MaWmtQzU6DknXfekWeffda+7kGDBslTTz2liQNFEEAAAQQQQAABBBAwkwCBEjPtFr0igAACCBgmsL1rtGFzMRECCCBglADBEqOkmQcBZwECJXwjEEAAAQTcFViVky/J6ZukxN0XNR4fIiIZ/VpLj7i6Xlc2U6Bk/vz5MmXKFPuaCZR4vf0UQAABBBBAAAEEEDCpAIESk24cbSOAAAII6CtAoERfX6ojgIBvBQiW+Naf2YNLICmhjswbnRBci2a1CCCAAAJeC7yy0Sqj1+7yuo4WBV6+qok83jbe61JmCpQMGDBA1q1bZ1/z5MmT5Y477vDagAIIIIAAAggggAACCJhNgECJ2XaMfhFAAAEEDBGwjkiRwg2ZhszFJAgggICvBAiW+EqeeYNJgEBJMO02a0UAAQS0E7hv5TZZsvWgdgW9qDQwoYEs7tnCiwpnXzVLoOTdd9+VZ555xmm9H374obRr185rAwoggAACCCCAAAIIIGA2AQIlZtsx+kUAAQQQMESAQIkhzEyCAAJ+IECoxA82gRYCWiC1X7yk9o0L6DWyOAQQQAAB7QWuXPazrDt4TPvCHlTs1OB8+eGWyz140/mVsoGS1q1bS8eOHd2q+/3338uWLVvs77z55pty9dVXO9VYvny5jBo1yv67SZMmyd13313lPMXFxbJjxw6ZM2eOLFu2zGlsjx49ZOHChW71yWAEEEAAAQQQQAABBAJFgEBJoOwk60AAAQQQ0FQgb8E0+XPBVE1rUgwBBBDwZwGCJf68O/RmZgECJWbePXpHAAEEfCfQ+B2L7C045bsGHGa+KLK27Lk7yeteygZKvC4oIq4ESqKjo6VRo0YVTldUVCT5+fmyZ8+eSttZtWqVXHTRRVq0Sw0EEEAAAQQQQAABBEwnQKDEdFtGwwgggAACRggUZmWKdXiKEVMxBwIIIOBXAgRL/Go7aCYABAiUBMAmsgQEEEDABwK15q+VMyUlPpi5/JQ1Q0Lk9ENXed2LrwIlnjaelJQk06ZNk6ZNm3pagvcQQAABBBBAAAEEEDC9AIES028hC0AAAQQQ0EOAQIkeqtREAAGzCKhQiXqiHhzn1LJl61GxbD0maelWsyyFPhHwucC80QmSlFDH533QAAIIIICAuQSCIVASGRkpMTExbm3MgQMHpKCgwP6OKyeUuDWBiPTu3dv2c+utt0poaKi7rzMeAQQQQAABBBBAAIGAEiBQElDbyWIQQAABBLQSIFCilSR1EEDAzAKcVmLm3aN3fxFYP8/7KwL8ZS30gQACCCBgnEAwXHkzbtw4GTJkiFuos2bNkldeecX+jiuBkk6dOon6KX1OnDghR44ckZUrV8qhQ4ec5h8/frzcfffdBEnc2hUGI4AAAggggAACCASyAIGSQN5d1oYAAggg4JXA9q7RXr3PywgggECgCBAsMX4nY+rXkg4JdSQyLFR+3HZMtlsLdW+iRojIpRdFyOXNI+Xk6WL53XpCNu8+LsXF7h233/3yetLzivrSskmEHCkokh9/Oyofrf5DDhw+7dIa/npNAxlw7dn/Wjlr2zF58e1dLr3nr4MIlPjrztAXAggg4N8CVy77WdYdPOYXTXZqcL78cMvlXvdS9sobowIlkyZNsoVEyj6nTp2St99+W1544QWnj66//nqZOXMmoRKvd5wCCCCAAAIIIIAAAoEgQKAkEHaRNSCAAAII6CJgHZEihRsydalNUQQQQMCMAgRL9N21qDo15eVhLaRNs0hR4Q7Hp6RE5I8jp+WpBTtkw9ajmjai5ntxcDOJv/C8cnWLikvkp23HZOLiXbLvj5NVzqt6nvVognS6rPz1LqrOlHd3y7Jv/6i6Ro0Q+eafV0hY7Rq2cW9/tV9eXbpX0/UaXYxAidHizIcAAggEhsB9K7fJkq0H/WIxAxMayOKeLbzuxd8CJaULev/99+Uf//iH0/qGDh0qY8aM8XrNFEAAAQQQQAABBBBAwOwCBErMvoP0jwACCCCgmwCBEt1oKYwAAiYWUKGSsA7dJLx9N6dVpC3PEUv2UbFoHHYwMZVbrasTOR67/SIJLZskqaDKtxuPyGOztrlVv7LBkx9qLtd1jKq2ljqkZMYHe+RfXx+odGza6ATbqSpVPU+k/S4rLHmVDnnk1kZyX59Y2+enThdL95E/un1CSrWLMXBAUkIdmTc6wcAZmQoBBBBAIFAEXtloldFr/eOUrpevaiKPt433mtZfAyVqYa+//rq8+uqrTmtUf+7Xr5/X66YAAggggAACCCCAAAJmFiBQYubdo3cEEEAAAV0FCJToyktxBBAwuQCnlWi3geqEkEV/v0xCypxKok71KCoqkdq1zp7W4fi8998DMv3fe7xq4uGUeBl8U1y5GirIERISIrVqlmlIRMbM2S4rfzxc7p2msWGydGJr++935p6Qv8/7XRrHnGc7/aR0DfkFZ+Tax3+qsO/aNUNk1T/b2+d94z85MvcTq1dr9PXLBEp8vQPMjwACCJhXYFVOviSnbxL3Lp7Tfr3q3wYy+rWWHnF1vS7uz4GSoqIi27U469atc1pnenq6tGrVyuu1UwABBBBAAAEEEEAAAbMKECgx687RNwIIIICA7gJ5C6bJnwum6j4PEyCAAAJmFiBY4v3uZcy4QupEhNoLHT9ZLE/O/11W/3zE9rsL69WS10ZeKgkXhdvHqCtw7p+yRTbtLPCogdZNI2XxPy5zejd7z3F5bOY2OXD4tO33asyM4ZfIBXVr2cedOFUs3R/JKjfnqyNaSPfL69l+f6aoRLqOyLKfLNK1dV1b/6VPZaGUJ+66WG7r0cA2rPBksfQYlSXqZBQzP6n94iW1b/nQjpnXRO8IIIAAAsYJ3PDpZvlib/kgp3EdiPS5qL58fmNLTab050CJWuCuXbvk2muvdVrrZZddJh9//LHUrFlTEwOKIIAAAggggAACCCBgNgECJWbbMfpFAAEEEDBMoDArU6zDUwybj4kQQAABMwsQLPFs95rHhcn7E86d7KFOJen3j5/toQ7Hqh9MaC3N4sLsv1JXx6grZDx5XnukhXRtczYAop7f9hbK3577tVwpdbLI1y+3k/Dzzp2SMmnJLvkk8w+nsR+/0EYaXXie7Xfrs4/Kw69sdfr829fa22ss/DRHZn/sfPJIxHk1JOPVK+xX/rz2f3tlyZf7PVmaX71DoMSvtoNmEEAAAdMJzPk1V4at3uHTvmd3byZDW529js7bx98DJWp9S5YskYkTJzotddy4cTJkyBBvl8/7CCCAAAIIIIAAAgiYUoBAiSm3jaYRQAABBIwQIFBihDJzIIBAIAkQKnF/N8sGDpavOSQT3txZYaGLG4bJh5POhU/2HDgptzzzi/uTish3M9vbr6FRp51cN+YnOXzsTIW11Akbqs/S56v1efKP+c5Blm9eay8qFKIeFTZRoRPH59OpbSWm/tmTTlb9dFhGz97u9PmkB5rKjVdF235XcKJIeoz60aN1+dtL80YniLr2hgcBBBBAAAFPBA6eOC13rNgqK635nrzu9Ts94+vK+70TpEHYudPKvClqhkCJuvrmzjvvlKws5xPZvv76a2natKk3y+ddBBBAAAEEEEAAAQRMKUCgxJTbRtMIIIAAAkYJbO969v+5xYMAAggg4LoAwRLXraakNpfeSVH2F9LSrZK2PKfSAuvmJklIyNmPK7t+prrZ4y88Tz56vo3U+F+d/Xmn5KYnfq70tWva1pNXhrewf/7LjgLbdTuOj2OgRJ0sok4YcXyWPddGGsecPcFk4+8FMmjquffrRoTKileusPcz5d3dsnTVweqWYYrP189LMkWfNIkAAggg4L8CC7MPyIOrnIOYRnW7oMclMigxRrPpzBAoUYvNzs6WG2+80WndnTt3lnfeeUdCSv9FTDMVCiGAAAIIIIAAAggg4N8CBEr8e3/oDgEEEEDAxwIESny8AUyPAAKmFiBYUv32jfrrRXLv9Q3tAz/O/EOeK3O6R+mHKnjx3xlX2MceKTgjvR7/qfpJKhnRNDZMrmxZV6x/nJTVPx+ptM7Q/vHy4I1x9s+/2XhEHp+1zWn8ly+1lQvqnv2vlz/57pBMWux8yorj51+u+1OefOPc8f0vPXyJJLevb3vX2zV5jKHDi+pkEnVCCQ8CCCCAAALeCozI3CGzNuV6W8at94e3jpWZ3Zq59U51g80SKFHrmDFjhsycOdNpSVOmTJHbb7+9umXyOQIIIIAAAggggAACASVAoCSgtpPFIIAAAghoLWAdkSKFGzK1Lks9BBBAIGgEwjt0k/D23SXqwXFOa7ZsPSqWrcdEncgRzE+3NvXkn4+cO/3j1JkSuW70T7ZrX8o+6pQQdVpI6bNpZ4HcN9n5pBCtLWvXDJHlky+3h0VU/VeX7pW3v9rvNNW7z7SShIvCbb8re4KJOgnlu1kdpGbo2SNRZn+0TxZ+dvb/KXZhvVry2dS29lNXnl20Uz5de0jrZfikXtnrjHzSBJMigAACCASEQPbhQvn7D7vl451/GrKe/k0vkKlXXiyJ9c/+b7tWj5kCJSdOnJAbbrhB9uzZY19+ZGSkrFixQmJitDu1RStb6iCAAAIIIIAAAgggoJcAgRK9ZKmLAAIIIBAQAgRKAmIbWQQCCPiBAKeVVL4JK15uJ/XPr2kfcPDwaRn+6lb5PeeE7Xc1aoTIswObSN8uztewDX4pW37cdky33W104Xkyc9Sl9qtq1EQq8NJ9xAYpLnGedvx9TaXf/66JKykRuX7sT5J39Ixt0F29YuTxOxrbX1AhGBWGUc/rIy+VLq3r2v7+jyOn5YZxG3Vbj9GFCZQYLc58CCCAQGALZO4/Kk+v2y0rrfm6LrRnfF15vtPF0q1hHc3n+fbbb+X++++3133qqadk0KBBbs2TlpYmU6dOtb+jrqG56qqrnGp8/vnnMnz4cPvvXnzxRbnzzjvdmkcN/v777+Wuu+5yeu+BBx6Qp59+2u1avIAAAggggAACCCCAgFkFCJSYdefoGwEEEEDAEIHCrEyxDk8xZC4mQQABBIJBgGBJ+V1OaBwhi5+4TGrVPHuCR+mTf7xITp4qlqg6Ne2ne5R+lv7dIZlY5loZLb4/I25pJOoqnOZxYXJxwzCnkqdOF8uwV3+rMMSiruNZ8coVok4jUU/hyWJ566v9ElO/lvTvdqH9BJJt+wplwKRfbWPiLzxPPn6+jf2zcXO3y3+zDmuxDL+ooa67Udfe8CCAAAIIIKCVgAqVvPSTVbeTStTJJGPbxesSJtHKgDoIIIAAAggggAACCCBgrACBEmO9mQ0BBBBAwGQCBEpMtmG0iwACphEgWOK8Veo0kJeHXSItGlV9tLw6GWTEP3+THzZr/18nqzDID3OTKvwOqZNJbvz7Rjl87OypIxU9j99+kdzVu2Gln6ve75iwSXbmnj15Zf6YRGl/6fm2v885dEr6Pfmzab6/rjS6fl7Flq68yxgEEEAAAQQqE1DX37y+KVdmbTp7fZxWz/DWsfJI61jNr7nRqj/qIIAAAggggAACCCCAgG8ECJT4xp1ZEUAAAQRMJLD9f0f4m6hlWkUAAQRMIaBCJeqJenCcU79py3Nsf05Lt5piHd42eX54qEwfeontNIsQ50NKKiy9P++UjJv7u/3aGG/nL31fnUyydGLrSssdP1Ekk5bskhWWvErHqOttHr29sf2kktKBh/JPi7qiZ8+Bk7ZfqRNQ3p9wbi4Vkln7q3NIRgVcYqJqS+6fp7RaoqF1CJQYys1kCCCAQNAJLMw+IG/9dtDrK3DUFTf3XtpABiXGBJ0hC0YAAQQQQAABBBBAAIHqBQiUVG/ECAQQQACBIBewjkiRwg2ZQa7A8hFAAAH9BIL5tJJ6kTXlw+dai/qr43Ok4IzsyDkhJ04VS5OGYRIXXdvp86LiEnn4la2S9dsxzTZGXXEzf0yC7bSQk6fPznthvVrl6k/71255f+XBSuetXauGdGlVV65sWUcOHTktq346ItuthU7j33qypbRsEmH73e79J+TWZzfZP1ennNx/Q6xEnV/TFrApKRHJO3papv97j3y5vvIwi2YQGhRS4SB15Q0PAggggAACegocPHFalv5+SD7emSdf7j0sJS5OpvKr119UX/o3jZLbmkdLg7Dy/3vvYimGIYAAAggggAACCCCAQIALECgJ8A1meQgggAAC3gsQKPHekAoIIICAKwLBGCyZ/eilcmXLupd46K8AACAASURBVHYedS3MzA/3ypIv9zuRtW4aKf98pIXUP/9c8ERdQ9P9kSwpVi/p9FzR4nx5ZXgLqRsRap9BhVmufewnKThR5NGsrZpEyJInW9rffXBatvy0/WwwZvx9TaVfFSeDfbr2kDy7aKdH8xr5Umq/eEntG2fklMyFAAIIIBDkAqty8sVy8Jj89Odx2ZxXKDnHT0nu8dM2ldiIWhIXUVtaRoVLuwsiJKnB+dIj7ty/fwQ5HctHAAEEEEAAAQQQQACBKgQIlPD1QAABBBBAoBqBwqxMsQ5PwQkBBBBAwCCBYAmWqOtc/jP5cqdrblRYQoUmKnoizqshK15uJ+oEkNJn0We5MuujfbruTFSdmvLZ1LZSM/TcfTyfZP5hu/7Gk0dddaOuvFHPtn2FMmDSr7a/b3/p+TJ/TKK95OkzJXLw8Cm5sH5tqV3z3NzqZJb12Uc9mdqwdwiUGEbNRAgggAACCCCAAAIIIIAAAggggAACOgoQKNERl9IIIIAAAoEhQKAkMPaRVSCAgLkEVKgkrEM3CW/fzanxtOU5Ysk+Kpat/h0ocEV7wLUxMubOxvahjuGKyt6/8apomfRAU/vHew6clFue+cWV6bwa83BKvAy+6dyJG2WvqXG1eIeEOpLmcBXM3c9vluw9x22vfzChtTT7X9Ck8GSx9H/6F/kz/7TtOqCPnm8jdf53Ssr+vFNy0xM/uzqlT8atn5fkk3mZFAEEEEAAAQQQQAABBBBAAAEEEEAAAS0FCJRoqUktBBBAAIGAFdhexfH7AbtoFoYAAgj4gUAgn1byzMAm0r/bhXblt77cL//8v71VqteoESI/zOlgH3P8ZLFcMzJL951SJ4qok0VKH3XdTY9RP7o977Ln2kjjmPNs723aWSD3Td5ir7FubpL9tJayFvde31BG/fUi29iSEpFOD1vcntvIFwiUGKnNXAgggAACCCCAAAIIIIAAAggggAACegkQKNFLlroIIIAAAgElYB2RIoUbMgNqTSwGAQQQMJNAIAZLXh52ifRoV9++Der0lbR0a7Xb8t2sDvYrYIqKS6Tz0A3VvuM4QAU6UrpeKM3jwyQ++jyZ9t5uyfrtWJU11HU737zW3j7m1Oli6TrCvSBL98vryasjWthr3DZ+k+zMPWH7c0z9WvLp1Lb2z+59cbNs3nX25JKKPlensqjTWfzxSUqoI/McTmHxxx7pCQEEEEAAAQQQQAABBBBAAAEEEEAAAVcECJS4osQYBBBAAIGgFyBQEvRfAQAQQMBPBAIpWPLgjXEytH+8Xfa7Tfky8rXfqpSuGRoia2efO6Ekv+CMXPv4T27tjppTzV36fPfLERn5+rYqa/S8or5MH3qJfYwnV+2owIgKjqhnw9ajkvryVnu9ts0jZeHfL7P/+drHfpT840VOPTme+vHk/N/ly/V5bq3bqMGp/eIlte85X6PmZR4EEEAAAQQQQAABBBBAAAEEEEAAAQS0FiBQorUo9RBAAAEEAlKgMCtTrMNTAnJtLAoBBBAwm0CghEpaN42Uxf84F6JQAQoVpKjqGXBtjIy5s7F9iDpZ5KHp2W5tYdPYMFk68dz1Neq0ke6PZElxSeVlFo5LlLaXnG8f8OnaQ/Lsop0uz9un0wXywuBmtvHqypr+T/0s1kOn7O+3aRYpbz5xzqLnoz/KscJzgZKyV/2Mm/e7/HcDgRKXN4CBCCCAAAIIIIAAAggggAACCCCAAAIIeCBAoMQDNF5BAAEEEAg+AQIlwbfnrBgBBPxfIBCCJT/MTZIaIees1205KkNnnDu5w3EX6p9fUz6f1lbUKSWlz5yPrbLg0xynzVKfqwBG6aMCI2Wf1a+3l7DaNey//npDnvx93u8VbnrfLtEy4f6mTp+pk1TUiSquPl9ObycX1KlpG75mU748UuYkltq1ash3M89dqXPf5C2yaWeBvby6pmfZc23sf77x7xvlwOHTrk5v6Dh13Y269oYHAQQQQAABBBBAAAEEEEAAAQQQQAABswsQKDH7DtI/AggggIBhAtu7Rhs2FxMhgAACCLguYOZgyUN942RIv3PX3qhVr88+KpOW7BLrHyftCOqEj/H3NREVvCh9jhSckevGbJTiMkeLrHi5najwSemjan2S+YcT6CO3NpL7+sQ6/e6r9XkyftEOOXXm7FElKpPy7H1NRQVKHJ8ftx2TwS+5firKrVdfKE/e08RWQp1O8pe/b5Q/jpQPg6irfErDMh+t/kOef2uXfdrHb79I7urd0F6j08MW178gBo90vJrH4KmZDgEEEEAAAQQQQAABBBBAAAEEEEAAAU0FCJRoykkxBBBAAIFAFrCOSJHCDZmBvETWhgACCJhWILxDNwlv312iHhzntAbL1qNi2XpM0tKtfru2Dya0lmZxYeX6O3GqWFRoJOr8mk5BEjVQBTPufmGzbN1zvNx7/32lndSNPBcomfzObvm/bw6WG/fu0y0loXGE0++LikvkUP4ZCa0hElWnltPpKWrg8ZPFcv2Yn0T15uqTMeMKqRMRahu+8sfDMmbO9gpfdbxW50xRiTwwdYts3nVcmseFydtPt5LaNc+eupK957jc/fxmV6c3dJw6mUSdUMKDAAIIIIAAAggggAACCCCAAAIIIIBAIAgQKAmEXWQNCCCAAAKGCBAoMYSZSRBAAAGvBMx4Wok6TWTWo5dKYplwR2UQ6gqbCW/ulC/X51U4xNVASWRYqPzrmZYSf+F5LpmrE1NGvr5NduaecGm8GnTPdQ3l0dsuso1XB6lcN/onW0imoic+urZ8/MLlEvK/23pUaOZoYZHUCQ91+t2tz/4iew6cO73F5WYMGJjaL15S+8YZMBNTIIAAAggggAACCCCAAAIIIIAAAgggoL8AgRL9jZkBAQQQQCBABAqzMsU6PCVAVsMyEEAAgcAWMGOw5MbOF8gTdzeRiPPOXWvjuEsqYLHqp8Py5Bs7RIVKKnu+nN5OLqhz7oSSKe/ulqWryp9QUvr+Hckx8uhfG5U7BaX0c3UFzrxPrLL4i1y3vjTqypxV/2wv4f9bz2ff/ynPLNxRZY2B1zeUR269yB4gcRysAikzPtgj//r6gFt9GDmYQImR2syFAAIIIIAAAggggAACCCCAAAIIIKC3AIESvYWpjwACCCAQMAIESgJmK1kIAggEkYAZgyV1I0KlQ0IdaXvJ+VIvMlR+3Xlcsn47Kr/nuH4yyJUt68rsRy+17fRD07Ml67dj1e76xQ3DpGPC+dK6WaSoK2d+2nZMfthyVP44crradysacH3HKHlhcHPbR6pe79E/ScGJomprtWoSIU/e00RUP+G1a8jxk0WyI+eETFq80y2DaifSYcD6eUk6VKUkAggggAACCCCAAAIIIIAAAggggAACvhEgUOIbd2ZFAAEEEDCpANfemHTjaBsBBIJaQIVK1BP14Dgnh7TlObY/p6VbA85n7IDGcmdyjKhTTToPtdium+HRVyApoY7MG52g7yRURwABBBBAAAEEEEAAAQQQQAABBBBAwEABAiUGYjMVAggggID5BQiUmH8PWQECCASvgBlPK/Fktzom1pGZoy6VmqEhttNFbhi30ZMyvOOmANfduAnGcAQQQAABBBBAAAEEEEAAAQQQQAABvxcgUOL3W0SDCCCAAAL+JMC1N/60G/SCAAIIeCYQ6MGS7+d0kNAaITYcdQpLIJ7A4tnO6/uWOp1EnVLCgwACCCCAAAIIIIAAAggggAACCCCAQKAIECgJlJ1kHQgggAAChggQKDGEmUkQQAABQwQCNVjy8rBLpPvl9eS5Jbtk+ZpDhlgyicj6eUkwIIAAAggggAACCCCAAAIIIIAAAgggEFACBEoCajtZDAIIIICAEQJce2OEMnMggAACxgioUElYh24S3r6b04TqZA9L9lGxbD1qTCMazqKuugmrXUOOFRZpWJVSVQlw3Q3fDwQQQAABBBBAAAEEEEAAAQQQQACBQBQgUBKIu8qaEEAAAQR0FSBQoisvxRFAAAGfCATqaSU+wQzCSQmUBOGms2QEEEAAAQQQQAABBBBAAAEEEEAgCAQIlATBJrNEBBBAAAFtBbj2RltPqiGAAAL+JECwxJ92wzy9cN2NefaKThFAAAEEEEAAAQQQQAABBBBAAAEEXBcgUOK6FSMRQAABBBCwC2zvGo0GAggggEAACxAsCeDN1WFpBEp0QKUkAggggAACCCCAAAIIIIAAAggggIDPBQiU+HwLaAABBBBAwIwCXHtjxl2jZwQQQMA9AUIl7nkF62iuuwnWnWfdCCCAgJ8LFBVLyf9aDFF/Da3h5w3THgIIIIAAAggggAACCPijAIESf9wVekIAAQQQ8HuBvAXT5M8FU/2+TxpEAAEEEPBegGCJ94aBXIFASSDvLmtDAAEEzCNw4pedcjJ7j5zcliOnd+bKmUP5UpR3zLaA0KjzpWZ0XanVNFbOaxEn5yU2lrA2Tc2zODpFAAEEEEAAAQQQQAABnwkQKPEZPRMjgAACCJhZoDArU6zDU8y8BHpHAAEEEHBTgGCJm2BBMpzrboJko1kmAggg4IcCRX8elYLVv8jx77dIYdZ2KTl9xqUuQ2rVlPD2l0hE58sksnsbCb2gjkvvMQgBBBBAAAEEEEAAAQSCT4BASfDtOStGAAEEENBIYHvXaI0qUQYBBBBAwCwC4R26SXj77hL14Dinli1bj4pl6zFJS7eaZSn0qYFAUkIdmTc6QYNKlEAAAQQQQMA9gaNfWOToF+vlxM873HuxzOiwy5tJnT4dpU6fJK/q8DICCCCAAAIIIIAAAggEpgCBksDcV1aFAAIIIGCAgHVEihRuyDRgJqZAAAEEEPA3AU4r8bcd8U0/XHfjG3dmRQABBIJZ4NSuA5KfvkaO/ucHKTlTpAlFSM1QqXPTlVK3Xxep3SRGk5oUQQABBBBAAAEEEEAAgcAQIFASGPvIKhBAAAEEfCDAtTc+QGdKBBBAwM8ECJb42YYY3A6BEoPBmQ4BBBAIcoGTm3dL3rsZcnztZl0kIq5qKVF3Jct5LS/WpX5FRc+cOSNZWVmSnZ0thw4dksOHD0t4eLhERUVJbGysdOrUyfZXXzx79uyRkydP2qauX7++XHjhhb5ogzkRQAABBBBAAAEEEPCpAIESn/IzOQIIIICA2QW49sbsO0j/CCCAgDYCBEu0cTRblfXzuB7AbHtGvwgggIBZBdTVNnlvfS2FWdt0XUJ4+xYSdW8vUVfh6Pnk5eXJ66+/LkuXLpWCgoIqp7rssstk+PDh8pe//EVCQkL0bMup9pVXXmkLuajn5ptvlpdfftmwuZkIAQQQQAABBBBAAAF/ESBQ4i87QR8IIIAAAqYU4NobU24bTSOAAAK6CKhQSViHbhLevptT/bTlOWLJPiqWrUd1mZeivhFISqgj80Yn+GZyZkUAAQQQCCqB09ZDcmjOct1OJimLqU4qiR7aV2rFR+vinJmZKUOHDq02SFJ28s6dO8ucOXOkXr16uvRVtiiBEkOYmQQBBBBAAAEEEEDAzwUIlPj5BtEeAggggIB/C3DtjX/vD90hgAACvhDgtBJfqBs/J9fdGG/OjAgggEAwCpQUFcuhOemS//EaQ5dft38XiR7aT0JCa2g6788//2w77aOyp1mzZpKfn28/GaTsuKSkJFm8eLHtWhy9HwIlegtTHwEEEEAAAQQQQMAMAgRKzLBL9IgAAggg4NcCXHvj19tDcwgggIDPBAiW+IzekIm57sYQZiZBAAEEgl7g6BcWOTj9A584NBhzu9Tpo+31brfccots3LjRvp7o6GjbaSXq9/Xr17f//vTp07ZxM2fOlG+++cZp/Y8++qg88sgjupsQKNGdmAkQQAABBBBAAAEETCBAoMQEm0SLCCCAAAL+LcC1N/69P3SHAAII+FqAYImvd0D7+TmdRHtTKiKAAAIIlBco+vOoHJjybynM2uYTnvD2LSTmiTsl9II6msy/fv16ufPOO+21VJgkPT1dGjZsWGX9V155RWbNmmUfExkZKWvWrBH1Vz0fAiV66lIbAQQQQAABBBBAwCwCBErMslP0iQACCCDgtwJce+O3W0NjCCCAgN8IECrxm63QpBECJZowUgQBBBBAoBqB/PS18sdrH/nU6cKRN0vdfldp0sOSJUtk4sSJ9lqvvvqq9OvXr9raRUVF8re//U0sFot97JtvvilXX311te96M4BAiTd6vIsAAggggAACCCAQKAIESgJlJ1kHAggggIBPBbj2xqf8TI4AAgiYRoBgiWm2qspGue4mMPaRVSCAAAL+LFBSVCz7n10sx3/I9mmbEVcmSsNJ90lIaA2v+3jhhRdk4cKF9jr/+c9/5LLLLnOp7ltvvSUTJkywj33mmWfk/vvvr/bdAwcOyO7du2XHjh2Sl5cnderUkXr16knr1q2lSZMmVb7vSaDkyJEjsm3bNsnOzhYVhElMTJSEhASn63yqbVpEDh8+LNu3b5c9e/bIwYMHJS4uTpo3by5NmzaViIgIV0owBgEEEEAAAQQQQAABTQQIlGjCSBEEEEAAgWAX4NqbYP8GsH4EEEDAPQGCJe55+dNoTifxp92gFwQQQCBwBU78slOsj831iwXGz3hYwto09bqXmTNnyowZM+x1pk2bJn/9619dqrtr1y558cUX5YILLpCoqCjp3r27dO3atcJ3VZhj9uzZkpGRIQUFBZXWV6GSyZMn28IlFT3uBErUFTwq5KKCKxU9zZo1ExWo6dy5c5XrVeucO3euvP/++5WOU7VGjBghKSkpUqOG90EflzaAQQgggAACCCCAAAJBK0CgJGi3noUjgAACCGgpwLU3WmpSCwEEEAgOgfAO3SS8fXeJenBcuQWnLc+RtHRrcECYbJUESky2YbSLAAIImFTgyNJv5dC8//hF99FDbpJ6t3l/vcynn34qjzzyiH1NkZGRsmDBAunUqZNm61y2bJmMGTPGrXrq5JN777233DuuBEpOnjxpC8nMnz/fpTkffvhhGTVqlNSuXbvceHUaiQrYHDp0yKVaauyUKVMIlbikxSAEEEAAAQQQQAABTwUIlHgqx3sIIIAAAgiUEeDaG74SCCCAAAKeCHBaiSdqvnuH6258Z8/MCCCAQDAJHJj6vhxbscEvlnx+7w4S8/f/Z+9e4HOs/z+Of3bA5swMm+MQQrRR0ipKDlF09CuVilIilYpKv0pRkU5Koj9JpV/SiZSUkBySTUpEk/M2Zk4bM2z7P77X2mX3jvfhuu/7uq/rdT0eHrX7/h6f38vj99Dv7fMd4PFaTp48KSqkUbRqiKo2cv3118tFF10k9erVc3sedUVMz549Hfqr0Er37t2lTp06kpmZqV0jk5CQUGyODRs2SPXq1R0+dyZQogIyKihT+GnRooV06NBB+ygxMbFY1ZKBAwfK888/79DnzJkz0rt3b4e2ERER0q1bN23tGRkZsnLlSu0KnMLP3Llzy6164jYoHRFAAAEEEEAAAQQQEBECJbwGCCCAAAIIGCTAtTcGQTIMAgggYFMBgiXmP3iqk5j/jFghAgggYBWB5AfflpObd5tiO2FtGkv0G/cbspbFixfL8OHDSx2rdevW0rVrVy0kERsbWyzkUdYixo0bJ3PmzNGbDBkyREaNGiVhYWEO3f744w95+OGHHcIbJVUpKS9QsnbtWrn11lv1sVV4RQVF+vfv7zDfjz/+KA899JBDkGbhwoXSpk0bvd3GjRu1UE3Bc8cdd8gTTzwhFSpU0D/LycmRyZMny4wZM/TPVJUSdXUQDwIIIIAAAggggAAC3hIgUOItWcZFAAEEELCdANfe2O7I2TACCCDgFQGCJV5hNWRQAiWGMDIIAggggIATArsGjJecw5lOtPR+k5BaVaXJvKcMm2j+/PkyZswYp8Zr37699OnTR6666ipp2LBhqX2OHj0qcXFx+vfqGh1VvSM4OLjEPqpKyYABZ6uulFQ1pKxAiQp3qHUlJSXp43/yySfSqVOnEuf7+++/tQokBY9a38cffyxBQUHaR7NmzZIJEybo32/atEnCw8OLjXXixAmtaknha3FKa+sUMI0QQAABBBBAAAEEEChHgEAJrwgCCCCAAAIGCnDtjYGYDIUAAgjYWECFStRTa8hoB4UZX6doP89YmGxjHf9tnetu/GfPzAgggICtBHJzZUe/ZyQv+7Qpth1UqYLELBgnUko4w51F7tq1S15//XVZsGCB091VNY7Ro0drV8AUfVSFj4kTJ2oBDxW2mDJlivTt27fUsdUVM61atdK/79evn7z22msO7csKlKxYsUIGDx6st1cVRZ5++uky9zJ+/Hh577339DbqqpyCNbzzzjvy8ssv69+pKiTqqp6SHjX3li1bpHHjxlrIpm3bthISEuK0Iw0RQAABBBBAAAEEEHBFgECJK1q0RQABBBBAoBwBrr3hFUEAAQQQMFKAaiVGano2FtVJPPOjNwIIIICACwI2CJQUaBw6dEjUlTA//fSTLF++3OFamJLE1LUyH3zwgXTo0KFU0KysLKlYsWKZIYv9+/dLjx499PlUtZE333zTYcyyAiWzZ8/WrrcpeFQ1FHVNT1nP6tWr5fbbb9ebqBCJWoN6fvvtN1GBmcKPCqyoUMx5551HYMSF3z40RQABBBBAAAEEEDBWgECJsZ6MhgACCCBgcwGuvbH5C8D2EUAAAS8JECzxEqwLw05/pKV0bFnNhR40RQABBBBAwH0BK195U5qKukZm8+bNsm7dOlmzZo0sW7asxKYqVKIqmzRt2rRcYBUu2bdvn6iKKDt27NB+/fLLL9o/Cz+uBkrGjRsnc+bM0YcYNGiQ1KhRo8z1pKWlyf/+9z+9zeOPPy733HOP9rPae2xsbImBGrVfVa2ka9eucvHFF0vdunXL3TcNEEAAAQQQQAABBBAwSoBAiVGSjIMAAggggMC/Alx7w6uAAAIIIOAtAYIl3pItf1yuuynfiBYIIIAAAsYJJD/4tpzcvNu4AT0YKaxNY4l+434PRnCvqwqD/PzzzzJ9+nTZsGGDwyDXXXedTJ48ucSB//77by3ssXLlStmzZ49Tk7saKFFX3Ki1efLcfPPNMmHCBH0IdV2PGjc1NbXMYTt27CjXXnutXH/99RIWFubJEuiLAAIIIIAAAggggEC5AgRKyiWiAQIIIIAAAq4JcO2Na160RgABBBBwTUCFSsLi4iU8Nt6h44yvUyRha4YkbMtwbUBalyvAdTflEtEAAQQQQMBggQMT50nmD4kGj+recFWvjJO6Ywa419mgXipUMmnSJIfREhMTHaqCnDp1Sh599FFZtGhRubNGRERIenq63s7VQEm3bt2cDquUtpjLL79c/u///s/ha1XFRF2l48we2rdvL2+//bZERUWVu18aIIAAAggggAACCCDgrgCBEnfl6IcAAggggEApAlx7w6uBAAIIIOALAaqV+EI5fw6uu/GdNTMhgAACCOQLHJ2/UtKnlx+M8IVXxL19pcaNl3o01ddff61VDTlw4IAWxFCBidatW7s05pVXXulwVc2XX34p5513njaGujJGhUnUVTglPaqqR9u2baVVq1baP9Wv888/X79ixtVAyYABAyQhIUGf6qmnnnJpL6pxo0aNRO2ppOfIkSPalT8//fSTLF26tMSrcFQ/dR3OihUrpFatWi7PTwcEEEAAAQQQQAABBJwRIFDijBJtEEAAAQQQcFGAKiUugtEcAQQQQMBtAYIlbtM53ZHrbpymoiECCCCAgEECJzftlOSH3zFoNM+GiX7tPglr19SjQVSYZNy4cfoYDz74oIwcOdKlMdUVN9OmTdP7qOoeqsqHer799lsZMWKEw3j33XefqKtxYmJiJCQkxOG7vLw8adGihf5Z7969ZerUqQ5tLrzwQr2Kibpi5pVXXtG/f+KJJ2TevHn6z0Wrpbi0sXIaq7DMpk2btCt2vvjiC4dQjeo6ZcoU6du3r5FTMhYCCCCAAAIIIIAAAroAgRJeBgQQQAABBLwgcHjmJDk0c6IXRmZIBBBAAAEEShYgWOKdN4PrbrzjyqgIIIAAAmUL5OXkyv6n35cT67b6laryha2k3nN3SFBIsEfrUJU27rrrLn0MVZ1j+fLlLo2pKpCoQEXB89VXX0m7du20H5955hn58MMP9e8mTJggN998c6njJycny6WXnq260rNnT4ewiupYVqDk3XfflZdeekkff+7cudK5c+cy95ORkaGFQmrWrKldU1O/fn0JCwvT+qiKJDt37tTCIk2bNpXY2NgSx1JBmNmzZ8v48eP172+44YZi1wG5BEtjBBBAAAEEEEAAAQTKECBQwuuBAAIIIICAFwS49sYLqAyJAAIIIFCuAKGScolcbkB1EpfJ6IAAAgggYJDAsYVr5eCULw0azb1h6oy8Vqpfc5F7nQv1Onr0qMTFxTmMM2nSJFFhCGeezMxM6dChg0PTDRs2SPXq1bXPil6H88cff0jlypVLHbpoIKR79+4yY8YMh/ZlBUp++OEHuffee/X2l1xyibz//vtlbuXtt992qHIyfPhwGTVqlJw5c0a7iqfg6dq1q8yaNavUsYpWV1Hhk/nz5zvDSBsEEEAAAQQQQAABBFwWIFDiMhkdEEAAAQQQcE6Aa2+cc6IVAggggIDxAgRLjDGlOokxjoyCAAIIIOCeQM6hDDnw0ieStSHJvQE87BUe20LqPv4fCaldzcOR8rtPnDixWGhj9OjRcuedd0qlSpVKnePPP/8UdUWOqt5R8PTr109ee+01h59Vu4Ln119/ldq1a5c45uLFi0WFOQo/JQVCygqUZGdnS69evWTPnj36MOpKHHU1TkmPqj6i1nz8+HH962XLlknjxo21nwcPHiwrVqzQvytcfaXoeLt27ZIrrrhC/7jodTyGHBaDIIAAAggggAACCCDwrwCBEl4FBBBAAAEEvCRAlRIvwTIsAggggIDTAgRLnKYqsSGBEs/86I0AAggg4LlAxncJINzA9QAAIABJREFUkjb5U88HcmOEyEdvkmq9OrrRs+QuaWlp0rdvX0lPT3dooK5+ueyyy6RNmzbarwYNGkhKSops375dVEhkzpw5xQb85ptvHKp6/Pe//xV17UzBo66wUQGPwlVKsrKyRFUWeeihh4qN1759e4frdFSDsgIl6nsVCLn77rsdxho2bJiMHDlSKlasqH++fv16LRCTmpqqf6YqqkyfPl3/+bPPPhMVril4IiIitMBMfHy8w/jbtm2Thx9+WP766y/98ylTpmiuPAgggAACCCCAAAIIeEOAQIk3VBkTAQQQQACBfwWoUsKrgAACCCDgb4HwuHgJj71Eag05+39SqDUlbMuQhG2ZMmNhsr+XaNr5ue7GtEfDwhBAAAHbCOTl5Er6tIVy7Ks1Pt1z9f5dJGLYNRIUEmzovCoIMWDAAIdKHa5O8Oabb0qfPn0cuv3yyy8ycOBAh89UKKN3795SpUoVSUhI0H6V9qg2iYmJEhoaqjcpL1CiGg4dOlSWLl1abNjOnTtLZGSkJCUlOYQ/VEMVoPn888+lXr16er+TJ0/KbbfdJuoan8JPTEyMnHvuudq6VDWUot+3bdtWC8KEhIS4ykh7BBBAAAEEEEAAAQScEiBQ4hQTjRBAAAEEEHBPgCol7rnRCwEEEEDAeAGqlbhmSnUS17xojQACCCDgPYHTyemSPu1rObF2i/cmKTRy5YvOlYhhV0uF6AivzKeqbDz11FNlBjxKmlgFRF544QVR1T1KelRFkrffftupNavwiQprTJgwQW8/a9Ys6dq1q/6zM4ESFQRRAZd33nnHqXnVHj799FNp0qRJsfaqgou6vqZwJZOyBm3RooV8+OGHWnCFBwEEEEAAAQQQQAABbwkQKPGWLOMigAACCCDwr8D2i73zH+EARgABBBBAwB0BgiXOqVGdxDknWiGAAAII+Ebg5B875PAHSyVrQ5JXJwyPbSG1bu8uYefFeHWe3NxcWbx4sXz77beirq8p61HBCRW0UBU8qlWrVmZbdaXN+PHjtWoeJT3du3cXdS1NbGys7Nq1S6644gq92eDBg2Xs2LH6z+q6mYJwxw033CCTJk0qde7ffvtNC7uUVgVFBUnuv/9++c9//iPh4eGljnPixAn55JNPZNq0acWuBiropNauKq8MGjTI4Wodrx4YgyOAAAIIIIAAAgjYVoBAiW2Pno0jgAACCPhKgGtvfCXNPAgggAACrggQLCldi+okrrxJtEUAAQQQ8JVA9pbdcnjuMq9VKlGVSWoNvFwqndvYV1vS5jl9+rRs375dDh8+rP06duyYFhypU6eOREdHS6NGjVxaT05OjiQnJ8vevXu1QEjt2rVFhVLUWEFBQS6N5WpjNbeaV111o/ah5iz45cq1NGqclJQU2b9/v/ZPte6WLVtKs2bNuN7G1UOhPQIIIIAAAggggIBHAgRKPOKjMwIIIIAAAuULcO1N+Ua0QAABBBDwj4AKlain1pDRDguY8XWK9vOMhcn+WZifZ6U6iZ8PgOkRQAABBEoVOLXrgBxbuEYyFq2TvDM5hkgFhYZItb4XSvVrukjFJnUNGZNBEEAAAQQQQAABBBBAwBoCBEqscY7sAgEEEEDA5AJUKTH5AbE8BBBAwOYCVCs5+wJQncTmvxnYPgIIIBAgAhnfJUjGd+tFXYXjyaOutqnWq5NU69XRk2HoiwACCCCAAAIIIIAAAhYVIFBi0YNlWwgggAAC5hKgSom5zoPVIIAAAgiULECwRIRACb87EEAAAQQCRSDnUIYc/3mTnPjlL8nasF3yTp9xaulBFUIlPLa5VO7cWqpc0k5Caldzqh+NEEAAAQQQQAABBBBAwH4CBErsd+bsGAEEEEDATwLbL47w08xMiwACCCCAgGsCdg6WcN2Na+8KrRFAAAEEzCFwctNOyd66R7KTUuT0zlQ5k35Mcg5naosLqVVVQiOqS4Wm9aVSiyip1KqRhLVrao6FswoEEEAAAQQQQAABBBAwtQCBElMfD4tDAAEEELCSwOGZk+TQzIlW2hJ7QQABBBCwsIAKlYTFxUt4bLzDLmd8nSIJWzMkYVuG5XZPdRLLHSkbQgABBOwrkJMref/uPkj9MyTYvhbsHAEEEEAAAQQQQAABBNwWIFDiNh0dEUAAAQQQcE2Aa29c86I1AggggIA5BOxUrYTqJOZ451gFAggggAACCCCAAAIIIIAAAggggIA5BAiUmOMcWAUCCCCAgE0Ekkf0k6zEVTbZLdtEAAEEELCSgNWDJVQnsdLbyl4QQAABBBBAAAEEEEAAAQQQQAABBIwQIFBihCJjIIAAAggg4KQAVUqchKIZAggggIBpBawaLKE6iWlfORaGAAIIIIAAAggggAACCCCAAAIIIOAnAQIlfoJnWgQQQAAB+wpQpcS+Z8/OEUAAAasIWC1UQnUSq7yZ7AMBBBBAAAEEEEAAAQQQQAABBBBAwEgBAiVGajIWAggggAACTghQpcQJJJoggAACCASEgFWCJQRKAuJ1Y5EIIIAAAggggAACCCCAAAIIIIAAAj4WIFDiY3CmQwABBBBAQAlQpYT3AAEEEEDASgKBHCwhTGKlN5G9IIAAAggggAACCCCAAAIIIIAAAggYKUCgxEhNxkIAAQQQQMBJAaqUOAlFMwQQQACBgBEIj4uX8NhLpNaQ0Q5rTtiWIQnbMmXGwmRT7oVAiSmPhUUhgAACCCCAAAIIIIAAAggggAACCJhAgECJCQ6BJSCAAAII2FOAKiX2PHd2jQACCFhdINCqlayf3tHqR8L+EEAAAQQQQAABBBBAAAEEEEAAAQQQcEuAQIlbbHRCAAEEEEDAcwGqlHhuyAgIIIAAAuYVCIRgCdVJzPv+sDIEEEAAAQQQQAABBBBAAAEEEEAAAf8LECjx/xmwAgQQQAABGwtQpcTGh8/WEUAAAZsImDlYQnUSm7yEbBMBBBBAAAEEEEAAAQQQQAABBBBAwC0BAiVusdEJAQQQQAABYwSoUmKMI6MggAACCJhbQIVK1FNryGiHhc74OkX7ecbCZJ9vgOokPidnQgQQQAABBBBAAAEEEEAAAQQQQACBABMgUBJgB8ZyEUAAAQSsJ0CVEuudKTtCAAEEEChZwCzVSgiT8IYigAACCCCAAAIIIIAAAggggAACCCBQvgCBkvKNaIEAAggggIBXBahS4lVeBkcAAQQQMKGAv4MlBEpM+FKwJAQQQAABBBBAAAEEEEAAAQQQQAAB0wkQKDHdkbAgBBBAAAE7ClClxI6nzp4RQAABBPwRLCFMwnuHAAIIIIAAAggggAACCCCAAAIIIICAcwIESpxzohUCCCCAAAJeFaBKiVd5GRwBBBBAwMQCZYVKErZmSMK2DENXT6DEUE4GQwABBBBAAAEEEEAAAQQQQAABBBCwsACBEgsfLltDAAEEEAgsAaqUBNZ5sVoEEEAAAWMFfFGthDCJsWfGaAgggAACCCCAAAIIIIAAAggggAAC1hYgUGLt82V3CCCAAAIBJECVkgA6LJaKAAIIIOA1AW8GS9ZP7+i1dTMwAggggAACCCCAAAIIIIAAAggggAACVhMgUGK1E2U/CCCAAAIBLUCVkoA+PhaPAAIIIGCggNHBEqqTGHg4DIUAAggggAACCCCAAAIIIIAAAgggYAsBAiW2OGY2iQACCCAQKAJUKQmUk2KdCCCAAAK+EDAyVEJ1El+cGHMggAACCCCAAAIIIIAAAggggAACCFhJgECJlU6TvSCAAAIIWEKAKiWWOEY2gQACCCBgoICnwRKqkxh4GAyFAAIIIIAAAggggAACCCCAAAIIIGAbAQIltjlqNooAAgggECgCVCkJlJNinQgggAACvhZwN1hCdRJfnxTzIYAAAgj4WmBb2grZdThB9h3ZKCkZW+RoVoocPZmqLaNGWH2pER4lUdXOlQY1O0iTWh2lZWRXXy+R+RBAAAEEEEAAAQQQQCAABQiUBOChsWQEEEAAAesLHJ45SQ7NnGj9jbJDBBBAAAEEXBQIj4uX8NhLpNaQ0Q49E7ZlSMK2TJmxMNnhc6qTuAhMcwQQQACBgBHIzE6ThL3z5bfkr2RL6hLJkzyn1h4kQXJu/Z5yfnR/6djwRqlaKdKpfjRCAAEEEEAAAQQQQAAB+wkQKLHfmbNjBBBAAIEAEdh+cUSArJRlIoAAAggg4HsBZ6uVUJ3E92fDjAgggAAC3hdYtWOW/LLrA9mattyjyVpFdpPOTW6X+JjBHo1DZwQQQAABBBBAAAEEELCmAIESa54ru0IAAQQQsIAAV99Y4BDZAgIIIICA1wXKCpaoyYdeHeX1NTABAggggAACvhLYn7FVfkx6U5YnTTV0ym4thssVLR6QetVaGTougyGAAAIIIIAAAggggEBgCxAoCezzY/UIIIAAAhYXSB7RT7ISV1l8l2wPAQQQQAABzwVKC5Z4PjIjIIAAAgggYA6B7QdXyXdbX5aNyV95ZUEdovtLr1aPSfM68V4Z//jx45KSklLu2KGhoVKpUiUJDw+XmjVrltueBggggAACCCCAAAIIIOA9AQIl3rNlZAQQQAABBDwWoEqJx4SGDhDWoYsEV6mmjZmVuFLyTmYZOn7BYCER9STsvAslNDJKsrdskOy/fpO8M6ddmqvyxT2lymV9pFLrDpJ77IhkbVwjGQs+kDNp5f8HXDVR9evukho3DdXmPLlxjaRNHOXS/DRGAAEE/CGgQiVhcfESHuud/yPMH3tiTgQQQAABBJSACpN8uekp2ebhFTflabaM7CbXthvvlVDJ//73Pxk7dmx5S3D4vkqVKtKmTRu5+uqrpXfv3lKnTh2X+puxcV5ennz77bdy3nnnSaNGjcy4RNaEAAIIIIAAAggggIAuQKCElwEBBBBAAAGTC1ClpPQDihzzqlS76maXTvDMwVTZfWOcS31U42p9b5G6Y9/S+6W9/Kgc++I9l8cprYMKftR79l2p0DBGJDi4WDMVXjm28AM5+MZYkdzc0ucNDpboNz6X8I6XFh8j54wcfPkxObZgTtnrDg6RZj/skqCwcK3dkY+nSvqbTxu2VwZCAAEEvC0QPXUBoRJvIzM+AggggIDPBNQ1N5/9PsZrlUmKbkRVKrmh/UTDr79xJ1BSdG3jxo2TgQMHSnAJf2by2YF4MFFSUpI8++yzsmbNGnnvvffksssu82A0uiKAAAIIIIAAAggg4H0BAiXeN2YGBBBAAAEEPBKgSknpfI3nrc8PYLjwqGDGP1c0dKGHSEjtSGny5R8SFFpB72dkoCTqtU+lcucrnFpTbsYRSX18kKj3oqTHmf8Tdf9TgyXzx9LLZEfc/7TUvO1Bbfi8U9nyzxWNRHJznFofjRBAAAEzCDRfnW6GZbAGBBBAAAEEDBH4eMMIWZ401ZCxnB2kW4vhckvs2UC9s/3KamdEoESNf9NNN8mLL74oQUFBRizLZ2P89ddf0rdvX30+AiU+o2ciBBBAAAEEEEAAAQ8ECJR4gEdXBBBAAAEEfCVweOYkOTRzoq+mC5h5mq1IlqAKlVxarzuBksYfr5UKTc5xmMeoQEnk469L9X63F99Dbq52zU1QxeL7yzt9Snb1ays5Rw859FNrVGsteE7v+ltSx96lhW7qPfd/+li5xw7Ljt4tSnRTnjE/7JSgChW17w+/N1kOvfuiS8Y0RgABBPwpoK69qTVktD+XwNwIIIAAAggYJrBqxyyZs36IYeO5MtCgTjMlPmawK13KbFs0UHL33XdL9+7dHfqo62BOnDghx48flz179sivv/4qK1asKDbuvffeK6NHB9b/3icmJmphmIJn9uzZcumlxStLGgbOQAgggAACCCCAAAIIGCBAoMQARIZAAAEEEEDAFwJcfeOoHFKjtjT99m/9w9ys43Jm385yj+J0ym5JHXNbue0KGtQeOlZq3TmqWHsjAiWVL+ouUa/Ocxj79N4dkjrmVjm1Y6v2uaqKEvHQBKlx3WCRQn8D71TSn7JnkGN55KjJH0vli3tq/VQY5Z9uDfTKIkXnSn38djn+0zfF9hX56MtS/fr8/2icm3VCdvRoUvYVO05L0hABBBDwjQDVSXzjzCwIIIAAAt4XyMxOkxlrBsjWtOXen6yEGVpFdpOhXeZJ1UqRhsxfNFDyyiuvyLXXXlvu2L/99puMHTtWVIWPws/cuXOlc+fO5fY3SwMCJWY5CdaBAAIIIIAAAggg4IoAgRJXtGiLAAIIIICAHwW4+sYRv2rPG6Xes9P1D498PFXS33za0BOq2KKtNHp/hUOQo2ACIwIljT5YKRWbt9HXfHLjWtk37GwJ5MKbUVfiqKtxCj+7b75QTu/ern/UeH6CVIhuqv2clfizJI/o79A+ZukeCQ6vrH12eParcmjGBIfvg8OrSNMl/0hQSKj2efrUZ+XIR28aaspgCCCAgDcFqE7iTV3GRgABBBDwtcCK7dNkbuL9vp7WYb6BcW9L1+bDDFmDu4ESNfnRo0elf//+WtWSgqdjx44yb55jQN+QhXppEAIlXoJlWAQQQAABBBBAAAGvChAo8SovgyOAAAIIIGCsAFVKznpGPvGGVL/mbKWR5AeulayElcaBBwdL06//kpCaESWOaUSgpNmKFP1qmbycM7KzTyvJzThS6h6iX/9Mwi/spn9/8I2xcvSTd/SfY5buFhUKUU/G1x/JgRdGOozV5KtNEhoZpX12fOW3xSq11H16mlTrPUD7Pvd4huzokR9O4UEAAQQCQYAwSSCcEmtEAAEEEHBF4I2VvWVz6neudDG8bZv6veTBSxcbMq4ngRK1gKSkJOnVq5fDWpypUpKTkyMpKSmyY8cO7VdoaKicc8452q+aNWu6vDd1Lc+WLVtk165d2rgVKlSQxo0bS6NGjSQmJkaCClWWVINnZ2dLVlaWJCQkyNChQ/X53njjDbnkkku0n6tUqaKNU9Lj6frV9UGnT5/Whq5WrZqEhIRo1wqtWrVKdu/eLU2aNJELLrhAatSo4bIFHRBAAAEEEEAAAQSsL0CgxPpnzA4RQAABBCwkQJWSs4fZ8P3lUumc8/I/yMuT7ZfW0693MeLI6z33f1L1yuv0obK3/S6VWrbXf/Y0UFKx2bnS6MOf9fFO7dwmewZ2KXPp6ioadSVNwaOurFFX1xQ8hQMlqrKIqjBS+Gk8b71UaBijfXRy06+yb2hv/evgajUlRl0hFBysfZY2+TE59vksIygZAwEEEPCJAFfd+ISZSRBAAAEEfCSwLW2FvLr8csmTPB/NWPI0QRIko7otk5aRXT1eh6eBErWARx99VL744gt9LcOGDdM+K+lRwY9FixbJc889J+np6SW2USGQ559/Xi699NJy96eCHR999JHMmTNHC6aU9MTGxmrrueiii/SvJ02aJNOnn62uWVK/J598UoYMGeLwlVHrv/LKK/X1vvrqq9oco0YVv9ZVOd16663lOtAAAQQQQAABBBBAwF4CBErsdd7sFgEEEEDAAgKHZ06SQzMnWmAnnm0h5oddEly5qjaIquqxo1dzzwYs1LvyxT0lavLH+ifZmxPl+OolUvvux/XPPA2UhMddIpGPvy4h1WtKUHgVyVz6pRx4ruxS0jVuGCJ1Hpmkr+HE6iWS8ugt+s9aRZXa+febZyyaKwcmPOBgUvj7zB8+l/1P36N/X//FOVKla/51OzlHD8nOq84xzJOBEEAAAW8LUJ3E28KMjwACCCDga4Hvt70q8zc+4utpS5zvxg6vSI+WxQMIri7OiECJqqoxaNAgfeq2bdvKggULii0lNTVVRo4cqVUFceYZOHCgPP7441qlkJKew4cPy0MPPSQ//3z2LwWUNe6YMWP0aiQTJ06UGTNmlLkMNfc995z985mR6+/WrZt+VZDap6rqUtIzduxYGTx4sDNctEEAAQQQQAABBBCwkQCBEhsdNltFAAEEELCOgN2vvgkKrSDNfkrVD7Sg2oYKaYSd30WrJJJ77LCcWP+TZP3yoxaQcPYJrlJNmi7cIkFh4VqXvNPZsrNva6kx4F5DAyXOrqdwu6iX50rl+LMlntPffFqOfDxVb9Jozgqp2KKd9vPJPxNk3z09z3YPDpZmy5NF2ann0PTxcvj917R/D4moJ00X/Cnyb2lmFWzJWBw4d5G7Y0kfBBCwjkB4XLxEv1X8/0iyzg7ZCQIIIICAHQVmr7tD1uyaY4qtd2kySO688H2P12JEoERVCWnZsqXDWjZt2iTh4fl/flNPbm6u3HXXXcXCH6oaSadOneTUqVNa0ESFNgo/Xbt2lVmzildpVHPeeOON8vvvvzu0V9fbqIokYWFhsmbNmmJVS6ZNmyY9e/YUte/PP/9cDhw4oAc71EBqPXXr1tXGvPPOO6VPnz5eWX/hQElZh7h69WqpV6+ex+fMAAgggAACCCCAAALWEiBQYq3zZDcIIIAAAjYRsPvVN+EXdJXoNz7XT/v07iQtFKHCICU9p5N3ScrI60T9s7ynwbvfSVjbTnqz1CfvlOPLF0qtwY/5NVCihT6+2qRfSaMWuPvGjnI6eae+1rpj35Jqff+tWJKXpwVhco4c1L6v8Z/7pM6DE/S2e+/uIaryinqiXvtUKne+Qvv3nPT9svOaNuUx8T0CCCBgGgGqk5jmKFgIAggggICBAi8uvVB2HvrVwBHdH6pp7Qvkie7r3B/g355GBErUUEUDEqpqSFRUlL6+Dz/8UJ555hn9Z1V1RF31oq5+Kfx8/PHH8tRTTzl8NnXqVOnd++zVoOpLdcXNuHHjHNpNmTJF+vbNr/Co/TkqJ0feeecdbZ6Cp379+rJy5UoJ/vda0cTERLnpppv072fPnl3iVTtGr7+kQEn79u21tVSvXl1WrFghQUFBoq7m4UEAAQQQQAABBBBAoKgAgRLeCQQQQAABBAJUwM5X30Tc/7TUvO1B104uN1fS3xkvRz58o9R+NW4aKnUeflH//sSq7yTlsYHaz/4OlDR4d4mEte2ory0367js6N7YYS/B1WpKzLd/66GT3KwTcnTuWxISGSXVr7lNr0Byavtm2XN7/h3hFaKbSONPE/TvUp+8Q44v/9o1W1ojgAACfhIgTOIneKZFAAEEEPC6wONfN5LDWXu9Po8zE9QKbygvXb3HmaZltjEqUKKubfnll1/0ub7++ms599xztZ/37NmjBU4KP99//700a9asxLWpyiK33Xab/l1ERIQsW7ZMv/pGBUVUFZLjx4/rbebPn699VtLz6KOPyhdffKF/9emnn0pcXJz2szOBEqPXr+YtGihRQRdlUrlyZY/PlAEQQAABBBBAAAEErC9AoMT6Z8wOEUAAAQQsLGDXq28aTPtawjp0KfFk83LOiOTmSFCFSiV+n/LwTXLilx+LfRca1Vgaz/tVgkJCte9yj2fIzqvOkbwzp7Wf/Rkocag88u/K0yY/Jsc+L16OOWLkeKl587DS3/rcXNl968VyetffWpvClmdS98iu68+38O8YtoYAAlYTaL463WpbYj8IIIAAAghoAsPmV5DcvDOm0AgOCpVpN+b/uciTx6hAyciRI2XRokX6UubOnSudO3fWflZhjzFjxujfDR48WMaOHVvmsocNGyZLlizR2xSuUlI0BKKqnEyfPr3U8bZs2SJXX321/r2qlDJo0CDtZ2cCJUavX81bNFCirvVR1/vwIIAAAggggAACCCDgjACBEmeUaIMAAggggIBJBex69U3TRVslpFYdh1PJXDJfjsybrl/jEhxeRSLHvCpVe97o0C73RKbs7N1CD4oUfNnksw2iQiUFz75hfeXkxrX6z/4KlNQeOlZq3TnKYQ8n/0yQfff0LPWt1K63eeB5h+txVOOc9AOyb1gfOb13h9a3YkwrafTRan2clIdulBPrljmOGxwsoZHRcma/Of52pEl/K7IsBBDwgwDVSfyAzpQIIIAAAj4TIFBSOvXw4cNl8eLFeoMFCxZI27ZttZ8nTpwoM2bM0L9bu3atREZGlnlumzZtkv79++ttHnnkEbn//vu1n9988015/fXX9e/UNTkXXnhhmeOtX79eu4JHVQIJCQnR2zoTKDF6/WryooGSdevWiarEwoMAAggggAACCCCAgDMCBEqcUaINAggggAACJhaw49U3MUv+keCqNfRTOfjGWDn6yTslnlLlLj0k6pX/OXx37Iv3JO3lR/XP6jz8ktS46R7952MLPpC0lx5y6OOPQEmdUROlxo13O6wj5/BB2XVde8k7lV3mWxlUsZJU7nyFhHfqKjmH9svxlYvl1D9bHPo0nPWjVGrdQfvs9O7tsvvms/9hVFU5qXn7QxJSMyL/Opy8PFFzH3z9Ccn84WwJZxP/1mBpCCBgYQHCJBY+XLaGAAIIIKAJcOVN6S+CuqJGXVVT8CQkJEjNmjW1H++++27tyhr1VKlSRX7//fdy36isrCxp166d3u66666TyZMnaz8/8cQTMm/ePP271atXS7169cods6QGzgRKjF6/WkfRQMn27dvdWj+dEEAAAQQQQAABBOwpQKDEnufOrhFAAAEELCZgx6tv1JU2Fc9pq11vk/3XxjJPNOrVeVL5ou56m1M7t8megflX5oS17SgNZnyXH5rQqnjsl53XtCk2nq8DJUXXrK3tSLrs/s+FkptxxOM3uFLr86XhrKX6OPvu6yMnf8+/h7ykK3YKT5ixeJ4ceK6Ma3U8Xh0DIIAAAmULcNUNbwgCCCCAgNUFXlx6oew89Kspttm09gXyRPd1Hq/FqCtvygpIxMfHS2pqqrbW2NhY7QocZx5VdSQ9Pf8qPVXtRFU9Uc/QoUNl6dKzf27atm2bQ9URZ8YuaONMoMTo9au5C3u1b99evviCvyDgyrnRFgEEEEAAAQQQsLsAgRK7vwHsHwEEEEDAEgJ2vfrG2cMLjYySJl9t0pvnZp2QHd0bSVBoBWn6zdaz1U7y8mT3wC5yetffxYb2VaBEVRZp+N4y7Tqawk/OoTTZfctFhoRJ1LjqqpuCOU6D+SU6AAAgAElEQVRt3yx7br9Umy6sQxdpMO1rfeq806fkTFqKhEbWFxXiKXiSR/SXrMSfnT0C2iGAAAKGCVCdxDBKBkIAAQQQMLHA7HV3yJpdc0yxwi5NBsmdF77v8VqMCJQcPHhQOnfurK+lcPhDfdi8eXP9uy5dusiHH37o1Lp79eolSUlJWttGjRrJ8uXLtX8fMGCAqAoo6nG24klpEzoTKDF6/WothQMlPXv2lGnTpjllQiMEEEAAAQQQQAABBJQAgRLeAwQQQAABBCwiYMerb1w5uuY/p4kEB+tdtl9SVyJHvyLV+92uf6aCJlkJP5U4bKXmbSQ0qrH+nboi5tTu/ODJqaQ/5dCMF1xZToltQ2pHSqMPfpaQWnUcvj+1Y6vsvfNyyTtd9jU3zi4gPDZeoqfm/4079aixs7fll4JuNHeNVGzaUvt35bH7pjhRYZaQGrWl8afr9fDNmf37tKt3eBBAAAFfChAm8aU2cyGAAAII+FPg+22vyvyNj/hzCfrcN3Z4RXq0HOXxWowIlCxevFiGDx+ur6Vv374yZcoU/efCFT5cqcah2h4/flwbp3Blk5EjR8qiRYv08X1ZocSI9auFEyjx+NVlAAQQQAABBBBAwNYCBEpsffxsHgEEEEDAagJ2vPrG2TNs9uNeCQoL15v/c1l9qT/pI4ercJwdq2g7dRXNzj75IQx3n4ot2krDGd85rFGNdeKXHyXl4ZvcHbbEfo3nrZcKDWO077I3J8reu3vo7ZqvOqhf/3Nk7luS/tYz+nc1B46QiBHj8n/Oy5Pt8Y7BF0MXyWAIIIBAEYHwuHiJfutsGA4gBBBAAAEErCywLW2FvLr8csmTPL9uM0iCZFS3ZdIysqvH6zAiUDJw4ED55Zf8qzrVM27cOLntttv0n++66y756af8vyTgbEWRzMxM6dChgz7GlVdeKdOnT9d+fvXVV2Xq1Kn6d6tXr5Z69eqVaZGSkiKnTp2SqKgoqVixot7WmQolRq9fTU6gxONXlwEQQAABBBBAAAFbCxAosfXxs3kEEEAAAasJ2OHqm9B6DaXyhd0ktH4jUVfZZHz7iah9l/cUDkqoSh//dI2WqFfnmSJQUqn1+dLg3e8kKCTUYRtHP50hB197orytufR95Yt7StTkj/U+6hqdgit+il4NtHfwFZL910a9bdHvdw/oJKf37nBpfhojgAAC7gqoykqqwhIPAggggAACdhF4Y2Vv2Zz6nV+326Z+L3nw0sWGrMHTQIkKc9x++9kKkyowsnbtWqlcubK+vueee07ef//s9TwqXNKgQYMy179u3Tq55ZZb9DaDBg2SZ57JD9Z/9tlnMnr0aP27uXPnOly5U9LAKpCyY0f+n5MKX7vjTKDE6PWrNRAoMeT1ZRAEEEAAAQQQQMC2AgRKbHv0bBwBBBBAwKoCVr/6JmL4s1Lz1gf04zu5ca3sG9a3zOOs1LqDNJz1o96m4LqWyMcmS7W+A516FYJCKzhcmZOXc0YkJ0fre2pn/pU07jwVm50rDWcvE238gicvT9ImPSLHvvL8nvKia2ry1SYtiKOeogGksHYXSIMZZ/9j8Y5ezSU344jDEM1Xp+s/73/6bsn84Qt3tk0fBBBAwCUBrrpxiYvGCCCAAAIWEVixfZrMTbzfr7sZGPe2dG0+zJA1eBIo2bNnj9xwww2Snn72zyOjRo1yuP5GLfKDDz6QZ599Vl/vzTffLBMmTChz/arCyZo1a/Q2M2bMkO7du2s///rrr6LGKHjU5+r70p59+/bJZZddpn99zz33yOOPP679XDRQMmvWLOna1bHyi9HrV/MSKDHk9WUQBBBAAAEEEEDAtgIESmx79GwcAQQQQMDKAla++kZV82g4a6l+fFq1kcsbieTmhztKehrN+UnUlTIFz4lV30nKY84FSQr61Br8mNS+O/8/BKon7eVH5dgX73n8GjX9ZpuE1Iw4O05urqQ88h/tqhujn6o9bpB64/79j595ebLrxjg5k7JbnyasbUdp8O4S/ecdPWMkN/PY2WUEh0jznw/oP6c+eaccX77Q6GUyHgIIIOAgQJiEFwIBBBBAwK4CmdlpMmPNANmattwvBK0iu8nQLvOkaqVIQ+Z3J1CSlZUlKnihrp4p+iQkJEjNmjUdPj5y5IgW6Dh+/Lj++VdffSXt2rUrcQ8//PCD3HvvvQ7f/fnnnxIWFqZ9lpOTI3369JGkpCS9zaeffipxcXEljvfAAw/IN998o3/3ySefSKdOnbSfN2/eLNdcc43+3RtvvCFXX321V9evBidQYsjryyAIIIAAAggggIBtBQiU2Pbo2TgCCCCAgJUFrH71TbMVKRJU4exd1MdXLpbUMbeWeKTVrr5V6j455ex3Kkhx7XlyJi3FpVfA1UBJsYomp7KLzRdx/9NS87YHHda27/5r5OTGs387zqVFltO46aKtElKrjtZKBVZSHr7JoUdQxUrSbHmy/tneu3tI9uZE/ecKDWOk8bz1+s+7+rdz2dHI/TAWAgjYQ6BwZSR77JhdIoAAAgggcFZg1Y5ZMmf9EL+QDOo0U+JjBhs2d9FASd++feWCCy5wGD8vL08yMzO1X9u2bRN1HU3hcEhB49mzZ8ull15a4tpUiOPJJ590+G7SpEly/fXXS1BQkPa5Coq8++678vLLLzu0U9fbFA2YqOolqopJ4ef11193CIeoNb722mvy3ntn/9JBTEyMfPfddxISEqJ1/eeff6RHjx76MK1bt5bnn39e1NU99erV08MxRq+fQIlhrzADIYAAAggggAACthQgUGLLY2fTCCCAAAJ2ELDy1Td1x75Z7Kqa4z8vFnUFS97JLP146z4zTar1GuBw3JlL5sv+Zx3/Bpoz74OrgZKilUcOvDBSMr7+SJ8qpHakNF2w2eEaHXW9zIlfVzizHK3NibVLHcYsq2P1/ndI5Jh//1ZfXp7s7NdWctL3F+vS7KdU/fqdYws+kLSXHtLbRIwcLzVv/rfcdV6ebI/PD6fwIIAAAt4SoDqJt2QZFwEEEEAgkAQ+3jBClidN9emSu7UYLrfEvmXonEUDJe4OPmfOHImPjy+1uwqLXHfddaIqjRR+VHBDVQtR32/YsKFYUKVLly7y/vvv6wGQwn2HDRsmS5acreaovouIiJDzzz9fzpw5I+vXry823vfffy/NmjXTh1HVVkqrlDJo0CB55plntLZGr59AibtvGv0QQAABBBBAAAEElACBEt4DBBBAAAEELCxg5VBJ4/kJUiG6qePp5eZKzuE0kaDg/Eoc//7ts4JGZw6myu4BnRxCJ84ev6uBkpjFSRJcvZY+fNErcupP+kiqXNLb2elLbJf910bZO/gKp8aIWfKPBFetobU9/tM3kvr47SX2azD9Wwk770Ltu7wzp2Xf0F6i5qkY00oazl4mQRUqad9lb/td9t55uVNz0wgBBBBwR4AwiTtq9EEAAQQQsKLA/oyt8tnvY2Rj8lc+2V6H6P5yQ/uJUq9aK0Pn8zRQoiqaDB06tNRQRuHFHjt2TF544QVR19M489x0001aoCM8PLzE5ioMoq7dUdfvlPeo4Iq6zubyy4v/eem///2vzJ07t9gQnTt3dvjcyPUTKCnvxPgeAQQQQAABBBBAoCwBAiW8HwgggAACCFhcIHlEP8lKXGW5XYbUrCONPvhJQiLqObW3E+uWScqo/4jk5jjVvmgjowMlTb7YKKH1Grq1loJOzgZKat4yXCIeeC6/W26u7OzbSnKOHipx7tCoxtJkfuLZME5enuRmHs0PoxQEdPLyZPd/LpDTe3d4tH46I4AAAmUJcNUN7wcCCCCAAAJnBbYfXCVfbnpKtqUt9ypLy8hucm278dK8TukVQNxdwGeffSbqShlnnkaNGknDhg0lOjpamjdvLtdee612LYyrz7Jly2Ty5Mny119/ldi1a9eucvvtt5cY/iipw+rVq2XChAmljjdw4EB56KGHtOolJT2q+sj48eNl0aJFkp6erjdR7dX1PkUfI9bfq1cvSUpK0oZWoZwpUwpdCesqKO0RQAABBBBAAAEEbCdAoMR2R86GEUAAAQTsJpC1YZUkD+9n2W3XvPUBqT30Cb1yRtGNqjDEkblvyeHZ/1734qaEmidi+LN67wPjh0vGN/8rdbSmi7bmV0n590mb/Jgc+/zs32aLWbpbgsOruLma/G4nN/0q+4aWU+UkOFhivt8lweGVtT6Z330q+8fdV+a82l7vf6ZYhRetU26uHJzylBydN92jtdMZAQQQKEuA6iS8HwgggAACCBQXUKGS77a+7LVKJaoySa9Wj3klTOLv88zOzpYdO3bI9u3bJS8vT6KioqRx48YSGRnp1tIKxlNBjdDQUImJiZEmTZpIWFiY0+Pt379f1K86depI3bp1tXFKe4xev9OLpCECCCCAAAIIIICA7QUIlNj+FQAAAQQQQMAOAla++qbg/NT1N2HnXySV2sSJ5OTKibVLJWv9T5J3OttvRxx+QVeJfuNzbf59w66WkxvX+HwtVa+8TuqNe1ebV11hs7NPS8k9nlHuOiq1Pl8ix7wmFRo3l+CwypJ7IlNO7dwmaS88IKd2bC23Pw0QQAABdwUIk7grRz8EEEAAATsIqOtvfkx6U5YnTTV0u91aDJcrWjxg+DU3hi6SwRBAAAEEEEAAAQQQQMDnAgRKfE7OhAgggAACCPhHwA6hEv/Ilj5rnYdfkho33SOSlyfbL62rVffgQQABBBAoXYAwCW8HAggggAACzgms2jFLftn1gWz18AqcVpHdpHOT2yU+ZrBzE9MKAQQQQAABBBBAAAEEbCVAoMRWx81mEUAAAQTsLpA8op9kJa6yO4NP9h8ed4lEvT5fgkIrSE76ftl5TRufzMskCCCAQKAKhMfFS/RbCwJ1+awbAQQQQAABnwtkZqdJwt758lvyV7IldYnkSZ5TawiSIDm3fk85P7q/dGx4o1St5N61L05NRiMEEEAAAQQQQAABBBAIaAECJQF9fCweAQQQQAAB1wSyNqyS5OH9XOtEa7cEmq3cL0Eh+XdgUx3GLUI6IYCAzQSar0632Y7ZLgIIIIAAAsYJbEtbIbsOJ8i+IxslJWOLHM1KkaMnU7UJaoTVlxrhURJV7VxpULODNKnVUVpGdjVuckZCAAEEEEAAAQQQQAABywoQKLHs0bIxBBBAAAEEShYgVOKbN6P+xA+l8sU9JO3FByXjm//5ZlJmQQABBAJUgKtuAvTgWDYCCCCAAAIIIIAAAggggAACCCCAgKUFCJRY+njZHAIIIIAAAiULUDHD+2+GuuomKCxccjOPeX8yZkAAAQQCWIAwSQAfHktHAAEEEEAAAQQQQAABBBBAAAEEELC0AIESSx8vm0MAAQQQQKB0geQR/SQrcRVECCCAAAII+E2AMInf6JkYAQQQQAABBBBAAAEEEEAAAQQQQACBcgUIlJRLRAMEEEAAAQSsK7D94gjrbo6dIYAAAgiYWiA8Ll6i31pg6jWyOAQQQAABBBBAAAEEEEAAAQQQQAABBOwsQKDEzqfP3hFAAAEEbC+QtWGVJA/vZ3sHABBAAAEEfC8QPXWBhMfG+35iZkQAAQQQQAABBBBAAAEEEEAAAQQQQAABpwQIlDjFRCMEEEAAAQSsK3B45iQ5NHOidTfIzhBAAAEETCfAVTemOxIWhAACCCCAAAIIIIAAAggggAACCCCAQDEBAiW8FAgggAACCCAghEp4CRBAAAEEfCVAmMRX0syDAAIIIIAAAggggAACCCCAAAIIIICAZwIESjzzozcCCCCAAAKWESBUYpmjZCMIIICAaQUIk5j2aFgYAggggAACCCCAAAIIIIAAAggggAACxQQIlPBSIIAAAggggIAukDyin2QlrkIEAQQQQAABwwXC4+Il+q0Fho/LgAgggAACCCCAAAIIIIAAAggggAACCCDgHQECJd5xZVQEEEAAAQQCVoBQScAeHQtHAAEETC3QfHW6qdfH4hBAAAEEEEAAAQQQQAABBBBAAAEEEEDAUYBACW8EAggggAACCDgIZG1YJcnD+6GCAAIIIICAYQLRUxdIeGy8YeMxEAIIIIAAAggggAACCCCAAAIIIIAAAgh4X4BAifeNmQEBBBBAAIGAEyBUEnBHxoIRQAAB0woQJjHt0bAwBBBAAAEEEEAAAQQQQAABBBBAAAEEyhQgUMILggACCCCAAAIlChAq4cVAAAEEEPBUoPaQMVJryGhPh6E/AggggAACCCCAAAIIIIAAAggggAACCPhBgECJH9CZEgEEEEAAgUARODxzkhyaOTFQlss6EUAAAQRMJECYxESHwVIQQAABBBBAAAEEEEAAAQQQQAABBBBwQ4BAiRtodEEAAQQQQMBOAoRK7HTa7BUBBBAwRoAwiTGOjIIAAggggAACCCCAAAIIIIAAAggggIA/BQiU+FOfuRFAAAEEEAgQAUIlAXJQLBMBBBAwgQBhEhMcAktAAAEEEEAAAQQQQAABBBBAAAEEEEDAAAECJQYgMgQCCCCAAAJ2EEge0U+yElfZYavsEQEEEEDATQHCJG7C0Q0BBBBAAAEEEEAAAQQQQAABBBBAAAETChAoMeGhsCQEEEAAAQTMKkCoxKwnw7oQQAAB/wuEx8VL9FsL/L8QVoAAAggggAACCCCAAAIIIIAAAggggAAChggQKDGEkUEQQAABBBCwjwChEvucNTtFAAEEnBUgTOKsFO0QQAABBBBAAAEEEEAAAQQQQAABBBAIHAECJYFzVqwUAQQQQAAB0wgQKjHNUbAQBBBAwBQC0VMXSHhsvCnWwiIQQAABBBBAAAEEEEAAAQQQQAABBBBAwBgBAiXGODIKAggggAACthMgVGK7I2fDCCCAQIkChEl4MRBAAAEEEEAAAQQQQAABBBBAAAEEELCmAIESa54ru0IAAQQQQMDrAlkbVkny8H5en4cJEEAAAQTMK0CYxLxnw8oQQAABBBBAAAEEEEAAAQQQQAABBBDwVIBAiaeC9EcAAQQQQMDGAoRKbHz4bB0BBGwvQJjE9q8AAAgggAACCCCAAAIIIIAAAggggAACFhcgUGLxA2Z7CCCAAAIIeFuAUIm3hRkfAQQQMJ8AYRLznQkrQgABBBBAAAEEEEAAAQQQQAABBBBAwGgBAiVGizIeAggggAACNhQgVGLDQ2fLCCBgWwHCJLY9ejaOAAIIIIAAAggggAACCCCAAAIIIGAzAQIlNjtwtosAAggggIC3BAiVeEuWcRFAAAHzCBAmMc9ZsBIEEEAAAQQQQAABBBBAAAEEEEAAAQS8LUCgxNvCjI8AAggggICNBAiV2Oiw2SoCCNhOgDCJ7Y6cDSOAAAIIIIAAAggggAACCCCAAAII2FyAQInNXwC2jwACCCCAgNEChEqMFmU8BBBAwP8ChEn8fwasAAEEEEAAAQQQQAABBBBAAAEEEEAAAV8LECjxtTjzIYAAAgggYAMBQiU2OGS2iAACthAIj4uXWkPGSHhsvC32yyYRQAABBBBAAAEEEEAAAQQQQAABBBBA4KwAgRLeBgQQQAABBBDwigChEq+wMigCCCDgMwEVJol+a4HP5mMiBBBAAAEEEEAAAQQQQAABBBBAAAEEEDCXAIESc50Hq0EAAQQQQMBSAipUcnjmRMlKXGWpfbEZBBBAwOoChEmsfsLsDwEEEEAAAQQQQAABBBBAAAEEEEAAgfIFCJSUb0QLBBBAAAEEEPBQIHlEP0IlHhrSHQEEEPCVAGESX0kzDwIIIIAAAggggAACCCCAAAIIIIAAAuYWIFBi7vNhdQgggAACCFhG4PDMSXJo5kTL7IeNIIAAAlYUIExixVNlTwgggAACCCCAAAIIIIAAAggggAACCLgnQKDEPTd6IYAAAggggIAbAoRK3ECjCwIIIOAjgdpDxkitIaN9NBvTIIAAAggggAACCCCAAAIIIIAAAggggIDZBQiUmP2EWB8CCCCAAAIWEyBUYrEDZTsIIGAJAcIkljhGNoEAAggggAACCCCAAAIIIIAAAggggIChAgRKDOVkMAQQQAABBBBwRoBQiTNKtEEAAQR8I0CYxDfOzIIAAggggAACCCCAAAIIIIAAAggggECgCRAoCbQTY70IIIAAAghYRIBQiUUOkm0ggEBAC0RPXSDhsfEBvQcWjwACCCCAAAIIIIAAAggggAACCCCAAALeESBQ4h1XRkUAAQQQQAABJwSyNqyS5OH9nGhJEwQQQAABowUIkxgtyngIIIAAAggggAACCCCAAAIIIIAAAghYS4BAibXOk90ggAACCCAQcAKESgLuyFgwAggEuEB4XLzUGjKGyiQBfo4sHwEEEEAAAQQQQAABBBBAAAEEEEAAAW8LECjxtjDjI4AAAggggIBTAskj+klW4iqn2tIIAQQQQMA9ARUmiX5rgXud6YUAAggggAACCCCAAAIIIIAAAggggAACthIgUGKr42azCCCAAAIImFvg8MxJcmjmRHMvktUhgAACASpQe8gYqTVkdICunmUjgAACCCCAAAIIIIAAAggggAACCCCAgK8FCJT4Wpz5EEAAAQQQQKBMAUIlvCAIIICA8QKESYw3ZUQEEEAAAQQQQAABBBBAAAEEEEAAAQSsLkCgxOonzP4QQAABBBAIQAFCJQF4aCwZAQRMK0CYxLRHw8IQQAABBBBAAAEEEEAAAQQQQAABBBAwtQCBElMfD4tDAAEEEEDAvgJZG1bJ4ZkTJStxlX0R2DkCCCDgoUD01AUSHhvv4Sh0RwABBBBAAAEEEEAAAQQQQAABBBBAAAE7ChAoseOps2cEEEAAAQQCSIBqJQF0WCwVAQRMIxAeFy/Rby0wzXpYCAIIIIAAAggggAACCCCAAAIIIIAAAggEngCBksA7M1aMAAIIIICA7QQIldjuyNkwAgh4IMAVNx7g0RUBBBBAAAEEEEAAAQQQQAABBBBAAAEEdAECJbwMCCCAAAIIIBAQAoRKAuKYWCQCCPhZgCtu/HwATI8AAggggAACCCCAAAIIIIAAAggggICFBAiUWOgw2QoCCCCAAAJ2EEge0U+yElfZYavsEQEEEHBaQF1xU2vIGAmPjXe6Dw0RQAABBBBAAAEEEEAAAQQQQAABBBBAAIGyBAiU8H4ggAACCCCAQMAJUK0k4I6MBSOAgBcFuOLGi7gMjQACCCCAAAIIIIAAAggggAACCCCAgI0FCJTY+PDZOgIIIIAAAoEsQKgkkE+PtSOAgFEChEmMkmQcBBBAAAEEEEAAAQQQQAABBBBAAAEEECgqQKCEdwIBBBBAAAEEAlaAUEnAHh0LRwABDwW44sZDQLojgAACCCCAAAIIIIAAAggggAACCCCAQLkCBErKJaIBAggggAACCJhdgGCJ2U+I9SGAgJECVCUxUpOxEEAAAQQQQAABBBBAAAEEEEAAAQQQQKA0AQIlvBsIIIAAAgggYAkBQiWWOEY2gQAC5QgQJuEVQQABBBBAAAEEEEAAAQQQQAABBBBAAAFfCRAo8ZU08yCAAAIIIICATwQIlviEmUkQQMDHAlxx42NwpkMAAQQQQAABBBBAAAEEEEAAAQQQQAABIVDCS4AAAggggAAClhMgVGK5I2VDCNhagKoktj5+No8AAggggAACCCCAAAIIIIAAAggggIDfBAiU+I2eiRFAAAEEEEDAmwJZG1bJ4ZkTJStxlTenYWwEEEDAawJUJfEaLQMjgAACCCCAAAIIIIAAAggggAACCCCAgBMCBEqcQKIJAggggAACCASuANVKAvfsWDkCdhagKomdT5+9I4AAAggggAACCCCAAAIIIIAAAgggYA4BAiXmOAdWgQACCCCAAAJeFCBU4kVchkYAAUMFqEpiKCeDIYAAAggggAACCCCAAAIIIIAAAggggIAHAgRKPMCjKwIIIIAAAggElgDBksA6L1aLgN0EqEpitxNnvwgggAACCCCAAAIIIIAAAggggAACCJhbgECJuc+H1SGAAAIIIICAwQKESgwGZTgEEPBYgKokHhMyAAIIIIAAAggggAACCCCAAAIIIIAAAgh4QYBAiRdQGRIBBBBAAAEEzC9AsMT8Z8QKEbCDAFVJ7HDK7BEBBBBAAAEEEEAAAQQQQAABBBBAAIHAFCBQEpjnxqoRQAABBBBAwAABFSrJ2vCzZCWuMmA0hkAAAQScF6AqifNWtEQAAQQQQAABBBBAAAEEEEAAAQQQQAAB/wgQKPGPO7MigAACCCCAgIkEqFZiosNgKQjYQICqJDY4ZLaIAAIIIIAAAggggAACCCCAAAIIIICABQQIlFjgENkCAggggAACCBgjQLDEGEdGQQCBkgWoSsKbgQACCCCAAAIIIIAAAggggAACCCCAAAKBJECgJJBOi7UigAACCCCAgNcFCJV4nZgJELCdAEES2x05G0YAAQQQQAABBBBAAAEEEEAAAQQQQMASAgRKLHGMbAIBBBBAAAEEjBYgWGK0KOMhYE8Brrex57mzawQQQAABBBBAAAEEEEAAAQQQQAABBKwgQKDECqfIHhBAAAEEEEDAawIES7xGy8AIWFqAqiSWPl42hwACCCCAAAIIIIAAAggggAACCCCAgC0ECJTY4pjZJAIIIIAAAgh4IkCoxBM9+iJgLwGCJPY6b3aLAAIIIIAAAggggAACCCCAAAIIIICAlQUIlFj5dNkbAggggAACCBgqQLDEUE4GQ8ByAtFTF0h4bLzl9sWGEEAAAQQQQAABBBBAAAEEEEAAAQQQQMCeAgRK7Hnu7BoBBBBAAAEEPBAgWOIBHl0RsKBA7SFjpNaQ0RbcGVtCAAEEEEAAgUAWSE5OlmrVqmm/ePwvcHm/bbL85wz/L0REnhkTJc+OiTbFWlgEAggggAACCCCAgLkFCJSY+3xYHQIIIIAAAgiYWIBgiYkPh6Uh4AMBrrfxATJTIIAAAggggIDbAipQkpmZKS1btnR7DDoaJ6DCJCpUYoaHQIkZToE1IM81upEAACAASURBVIAAAggggAACgSFAoCQwzolVIoAAAggggICJBQiWmPhwWBoCXhAgSOIFVIZEAAEEEEAAAUMFVJgkJSVFG1MFSqhSYiiv24OZoUoJYRK3j4+OCCCAAAIIIICALQUIlNjy2Nk0AggggAACCBgtoEIl6jk0c6LRQzMeAgiYRIAgiUkOgmUggAACCCCAQLkChQMlKkxClZJyyXzSwAxVSgiU+OSomQQBBBBAAAEEELCMAIESyxwlG0EAAQQQQAABMwhQrcQMp8AaEDBWgCCJsZ6MhgACCCCAAALeFSgcJimYKVCqlOxNPiVb/86WoCCRyy6uKqGhQS5h/f5nlkyblab1ie9cVW4bULvU/tnZebJzT7akpJ6W+vUqSEzjSlKpkmvzubS4fxv7s0oJYRJ3Tow+CCCAAAIIIICAvQUIlNj7/Nk9AggggAACCHhJgGCJl2AZFgEfChAk8SE2UyGAAAIIIICAYQIlBUoCoUrJ6dN50umKLaJCIerZ+2d7aRBVwSWXseP3yQuvpmp9XvhvA3ni4foO/U9k5cob7xyQ//vgoPyzM7vY2M2aVpI7b4mQRx+oJ+FhwS7N7Wxjf1YpIVDi7CnRDgEEEEAAAQQQQKBAgEAJ7wICCCCAAAIIIOBFAYIlXsRlaAS8JECQxEuwDIsAAggggAACXhcoKUxSMKnZq5Q8Pm6fTHwjPwyiHncCJR0u3awHUtYtbS0XxFbRx1u05KgMfmCnHEg7U+45qGDJjNeaSPeu1cpt604Df1QpIUzizknRBwEEEEAAAQQQQIBACe8AAggggAACCCDgAwEVLMna8LNkJa7ywWxMgQAC7ggQJHFHjT4IIIAAAgggYCaBsgIlZq5SoqqKqOoihR9XAyXJqaelQZvftSGqVQ2Rwzs6SEhI/hU2f/6VJe0u3lzsqFS7c5pXkr+3Z0tGZk6x7zevbSvntgwz/Ij9UaWEQInhx8iACCCAAAIIIICALQQIlNjimNkkAggggAACCJhFQAVL1HNo5kSzLIl1IGB7AYIktn8FAEAAAQQQQMASAmWFSQo2aLYqJccyckRVJpk2K63YGbgaKPlw3iG5/b4d2ji3DagtH7wTo/27uubmgiu2yOatJ/U5LupURaa/1kTatw3XP1u7/rjc+/AuvcKJ+iKuQ2VZ811rqVgxP5hi5OPLKiWESYw8OcZCAAEEEEAAAQTsJUCgxF7nzW4RQAABBBBAwCQCBEtMchAsw9YCBElsffxsHgEEEEAAAcsJOBMoMVOVkm9/OCp3Di/9ChpXAyW3Dt0hc+cf0s5VhUlUqEQ98xcclpvu/Ec/70u7VJUfv2opoaHFQyIlhU+++qi59LuqpuHviy+rlBAoMfz4GBABBBBAAAEEELCNAIES2xw1G0UAAQQQQAABswqocAkVS8x6OqzLigIESax4quwJAQQQQAABews4EyYpEPJ3lZL0Q2fkkf/ulfc/Ti/z0FwJlJw5kye1m23Ur63Zt7m9RNevoI3/wJg98ta7B/S5yrvG5ue1mXJpn616+3GPR8vTo6O88oL5okoJYRKvHB2DIoAAAggggAACthEgUGKbo2ajCCCAAAIIIGB2AYIlZj8h1hfoArWHjJGwuHgJj40P9K2wfgQQQAABBBBAwEHAlUCJv6uUdL92m/z4U4bD+tu0CpMLO1aR2XPPhkwKh0LKO+51icel85V/ac3UNTYbV7bRu7S64E/Ztj3/uptmTSvJ9sR2ZQ536lSeVKqfqLe5pncNWTC3RXlLcOt7X1QpIVDi1tHQCQEEEEAAAQQQQOBfAQIlvAoIIIAAAggggIDJBAiWmOxAWE5AC1CNJKCPj8UjgAACCCCAgBMCroRJCobzZ5WSS67aKqt+ydR3NmxwpEx+vqG891G6jBi9W//clUDJhFdS5KkJyVrfpx6NkuefjNb+PTdXZPhju2XPvlPar7gOleW9t5qWqZqdnSdhUWcDJVddWUO+meedQIlaiDerlBAmceI3EE0QQAABBBBAAAEEyhQgUMILggACCCCAAAIImFRABUvUw3U4Jj0glmVqAYIkpj4eFocAAggggAACBgq4EyjxZ5WSgkBJ3541tPDHRZ2qaBpT/y/N7UBJl55/ydr1x7Vxli9sKV3jq7kt/EvCcbmoR361E/V4O5ThzSol3l6728h0RAABBBBAAAEEEAgYAQIlAXNULBQBBBBAAAEE7CxA1RI7nz57d1aAEImzUrRDAAEEEEAAAasIuBMmKdi7v6qUzHj/oHTsUFk6nl/Z4RjcDZQcOnxGIppv1Mc6mRInlSoFuX3E/QYmycLFR/X+6robde2NNx9vVCkhTOLNE2NsBBBAAAEEEEDAPgIESuxz1uwUAQQQQAABBCwgQNUSCxwiWzBcgCCJ4aQMiAACCCCAAAIBIuBJoMSfVUpK4nU3UPLZwsNy4x3/aEP271NTvvywudunt2jJUbn65iSH/geTOkhE7VC3x3SmozeqlBAocUaeNggggAACCCCAAALlCRAoKU+I7xFAAAEEEEAAAZMKULXEpAfDsnwioEIk4bGXSJj2z3ifzMkkCCCAAAIIIICAmQQ8CZMU7MNfVUpKcnQ3UDL0oV3y7pyD2pDTX2siQ++o49Yxbfj9hMR12+LQd8JTDeTJUfXdGs/VTkZWKSFM4qo+7RFAAAEEEEAAAQRKEyBQwruBAAIIIIAAAggEuABVSwL8AFm+SwJUI3GJi8YIIIAAAgggYGEBIwIlZqpS4k6gJC9PpH7rjXIg7Yx20kkJ7aR5TCWXTz3pn2wtTJKRmaP3je9cVX78qqVUrOj+9TmuLMTIKiUESlyRpy0CCCCAAAIIIIBAWQIESng/EEAAAQQQQAABCwmocEnWhp8lK3GVhXbFVuwuQIjE7m8A+0cAAQQQQACBogJGhEkKxjRLlRJ3AiV/bM6S9pds1rbSrGkl2Z7YzuWX5fc/s6TH9dv0UIoaoGF0Rfnlh9YSXb+Cy+N50sGIKiWESTw5AfoigAACCCCAAAIIFBUgUMI7gQACCCCAAAIIWFSAyiUWPVibbIsQiU0Omm0igAACCCCAgFsCRgZKzFKlxJ1AyWvT9suosXs1w4eH1ZNXJzR0yfOHFcekx3V/O/RRYZKV37SSpo0rujSWEY2NqFJCoMSIk2AMBBBAAAEEEEAAgQIBAiW8CwgggAACCCCAgA0ECJfY4JAtsEVCJBY4RLaAAAIIIIAAAl4XMDJMUrBYM1QpcSdQ0vP6v+X75ce0bXwzr4VcdWUNp/1nz02Xu0bsdGivqpws/bKlX8IkBQvxpEoJYRKnj5+GCCCAAAIIIIAAAk4KEChxEopmCCCAAAIIIICAVQQIl1jlJK2xD0Ik1jhHdoEAAggggAACvhPwRqDEDFVKXA2UZB7PlWqNNujwGXtipWqV4HIPIi9P5PmXU+SZl5Id2l7UqYos/LiF1IkILXcMbzbwpEoJgRJvngxjI4AAAggggAAC9hQgUGLPc2fXCCCAAAIIIICAJkC4hBfBHwKESPyhzpwIIIAAAgggYAUBb4RJClz8XaXE1UDJtz8clT4DkrTl9+hWXZZ8fk65R3zqVJ7cO2qXqOokhZ/rrq4pH06Pkcrh5QdSyp3EgAbuVCkhTGIAPEMggAACCCCAAAIIFBMgUMJLgQACCCCAAAIIIKAJEC7hRfCmACESb+oyNgIIIIAAAgjYRcCbgRJ/VylxNVDy8Ng98vq0A9rRvzqhoTw8rF6Zr0F2dp7ccMd2WbTkqEM71e/l5xpISEiQaV4jd6qUECgxzfGxEAQQQAABBBBAwFICBEosdZxsBgEEEEAAAQQQMEYga8MqOZm4Shvs0MyJxgzKKLYSUAGS8NhLJEz7Z7yt9s5mEUAAAQQQQAABbwh4M0xSsF5/VilxNVDSPG6T/LMzW1v6xpVtpH3b8FLZz5zJk5uH7JDPFh52aPP25MYybHCkN47L4zFdqVJCmMRjbgZAAAEEEEAAAQQQKEWAQAmvBgIIIIAAAggggEC5AgUBk6wNP0vWv0GTcjvRwFYCKkCinlpDxhAgsdXJs1kEEEAAAQQQ8JWALwIl/qxS4kqgJOmfbDmn0yaNvm5kqKT+1UGCyigwMmlKqox5dp/DUX3xQXO5tm9NXx2fy/O4UqWEQInLvHRAAAEEEEAAAQQQcFKAQImTUDRDAAEEEEAAAQQQOCtAwIS3oXCARGlQhYR3AgEEEEAAAQQQ8J6AL8IkBav3V5USVwIl02enyX2jdmtLvmdQHZnxepNS8XftOSVNO/zh8P2XHzaX/n3MGyYpWKwzVUoIk3jv9x0jI4AAAggggAACCIgQKOEtQAABBBBAAAEEEPBY4PDMSdoYVDDxmNK0AxAgMe3RsDAEEEAAAQQQsIGALwMl/qpS4kqg5NrbtstX3xzRTv7T2c3kxn61Sn0Lrh+0Xb74Or9twfPWpMZOvzX16oaWOb7TA7nR0JkqJQRK3IClCwIIIIAAAggggIDTAgRKnKaiIQIIIIAAAggggICzAgUVTFR7QibOqpmnHeER85wFK0EAAQQQQAABBHwZJinQ9keVEmcDJSezcyU8aoP+YhxM6iARtUNLfFHWJR6Xzlf+5dFL1L5tuGxc2cajMTzpXFaVEsIknsjSFwEEEEAAAQQQQMAZAQIlzijRBgEEEEAAAQQQQMBjAUImHhN6ZQDCI15hZVAEEEAAAQQQQMAwAX8ESvxRpcTZQMmylRlyRf9tmu9FnarImiWtS7We8f5BuffhXR6dhb8DJWVVKSFQ4tHR0hkBBBBAAAEEEEDACQECJU4g0QQBBBBAAAEEEEDAOwKETLzjWtqohEd8681sCCCAAAIIIICApwL+CJMUrNnXVUqmz06T+0bt1slSt7aXepEVihE++fw+efG1VO3z55+MlqcejSqV+ekXk+X5l1M8OoYLYqvIuqWlh1Y8GtzJziVVKSFM4iQezRBAAAEEEEAAAQQ8EiBQ4hEfnRFAAAEEEEAAAQS8IVA4aKLG59oc55QLAiOqdXjsJRIWF691DI/N/ycPAggggAACCCCAQGAJ+DNQ4o8qJc6czso1mbJ5a5bWtNcVNaRp44rOdAvoNiVVKSFQEtBHyuIRQAABBBBAAIGAESBQEjBHxUIRQAABBBBAAAEECgTsHDgpCI0UDowoF0Ij/P5AAAEEEEAAAQSsJeDPMEmBpK+rlFjrBI3dTeEqJYRJjLVlNAQQQAABBBBAAIHSBQiU8HYggAACCCCAAAIIWEpAhU0KnpOJZ/9dfaYqnRR+sop872uIwhVF1NwqJFL4Kagwkv8dVUZ8fT7MhwACCCCAAAII+FPADIESs1Yp8ee5+GvuwlVKCJT46xSYFwEEEEAAAQQQsJ8AgRL7nTk7RgABBBBAAAEEEChFoHAYxRtIhEK8ocqYCCCAAAIIIICA9QTMECYpUKVKiXneL1WlpGt8VXl2TLR5FsVKEEAAAQQQQAABBCwtQKDE0sfL5hBAAAEEEEAAAQQQQAABBBBAAAEEEEAg0ATMFCihSol53h5VpWT5qgwCJeY5ElaCAAIIIIAAAghYXoBAieWPmA0igAACCCCAAAIIIIAAAggggAACCCCAAAIIIIAAAggggAACCCCAAAKuCRAocc2L1ggggAACCCCAAAIIIIAAAggggAACCCCAAAIIIIAAAggggAACCCCAgOUFCJRY/ojZIAIIIIAAAggggAACCCCAAAIIIIAAAggggAACCCCAAAIIIIAAAggg4JoAgRLXvGiNAAIIIIAAAggggAACCCCAAAIIIIAAAggggAACCCCAAAIIIIAAAghYXoBAieWPmA0igAACCCCAAAIIIIAAAggggAACCCCAAAIIIIAAAggggAACCCCAwP+3a4c2AAAwDMP+/7o3hFbmJfNoCDQBQUnzsiZAgAABAgQIECBAgAABAgQIECBAgAABAgQIECBAgAABAgQI3AsISu5f7EACBAgQIECAAAECBAgQIECAAAECBAgQIECAAAECBAgQIECAQBMQlDQvawIECBAgQIAAAQIECBAgQIAAAQIECBAgQIAAAQIECBAgQIDAvYCg5P7FDiRAgAABAgQIECBAgAABAgQIECBAgAABAgQIECBAgAABAgQINAFBSfOyJkCAAAECBAgQIECAAAECBAgQIECAAAECBAgQIECAAAECBAjcCwhK7l/sQAIECBAgQIAAAQIECBAgQIAAAQIECBAgQIAAAQIECBAgQIBAExCUNC9rAgQIECBAgAABAgQIECBAgAABAgQIECBAgAABAgQIECBAgMC9gKDk/sUOJECAAAECBAgQIECAAAECBAgQIECAAAECBAgQIECAAAECBAg0AUFJ87ImQIAAAQIECBAgQIAAAQIECBAgQIAAAQIECBAgQIAAAQIECNwLCEruX+xAAgQIECBAgAABAgQIECBAgAABAgQIECBAgAABAgQIECBAgEATEJQ0L2sCBAgQIECAAAECBAgQIECAAAECBAgQIECAAAECBAgQIECAwL2AoOT+xQ4kQIAAAQIECBAgQIAAAQIECBAgQIAAAQIECBAgQIAAAQIECDQBQUnzsiZAgAABAgQIECBAgAABAgQIECBAgAABAgQIECBAgAABAgQI3AsISu5f7EACBAgQIECAAAECBAgQIECAAAECBAgQIECAAAECBAgQIECAQBMQlDQvawIECBAgQIAAAQIECBAgQIAAAQIECBAgQIAAAQIECBAgQIDAvYCg5P7FDiRAgAABAgQIECBAgAABAgQIECBAgAABAgQIECBAgAABAgQINAFBSfOyJkCAAAECBAgQIECAAAECBAgQIECAAAECBAgQIECAAAECBAjcCwhK7l/sQAIECBAgQIAAAQIECBAgQIAAAQIECBAgQIAAAQIECBAgQIBAExCUNC9rAgQIECBAgAABAgQIECBAgAABAgQIECBAgAABAgQIECBAgMC9gKDk/sUOJECAAAECBAgQIECAAAECBAgQIECAAAECBAgQIECAAAECBAg0AUFJ87ImQIAAAQIECBAgQIAAAQIECBAgQIAAAQIECBAgQIAAAQIECNwLCEruX+xAAgQIECBAgAABAgQIECBAgAABAgQIECBAgAABAgQIECBAgEATEJQ0L2sCBAgQIECAAAECBAgQIECAAAECBAgQIECAAAECBAgQIECAwL2AoOT+xQ4kQIAAAQIECBAgQIAAAQIECBAgQIAAAQIECBAgQIAAAQIECDQBQUnzsiZAgAABAgQIECBAgAABAgQIECBAgAABAgQIECBAgAABAgQI3AsISu5f7EACBAgQIECAAAECBAgQIECAAAECBAgQIECAAAECBAgQIECAQBMQlDQvawIECBAgQIAAAQIECBAgQIAAAQIECBAgQIAAAQIECBAgQIDAvYCg5P7FDiRAgAABAgQIECBAgAABAgQIECBAgAABAgQIECBAgAABAgQINAFBSfOyJkCAAAECBAgQIECAAAECBAgQIECAAAECBAgQIECAAAECBAjcCwhK7l/sQAIECBAgQIAAAQIECBAgQIAAAQIECBAgQIAAAQIECBAgQIBAExCUNC9rAgQIECBAgAABAgQIECBAgAABAgQIECBAgAABAgQIECBAgMC9gKDk/sUOJECAAAECBAgQIECAAAECBAgQIECAAAECBAgQIECAAAECBAg0AUFJ87ImQIAAAQIECBAgQIAAAQIECBAgQIAAAQIECBAgQIAAAQIECNwLCEruX+xAAgQIECBAgAABAgQIECBAgAABAgQIECBAgAABAgQIECBAgEATEJQ0L2sCBAgQIECAAAECBAgQIECAAAECBAgQIECAAAECBAgQIECAwL2AoOT+xQ4kQIAAAQIECBAgQIAAAQIECBAgQIAAAQIECBAgQIAAAQIECDQBQUnzsiZAgAABAgQIECBAgAABAgQIECBAgAABAgQIECBAgAABAgQI3AsISu5f7EACBAgQIECAAAECBAgQIECAAAECBAgQIECAAAECBAgQIECAQBMQlDQvawIECBAgQIAAAQIECBAgQIAAAQIECBAgQIAAAQIECBAgQIDAvYCg5P7FDiRAgAABAgQIECBAgAABAgQIECBAgAABAgQIECBAgAABAgQINAFBSfOyJkCAAAECBAgQIECAAAECBAgQIECAAAECBAgQIECAAAECBAjcCwhK7l/sQAIECBAgQIAAAQIECBAgQIAAAQIECBAgQIAAAQIECBAgQIBAExCUNC9rAgQIECBAgAABAgQIECBAgAABAgQIECBAgAABAgQIECBAgMC9gKDk/sUOJECAAAECBAgQIECAAAECBAgQIECAAAECBAgQIECAAAECBAg0AUFJ87ImQIAAAQIECBAgQIAAAQIECBAgQIAAAQIECBAgQIAAAQIECNwLCEruX+xAAgQIECBAgAABAgQIECBAgAABAgQIECBAgAABAgQIECBAgEATEJQ0L2sCBAgQIECAAAECBAgQIECAAAECBAgQIECAAAECBAgQIECAwL2AoOT+xQ4kQIAAAQIECBAgQIAAAQIECBAgQIAAAQIECBAgQIAAAQIECDQBQUnzsiZAgAABAgQIECBAgAABAgQIECBAgAABAgQIECBAgAABAgQI3AsISu5f7EACBAgQIECAAAECBAgQIECAAAECBAgQIECAAAECBAgQIECAQBMQlDQvawIECBAgQIAAAQIECBAgQIAAAQIECBAgQIAAAQIECBAgQIDAvYCg5P7FDiRAgAABAgQIECBAgAABAgQIECBAgAABAgQIECBAgAABAgQINAFBSfOyJkCAAAECBAgQIECAAAECBAgQIECAAAECBAgQIECAAAECBAjcCwhK7l/sQAIECBAgQIAAAQIECBAgQIAAAQIECBAgQIAAAQIECBAgQIBAExCUNC9rAgQIECBAgAABAgQIECBAgAABAgQIECBAgAABAgQIECBAgMC9gKDk/sUOJECAAAECBAgQIECAAAECBAgQIECAAAECBAgQIECAAAECBAg0AUFJ87ImQIAAAQIECBAgQIAAAQIECBAgQIAAAQIECBAgQIAAAQIECNwLCEruX+xAAgQIECBAgAABAgQIECBAgAABAgQIECBAgAABAgQIECBAgEATEJQ0L2sCBAgQIECAAAECBAgQIECAAAECBAgQIECAAAECBAgQIECAwL2AoOT+xQ4kQIAAAQIECBAgQIAAAQIECBAgQIAAAQIECBAgQIAAAQIECDQBQUnzsiZAgAABAgQIECBAgAABAgQIECBAgAABAgQIECBAgAABAgQI3AsISu5f7EACBAgQIECAAAECBAgQIECAAAECBAgQIECAAAECBAgQIECAQBMQlDQvawIECBAgQIAAAQIECBAgQIAAAQIECBAgQIAAAQIECBAgQIDAvYCg5P7FDiRAgAABAgQIECBAgAABAgQIECBAgAABAgQIECBAgAABAgQINAFBSfOyJkCAAAECBAgQIECAAAECBAgQIECAAAECBAgQIECAAAECBAjcCwhK7l/sQAIECBAgQIAAAQIECBAgQIAAAQIECBAgQIAAAQIECBAgQIBAExCUNC9rAgQIECBAgAABAgQIECBAgAABAgQIECBAgAABAgQIECBAgMC9gKDk/sUOJECAAAECBAgQIECAAAECBAgQIECAAAECBAgQIECAAAECBAg0AUFJ87ImQIAAAQIECBAgQIAAAQIECBAgQIAAAQIECBAgQIAAAQIECNwLCEruX+xAAgQIECBAgAABAgQIECBAgAABAgQIECBAgAABAgQIECBAgEATEJQ0L2sCBAgQIECAAAECBAgQIECAAAECBAgQIECAAAECBAgQIECAwL2AoOT+xQ4kQIAAAQIECBAgQIAAAQIECBAgQIAAAQIECBAgQIAAAQIECDQBQUnzsiZAgAABAgQIECBAgAABAgQIECBAgAABAgQIECBAgAABAgQI3AsISu5f7EACBAgQIECAAAECBAgQIECAAAECBAgQIECAAAECBAgQIECAQBMQlDQvawIECBAgQIAAAQIECBAgQIAAAQIECBAgQIAAAQIECBAgQIDAvYCg5P7FDiRAgAABAgQIECBAgAABAgQIECBAgAABAgQIECBAgAABAgQINAFBSfOyJkCAAAECBAgQIECAAAECBAgQIECAAAECBAgQIECAAAECBAjcCwhK7l/sQAIECBAgQIAAAQIECBAgQIAAAQIECBAgQIAAAQIECBAgQIBAExCUNC9rAgQIECBAgAABAgQIECBAgAABAgQIECBAgAABAgQIECBAgMC9gKDk/sUOJECAAAECBAgQIECAAAECBAgQIECAAAECBAgQIECAAAECBAg0AUFJ87ImQIAAAQIECBAgQIAAAQIECBAgQIAAAQIECBAgQIAAAQIECNwLCEruX+xAAgQIECBAgAABAgQIECBAgAABAgQIECBAgAABAgQIECBAgEATEJQ0L2sCBAgQIECAAAECBAgQIECAAAECBAgQIECAAAECBAgQIECAwL2AoOT+xQ4kQIAAAQIECBAgQIAAAQIECBAgQIAAAQIECBAgQIAAAQIECDQBQUnzsiZAgAABAgQIECBAgAABAgQIECBAgAABAgQIECBAgAABAgQI3AsISu5f7EACBAgQIECAAAECBAgQIECAAAECBAgQIECAAAECBAgQIECAQBMQlDQvawIECBAgQIAAAQIECBAgQIAAAQIECBAgQIAAAQIECBAgQIDAvYCg5P7FDiRAgAABAgQIECBAgAABAgQIECBAgAABAgQIECBAgAABAgQINAFBSfOyJkCAAAECBAgQIECAAAECBAgQIECAAAECBAgQIECAAAECBAjcCwhK7l/sQAIECBAgQIAAAQIECBAgQIAAAQIECBAgQIAAAQIECBAgQIBAExCUNC9rAgQIECBAgAABAgQIECBAgAABAgQIECBAmYrfmQAAAQxJREFUgAABAgQIECBAgMC9gKDk/sUOJECAAAECBAgQIECAAAECBAgQIECAAAECBAgQIECAAAECBAg0AUFJ87ImQIAAAQIECBAgQIAAAQIECBAgQIAAAQIECBAgQIAAAQIECNwLCEruX+xAAgQIECBAgAABAgQIECBAgAABAgQIECBAgAABAgQIECBAgEATEJQ0L2sCBAgQIECAAAECBAgQIECAAAECBAgQIECAAAECBAgQIECAwL2AoOT+xQ4kQIAAAQIECBAgQIAAAQIECBAgQIAAAQIECBAgQIAAAQIECDQBQUnzsiZAgAABAgQIECBAgAABAgQIECBAgAABAgQIECBAgAABAgQI3AsM0UH7FCAABWUAAAAASUVORK5CYII=&quot; alt=&quot;Wykres odpowiedzi z Formularzy. Tytuł pytania: What do you do?. Liczba odpowiedzi: 24 odpowiedzi.&quot;&gt;&lt;/b&gt;" style="text;whiteSpace=wrap;html=1;" vertex="1" parent="1">
          <mxGeometry x="340" y="50" width="2010" height="1350" as="geometry" />
        </mxCell>
      </root>
    </mxGraphModel>
  </diagram>
</mxfile>
